SplineFontDB: 3.0
FontName: Untitled1
FullName: Untitled1
FamilyName: Untitled1
Weight: Book
Copyright: Copyright (c) 2018, pcboby
Version: 001.000
ItalicAngle: 0
UnderlinePosition: -100
UnderlineWidth: 50
Ascent: 800
Descent: 200
InvalidEm: 0
sfntRevision: 0x00010000
LayerCount: 2
Layer: 0 0 "Back" 1
Layer: 1 0 "Fore" 0
XUID: [1021 519 -2085699189 8257460]
StyleMap: 0x0040
FSType: 0
OS2Version: 4
OS2_WeightWidthSlopeOnly: 0
OS2_UseTypoMetrics: 1
CreationTime: 1536828836
ModificationTime: 1538103202
PfmFamily: 17
TTFWeight: 400
TTFWidth: 5
LineGap: 90
VLineGap: 0
Panose: 2 0 5 9 0 0 0 0 0 0
OS2TypoAscent: 800
OS2TypoAOffset: 0
OS2TypoDescent: -200
OS2TypoDOffset: 0
OS2TypoLinegap: 90
OS2WinAscent: 801
OS2WinAOffset: 0
OS2WinDescent: 201
OS2WinDOffset: 0
HheadAscent: 801
HheadAOffset: 0
HheadDescent: -201
HheadDOffset: 0
OS2SubXSize: 650
OS2SubYSize: 700
OS2SubXOff: 0
OS2SubYOff: 140
OS2SupXSize: 650
OS2SupYSize: 700
OS2SupXOff: 0
OS2SupYOff: 480
OS2StrikeYSize: 49
OS2StrikeYPos: 258
OS2CapHeight: 666
OS2XHeight: 666
OS2Vendor: 'PfEd'
OS2CodePages: 80000000.00000000
OS2UnicodeRanges: 00000000.00000000.00000000.00000000
DEI: 91125
LangName: 1033 "" "" "Regular" "FontForge 2.0 : Untitled1 : 13-9-2018"
Encoding: UnicodeBmp
UnicodeInterp: none
NameList: AGL For New Fonts
DisplaySize: -48
AntiAlias: 1
FitToEm: 0
WinInfo: 59413 19 7
BeginPrivate: 3
BlueValues 15 [-20 0 694 800]
BlueScale 10 0.00933962
BlueShift 1 8
EndPrivate
BeginChars: 65536 74

StartChar: .notdef
Encoding: 165 165 0
AltUni2: 0000ff.ffffffff.0 000131.ffffffff.0 000178.ffffffff.0 000192.ffffffff.0 000394.ffffffff.0 0003a9.ffffffff.0 0003c0.ffffffff.0 002026.ffffffff.0 002030.ffffffff.0 002044.ffffffff.0 0020ac.ffffffff.0 002122.ffffffff.0 002202.ffffffff.0 00220f.ffffffff.0 002211.ffffffff.0 00221a.ffffffff.0 00221e.ffffffff.0 00222b.ffffffff.0 002248.ffffffff.0 002260.ffffffff.0 0025ca.ffffffff.0 00e01e.ffffffff.0
Width: 1000
Flags: W
LayerCount: 2
Fore
SplineSet
33 0 m 1
 33 666 l 1
 298 666 l 1
 298 0 l 1
 33 0 l 1
66 33 m 1
 265 33 l 1
 265 633 l 1
 66 633 l 1
 66 33 l 1
EndSplineSet
Validated: 1
EndChar

StartChar: one
Encoding: 49 49 3
Width: 1000
GlyphClass: 2
Flags: W
LayerCount: 2
Fore
SplineSet
939 626 m 1
 939.999023438 626 l 2
 956.666015625 626 970.833007812 620 982.5 608 c 0
 994.166992188 596 1000 582 1000 566 c 2
 1000 564 l 1
 1000 75 l 2
 1000 59 994 45.3330078125 982 34 c 0
 970 22.6669921875 956 17 940 17 c 2
 939 17 l 1
 807 17 l 1
 806 17 l 2
 790 17 776.166992188 22.6669921875 764.5 34 c 0
 752.833007812 45.3330078125 746.666015625 59 745.999023438 75 c 2
 745.999023438 567 l 2
 746.666015625 583 752.833007812 596.833007812 764.5 608.5 c 0
 776.166992188 620.166992188 790 626 806 626 c 2
 807 626 l 1
 939 626 l 1
951.999023438 146 m 2
 952 495.999023438 l 2
 951.333007812 511.999023438 945.166015625 525.666015625 933.499023438 536.999023438 c 0
 921.83203125 548.33203125 907.999023438 553.999023438 891.999023438 553.999023438 c 2
 890.999023438 553.999023438 l 1
 856.999023438 553.999023438 l 1
 855.999023438 553.999023438 l 2
 845.33203125 553.999023438 835.499023438 551.499023438 826.499023438 546.499023438 c 0
 817.499023438 541.499023438 810.166015625 534.499023438 804.499023438 525.499023438 c 0
 798.83203125 516.499023438 795.999023438 506.666015625 795.999023438 495.999023438 c 2
 795.999023438 145.999023438 l 2
 795.999023438 135.999023438 798.83203125 126.499023438 804.499023438 117.499023438 c 0
 810.166015625 108.499023438 817.499023438 101.33203125 826.499023438 95.9990234375 c 0
 835.499023438 90.666015625 845.33203125 87.9990234375 855.999023438 87.9990234375 c 2
 856.999023438 87.9990234375 l 1
 890.999023438 87.9990234375 l 1
 891.999023438 87.9990234375 l 2
 896.666015625 87.9990234375 901.666015625 88.666015625 906.999023438 89.9990234375 c 0
 912.33203125 91.33203125 917.165039062 93.33203125 921.498046875 95.9990234375 c 0
 925.831054688 98.666015625 929.831054688 101.833007812 933.498046875 105.5 c 0
 937.165039062 109.166992188 940.33203125 113 942.999023438 117 c 0
 945.666015625 121 947.666015625 125.5 948.999023438 130.5 c 0
 950.33203125 135.5 951.33203125 140.666992188 951.999023438 146 c 2
436 15.9990234375 m 1
 435.002929688 15.998046875 l 2
 418.3359375 15.998046875 404.168945312 21.8310546875 392.501953125 33.498046875 c 0
 380.834960938 45.1650390625 375.001953125 59.33203125 375.001953125 75.9990234375 c 2
 375.001953125 76.9990234375 l 1
 375.001953125 741.999023438 l 2
 375.001953125 757.999023438 381.001953125 771.666015625 393.001953125 782.999023438 c 0
 405.001953125 794.33203125 419.001953125 799.999023438 435.001953125 799.999023438 c 2
 436.001953125 799.999023438 l 1
 566.001953125 799.999023438 l 1
 567.001953125 799.999023438 l 2
 577.668945312 799.999023438 587.668945312 797.33203125 597.001953125 791.999023438 c 0
 606.334960938 786.666015625 613.66796875 779.499023438 619.000976562 770.499023438 c 0
 624.333984375 761.499023438 627.000976562 751.999023438 627.000976562 741.999023438 c 2
 627.000976562 73.9990234375 l 2
 627.000976562 57.9990234375 621.16796875 44.33203125 609.500976562 32.9990234375 c 0
 597.833984375 21.666015625 583.666992188 15.9990234375 567 15.9990234375 c 2
 566 15.9990234375 l 1
 436 15.9990234375 l 1
423.002929688 674.998046875 m 2
 423.002929688 143.998046875 l 2
 423.002929688 127.998046875 429.002929688 114.165039062 441.002929688 102.498046875 c 0
 453.002929688 90.8310546875 467.002929688 84.998046875 483.002929688 84.998046875 c 2
 484.002929688 84.998046875 l 1
 518.002929688 84.998046875 l 1
 519.002929688 84.998046875 l 2
 535.002929688 84.998046875 548.8359375 90.8310546875 560.502929688 102.498046875 c 0
 572.169921875 114.165039062 578.336914062 127.998046875 579.00390625 143.998046875 c 2
 579.00390625 674.998046875 l 2
 578.336914062 690.998046875 572.169921875 704.665039062 560.502929688 715.998046875 c 0
 548.8359375 727.331054688 535.002929688 732.998046875 519.002929688 732.998046875 c 2
 518.002929688 732.998046875 l 1
 484.002929688 732.998046875 l 1
 483.002929688 732.998046875 l 2
 467.002929688 732.998046875 453.002929688 727.331054688 441.002929688 715.998046875 c 0
 429.002929688 704.665039062 423.002929688 690.998046875 423.002929688 674.998046875 c 2
64.0029296875 15.998046875 m 2
 47.3359375 15.998046875 33.0029296875 21.8310546875 21.0029296875 33.498046875 c 0
 9.0029296875 45.1650390625 3.0029296875 59.33203125 3.0029296875 75.9990234375 c 2
 3.0029296875 76.9990234375 l 1
 3.0029296875 337.999023438 l 2
 3.669921875 353.999023438 9.8369140625 367.83203125 21.50390625 379.499023438 c 0
 33.1708984375 391.166015625 47.337890625 396.999023438 64.0048828125 396.999023438 c 2
 200.004882812 396.999023438 l 1
 201.004882812 396.999023438 l 2
 211.671875 396.999023438 221.671875 394.33203125 231.004882812 388.999023438 c 0
 240.337890625 383.666015625 247.670898438 376.499023438 253.00390625 367.499023438 c 0
 258.336914062 358.499023438 261.00390625 348.666015625 261.00390625 337.999023438 c 2
 261.00390625 76.9990234375 l 1
 261.00390625 75.9990234375 l 2
 261.00390625 59.33203125 255.170898438 45.1650390625 243.50390625 33.498046875 c 0
 231.836914062 21.8310546875 217.669921875 15.998046875 201.002929688 15.998046875 c 2
 197.002929688 15.998046875 l 1
 64.0029296875 15.998046875 l 2
52.0029296875 266.998046875 m 2
 52.0068359375 143.998046875 l 2
 52.673828125 135.998046875 54.673828125 128.331054688 58.0068359375 120.998046875 c 0
 61.33984375 113.665039062 65.6728515625 107.498046875 71.005859375 102.498046875 c 0
 76.3388671875 97.498046875 82.671875 93.3310546875 90.0048828125 89.998046875 c 0
 97.337890625 86.6650390625 104.670898438 84.998046875 112.00390625 84.998046875 c 2
 113.00390625 84.998046875 l 1
 147.00390625 84.998046875 l 1
 148.00390625 84.998046875 l 2
 164.00390625 84.998046875 178.00390625 90.8310546875 190.00390625 102.498046875 c 0
 202.00390625 114.165039062 208.00390625 127.998046875 208.00390625 143.998046875 c 2
 208.00390625 266.998046875 l 2
 208.00390625 282.998046875 202.00390625 296.665039062 190.00390625 307.998046875 c 0
 178.00390625 319.331054688 164.00390625 324.998046875 148.00390625 324.998046875 c 2
 147.00390625 324.998046875 l 1
 113.00390625 324.998046875 l 1
 112.00390625 324.998046875 l 2
 96.00390625 324.998046875 82.1708984375 319.331054688 70.50390625 307.998046875 c 0
 58.8369140625 296.665039062 52.669921875 282.998046875 52.0029296875 266.998046875 c 2
0.0068359375 -58.001953125 m 1
 997.006835938 -58.001953125 l 1
 997.006835938 -146.001953125 l 1
 0.0068359375 -146.001953125 l 1
 0.0068359375 -58.001953125 l 1
EndSplineSet
Validated: 1
EndChar

StartChar: two
Encoding: 50 50 4
Width: 1000
GlyphClass: 2
Flags: W
LayerCount: 2
Fore
SplineSet
637 272 m 1
 854.002929688 248.000976562 l 1
 1000.00292969 -180.999023438 l 1
 644.002929688 -68.9990234375 l 1
 339.002929688 -173.999023438 l 1
 0.0029296875 -62.9990234375 l 1
 156.002929688 306.000976562 l 1
 356.002929688 256.000976562 l 1
 271.3359375 366.000976562 229.002929688 467.66796875 229.002929688 561.000976562 c 0
 229.002929688 591.66796875 233.669921875 619.66796875 243.002929688 645.000976562 c 0
 252.3359375 670.333984375 264.668945312 691.000976562 280.001953125 707.000976562 c 0
 295.334960938 723.000976562 312.334960938 737.16796875 331.001953125 749.500976562 c 0
 349.668945312 761.833984375 368.168945312 771.000976562 386.501953125 777.000976562 c 0
 404.834960938 783.000976562 421.66796875 787.833984375 437.000976562 791.500976562 c 0
 452.333984375 795.16796875 464.666992188 797.66796875 474 799.000976562 c 2
 489 800.000976562 l 2
 489 799.333984375 492 799.333984375 498 800.000976562 c 0
 504 800.66796875 512.333007812 800.16796875 523 798.500976562 c 0
 533.666992188 796.833984375 545.666992188 795.333984375 559 794.000976562 c 0
 572.333007812 792.66796875 586.5 789.16796875 601.5 783.500976562 c 0
 616.5 777.833984375 631.5 771.666992188 646.5 765 c 0
 661.5 758.333007812 675.666992188 748.833007812 689 736.5 c 0
 702.333007812 724.166992188 714 710.5 724 695.5 c 0
 734 680.5 741.833007812 662 747.5 640 c 0
 753.166992188 618 755.666992188 593.666992188 755 567 c 0
 752.333007812 472.333007812 713 374 637 272 c 1
383.002929688 223.000976562 m 1
 355.00390625 -138.999023438 l 1
 629.00390625 -43.9990234375 l 1
 614.00390625 242.000976562 l 1
 576.00390625 200.000976562 l 2
 561.336914062 184.000976562 546.169921875 168.500976562 530.502929688 153.500976562 c 2
 489.002929688 115.000976562 l 1
 451.002929688 148.333984375 415.669921875 184.333984375 383.002929688 223.000976562 c 1
503.00390625 643.000976562 m 0
 479.670898438 643.000976562 459.837890625 634.833984375 443.504882812 618.500976562 c 0
 427.171875 602.16796875 419.004882812 582.66796875 419.004882812 560.000976562 c 0
 419.004882812 544.66796875 422.837890625 530.66796875 430.504882812 518.000976562 c 0
 438.171875 505.333984375 448.338867188 495.333984375 461.005859375 488.000976562 c 0
 473.672851562 480.66796875 487.33984375 477.000976562 502.006835938 477.000976562 c 0
 525.33984375 477.000976562 545.172851562 485.000976562 561.505859375 501.000976562 c 0
 577.838867188 517.000976562 586.005859375 536.66796875 586.005859375 560.000976562 c 0
 586.005859375 574.66796875 582.172851562 588.500976562 574.505859375 601.500976562 c 0
 566.838867188 614.500976562 556.671875 624.66796875 544.004882812 632.000976562 c 0
 531.337890625 639.333984375 517.670898438 643.000976562 503.00390625 643.000976562 c 0
172.00390625 273.000976562 m 1
 38.00390625 -45.9990234375 l 1
 326.00390625 -139.999023438 l 1
 355.00390625 227.000976562 l 1
 172.00390625 273.000976562 l 1
657.00390625 -43.9990234375 m 1
 956.00390625 -136.999023438 l 1
 833.00390625 222.000976562 l 1
 642.00390625 243.000976562 l 1
 657.00390625 -43.9990234375 l 1
EndSplineSet
Validated: 33
EndChar

StartChar: three
Encoding: 51 51 5
Width: 1000
GlyphClass: 2
Flags: W
LayerCount: 2
Fore
SplineSet
454 240 m 0
 426.666992188 240 403.166992188 249.833007812 383.5 269.5 c 0
 363.833007812 289.166992188 354 312.666992188 354 340 c 0
 354 367.333007812 363.833007812 390.833007812 383.5 410.5 c 0
 403.166992188 430.166992188 426.666992188 440 454 440 c 0
 481.333007812 440 504.833007812 430.166992188 524.5 410.5 c 0
 544.166992188 390.833007812 554 367.333007812 554 340 c 0
 554 312.666992188 544.166992188 289.166992188 524.5 269.5 c 0
 504.833007812 249.833007812 481.333007812 240 454 240 c 0
902 13 m 2
 917.333007812 -2.3330078125 925 -21 925 -43 c 0
 925 -65 917.333007812 -83.6669921875 902 -99 c 0
 886.666992188 -114.333007812 868.166992188 -122 846.5 -122 c 0
 824.833007812 -122 806 -114.333007812 790 -99 c 2
 667 26 l 1
 603 -17.3330078125 532 -39 454 -39 c 0
 402.666992188 -39 353.5 -29 306.5 -9 c 0
 259.5 11 219.166992188 37.8330078125 185.5 71.5 c 0
 151.833007812 105.166992188 125 145.5 105 192.5 c 0
 85 239.5 75 288.666992188 75 340 c 0
 75 391.333007812 85 440.5 105 487.5 c 0
 125 534.5 151.833007812 574.833007812 185.5 608.5 c 0
 219.166992188 642.166992188 259.5 669 306.5 689 c 0
 353.5 709 402.666992188 719 454 719 c 0
 522.666992188 719 586.166992188 702.166992188 644.5 668.5 c 0
 702.833007812 634.833007812 748.833007812 588.833007812 782.5 530.5 c 0
 816.166992188 472.166992188 833 408.666992188 833 340 c 0
 833 268 814 201.333007812 776 140 c 1
 902 13 l 2
146 292 m 1
 156.666992188 225.333007812 186.166992188 167.833007812 234.5 119.5 c 0
 282.833007812 71.1669921875 340.333007812 42 407 32 c 1
 454 125 l 1
 501 32 l 1
 567.666992188 42 625.166992188 71.1669921875 673.5 119.5 c 0
 721.833007812 167.833007812 751.333007812 225.333007812 762 292 c 1
 666 340 l 1
 762 388 l 1
 751.333007812 454.666992188 722 512 674 560 c 0
 626 608 568.333007812 637.333007812 501 648 c 1
 454 553 l 1
 406 648 l 1
 339.333007812 637.333007812 282 608 234 560 c 0
 186 512 156.666992188 454.666992188 146 388 c 1
 242 340 l 1
 146 292 l 1
EndSplineSet
Validated: 1
EndChar

StartChar: four
Encoding: 52 52 6
Width: 1000
GlyphClass: 2
Flags: W
LayerCount: 2
Fore
SplineSet
523 279 m 0
 487 243.666992188 468.168945312 200.829101562 466.501953125 150.49609375 c 0
 464.834960938 100.163085938 481.001953125 56.330078125 515.001953125 18.9970703125 c 1
 385.001953125 -123.002929688 l 2
 379.001953125 -130.3359375 371.001953125 -134.168945312 361.001953125 -134.501953125 c 0
 351.001953125 -134.834960938 342.334960938 -131.66796875 335.001953125 -125.000976562 c 2
 129.001953125 61.9990234375 l 2
 121.668945312 68.666015625 118.001953125 76.9990234375 118.001953125 86.9990234375 c 0
 118.001953125 96.9990234375 121.001953125 105.33203125 127.001953125 111.999023438 c 2
 652.001953125 689.999023438 l 2
 658.001953125 696.666015625 666.001953125 700.166015625 676.001953125 700.499023438 c 0
 686.001953125 700.83203125 694.668945312 697.999023438 702.001953125 691.999023438 c 2
 908.001953125 503.999023438 l 2
 915.334960938 497.999023438 919.16796875 489.999023438 919.500976562 479.999023438 c 0
 919.833984375 469.999023438 916.666992188 461.33203125 910 453.999023438 c 2
 769 297.999023438 l 1
 732.333007812 325.33203125 690.5 337.33203125 643.5 333.999023438 c 0
 596.5 330.666015625 556.333007812 312.333007812 523 279 c 0
625.001953125 630.995117188 m 0
 619.668945312 623.662109375 619.668945312 617.329101562 625.001953125 611.99609375 c 2
 673.001953125 568.99609375 l 2
 680.334960938 561.663085938 686.66796875 561.663085938 692.000976562 568.99609375 c 0
 699.333984375 576.329101562 699.333984375 582.662109375 692.000976562 587.995117188 c 2
 644.000976562 630.995117188 l 2
 636.66796875 638.328125 630.334960938 638.328125 625.001953125 630.995117188 c 0
538.001953125 532.995117188 m 0
 530.001953125 525.662109375 530.001953125 519.663085938 538.001953125 514.99609375 c 2
 585.001953125 470.99609375 l 2
 593.001953125 463.663085938 599.334960938 463.663085938 604.001953125 470.99609375 c 0
 611.334960938 478.329101562 611.334960938 484.662109375 604.001953125 489.995117188 c 2
 556.001953125 532.995117188 l 2
 548.668945312 540.995117188 542.668945312 540.995117188 538.001953125 532.995117188 c 0
250.001953125 82.99609375 m 0
 255.334960938 88.3291015625 255.334960938 94.662109375 250.001953125 101.995117188 c 2
 202.001953125 145.995117188 l 2
 194.668945312 153.328125 188.3359375 153.328125 183.002929688 145.995117188 c 0
 175.669921875 138.662109375 175.669921875 132.329101562 183.002929688 126.99609375 c 2
 231.002929688 82.99609375 l 2
 238.3359375 75.6630859375 244.668945312 75.6630859375 250.001953125 82.99609375 c 0
338.001953125 178.99609375 m 0
 344.001953125 185.663085938 344.002929688 191.99609375 338.002929688 197.99609375 c 2
 290.002929688 241.99609375 l 2
 282.002929688 249.329101562 275.669921875 249.329101562 271.002929688 241.99609375 c 0
 263.669921875 233.99609375 263.669921875 227.663085938 271.002929688 222.99609375 c 2
 319.002929688 178.99609375 l 2
 326.3359375 171.663085938 332.668945312 171.663085938 338.001953125 178.99609375 c 0
427.502929688 276.99609375 m 0
 432.502929688 284.329101562 432.334960938 290.663085938 427.001953125 295.99609375 c 2
 379.001953125 339.99609375 l 2
 371.668945312 347.329101562 365.3359375 347.329101562 360.002929688 339.99609375 c 0
 352.669921875 331.99609375 352.669921875 325.663085938 360.002929688 320.99609375 c 2
 408.002929688 276.99609375 l 2
 416.002929688 269.663085938 422.502929688 269.663085938 427.502929688 276.99609375 c 0
448.001953125 434.997070312 m 0
 442.668945312 430.330078125 442.669921875 424.331054688 448.002929688 416.998046875 c 2
 496.002929688 372.998046875 l 2
 503.3359375 365.665039062 509.668945312 365.665039062 515.001953125 372.998046875 c 0
 522.334960938 380.331054688 522.334960938 386.6640625 515.001953125 391.997070312 c 2
 467.001953125 434.997070312 l 2
 459.001953125 442.997070312 452.668945312 442.997070312 448.001953125 434.997070312 c 0
858.002929688 -29.001953125 m 2
 861.3359375 -32.3349609375 863.004882812 -36.66796875 863.004882812 -42.0009765625 c 0
 863.004882812 -47.333984375 861.337890625 -52.0009765625 858.004882812 -56.0009765625 c 0
 856.004882812 -60.0009765625 852.004882812 -62.0009765625 846.004882812 -62.0009765625 c 0
 842.004882812 -62.0009765625 837.671875 -60.0009765625 833.004882812 -56.0009765625 c 2
 746.004882812 30.9990234375 l 1
 716.004882812 8.33203125 682.171875 -2.0009765625 644.504882812 -0.0009765625 c 0
 606.837890625 1.9990234375 574.670898438 16.666015625 548.00390625 43.9990234375 c 2
 542.00390625 49.9990234375 l 2
 515.336914062 79.9990234375 502.669921875 114.83203125 504.002929688 154.499023438 c 0
 505.3359375 194.166015625 520.002929688 227.999023438 548.002929688 255.999023438 c 0
 574.002929688 281.999023438 605.502929688 296.499023438 642.502929688 299.499023438 c 0
 679.502929688 302.499023438 712.669921875 292.999023438 742.002929688 270.999023438 c 0
 746.002929688 268.33203125 751.3359375 263.33203125 758.002929688 255.999023438 c 0
 785.3359375 229.33203125 800.002929688 197.165039062 802.002929688 159.498046875 c 0
 804.002929688 121.831054688 793.669921875 87.998046875 771.002929688 57.998046875 c 1
 858.002929688 -29.001953125 l 2
731.004882812 70.998046875 m 0
 753.004882812 92.998046875 764.004882812 119.499023438 764.004882812 150.499023438 c 0
 764.004882812 181.499023438 753.004882812 208.33203125 731.004882812 230.999023438 c 0
 729.004882812 232.33203125 726.337890625 234.499023438 723.004882812 237.499023438 c 0
 719.671875 240.499023438 717.004882812 242.666015625 715.004882812 243.999023438 c 0
 695.671875 255.999023438 674.671875 261.999023438 652.004882812 261.999023438 c 0
 620.671875 261.999023438 594.171875 251.166015625 572.504882812 229.499023438 c 0
 550.837890625 207.83203125 540.004882812 181.33203125 540.004882812 149.999023438 c 0
 542.004882812 122.666015625 551.004882812 98.9990234375 567.004882812 78.9990234375 c 0
 568.337890625 76.33203125 570.337890625 73.6650390625 573.004882812 70.998046875 c 0
 595.004882812 48.998046875 621.337890625 37.998046875 652.004882812 37.998046875 c 0
 682.671875 37.998046875 709.004882812 48.998046875 731.004882812 70.998046875 c 0
EndSplineSet
Validated: 33
EndChar

StartChar: five
Encoding: 53 53 7
Width: 1000
GlyphClass: 2
Flags: W
LayerCount: 2
Fore
SplineSet
875 71 m 2
 125 71 l 2
 113.666992188 71 103.833984375 75 95.5009765625 83 c 0
 87.16796875 91 83.0009765625 100.666992188 83.0009765625 112 c 2
 83.0009765625 571 l 2
 83.0009765625 582.333007812 87.16796875 592 95.5009765625 600 c 0
 103.833984375 608 113.666992188 612 125 612 c 2
 292 612 l 1
 292 654 l 2
 292 665.333007812 296 675.166015625 304 683.499023438 c 0
 312 691.83203125 321.666992188 695.999023438 333 695.999023438 c 2
 667 695.999023438 l 2
 678.333007812 695.999023438 688 691.83203125 696 683.499023438 c 0
 704 675.166015625 708 665.333007812 708 654 c 2
 708 612 l 1
 875 612 l 2
 886.333007812 612 896.166015625 608 904.499023438 600 c 0
 912.83203125 592 916.999023438 582.333007812 916.999023438 571 c 2
 916.999023438 112 l 2
 916.999023438 100.666992188 912.83203125 91 904.499023438 83 c 0
 896.166015625 75 886.333007812 71 875 71 c 2
833 529 m 1
 167 529 l 1
 167 154 l 1
 833 154 l 1
 833 529 l 1
417 210 m 1
 417 480 l 1
 677 345 l 1
 417 210 l 1
333 -12 m 2
 667 -12 l 2
 678.333007812 -12.6669921875 688 -17 696 -25 c 0
 704 -33 708 -42.6669921875 708 -54 c 0
 708 -65.3330078125 704 -75.166015625 696 -83.4990234375 c 0
 688 -91.83203125 678.333007812 -95.9990234375 667 -95.9990234375 c 2
 333 -95.9990234375 l 2
 321.666992188 -95.9990234375 312 -91.83203125 304 -83.4990234375 c 0
 296 -75.166015625 292 -65.3330078125 292 -54 c 0
 292 -42.6669921875 296 -33 304 -25 c 0
 312 -17 321.666992188 -12.6669921875 333 -12 c 2
EndSplineSet
Validated: 1
EndChar

StartChar: A
Encoding: 65 65 8
Width: 1000
GlyphClass: 2
Flags: W
LayerCount: 2
Fore
SplineSet
107 383 m 1
 107 77 l 1
 373 -76 l 1
 373 230 l 1
 107 383 l 1
36 36 m 1
 36 507 l 1
 444 271 l 1
 444 -200 l 1
 36 36 l 1
585 230 m 1
 585 -76 l 1
 850 77 l 1
 850 383 l 1
 585 230 l 1
513 271 m 1
 921 507 l 1
 921 36 l 1
 513 -200 l 1
 513 271 l 1
744 567 m 1
 477 717 l 1
 214 562 l 1
 480 411 l 1
 744 567 l 1
476 800 m 1
 886 568 l 1
 481 329 l 1
 71 561 l 1
 476 800 l 1
EndSplineSet
Validated: 1
EndChar

StartChar: B
Encoding: 66 66 9
Width: 1000
GlyphClass: 2
Flags: W
LayerCount: 2
Fore
SplineSet
306 615 m 2
 811.000976562 613.998046875 l 1
 810.000976562 103.998046875 l 2
 809.333984375 73.998046875 802.666992188 44.998046875 790 16.998046875 c 0
 777.333007812 -11.001953125 760.5 -35.001953125 739.5 -55.001953125 c 0
 718.5 -75.001953125 693.833007812 -91.1689453125 665.5 -103.501953125 c 0
 637.166992188 -115.834960938 608 -122.334960938 578 -123.001953125 c 2
 75 -122.001953125 l 1
 77 379.998046875 l 2
 78.3330078125 442.665039062 101.5 497.33203125 146.5 543.999023438 c 0
 191.5 590.666015625 244.666992188 614.333007812 306 615 c 2
713.000976562 103.998046875 m 2
 713.999023438 517.999023438 l 1
 305.999023438 518.999023438 l 2
 268.666015625 518.999023438 237.333007812 505.166015625 212 477.499023438 c 0
 186.666992188 449.83203125 173.666992188 416.665039062 173 377.998046875 c 2
 172 -25.001953125 l 1
 580 -26.001953125 l 2
 604.666992188 -25.3349609375 627 -19.3349609375 647 -8.001953125 c 0
 667 3.3310546875 682.833007812 18.8310546875 694.5 38.498046875 c 0
 706.166992188 58.1650390625 712.333984375 79.998046875 713.000976562 103.998046875 c 2
872.999023438 715.999023438 m 1
 914.999023438 715.999023438 l 1
 914.999023438 672.999023438 l 1
 914.999023438 176.999023438 l 1
 872.999023438 176.999023438 l 1
 872.999023438 672.999023438 l 1
 376.999023438 672.999023438 l 1
 376.999023438 715.999023438 l 1
 872.999023438 715.999023438 l 1
294.999023438 155.999023438 m 1
 591.999023438 155.999023438 l 1
 591.999023438 95.9990234375 l 1
 294.999023438 95.9990234375 l 1
 294.999023438 155.999023438 l 1
294.999023438 274.999023438 m 1
 591.999023438 274.999023438 l 1
 591.999023438 215.999023438 l 1
 294.999023438 215.999023438 l 1
 294.999023438 274.999023438 l 1
294.999023438 395.999023438 m 1
 591.999023438 395.999023438 l 1
 591.999023438 335.999023438 l 1
 294.999023438 335.999023438 l 1
 294.999023438 395.999023438 l 1
EndSplineSet
Validated: 1
EndChar

StartChar: C
Encoding: 67 67 10
Width: 1000
GlyphClass: 2
Flags: W
LayerCount: 2
Fore
SplineSet
688 530 m 1
 636 530 l 1
 521 70 l 1
 574 70 l 1
 574 -42 l 1
 312 -42 l 1
 312 70 l 1
 363 70 l 1
 478 530 l 1
 426 530 l 1
 426 642 l 1
 688 642 l 1
 688 530 l 1
EndSplineSet
Validated: 1
EndChar

StartChar: F
Encoding: 70 70 11
Width: 1000
GlyphClass: 2
Flags: H
LayerCount: 2
Fore
SplineSet
500 775 m 0
 756.25 775 968.75 562.5 968.75 300 c 0
 968.75 37.5 756.25 -175 500 -175 c 0
 243.75 -175 31.25 37.5 31.25 300 c 0
 31.25 562.5 243.75 775 500 775 c 0
500 -106.25 m 0
 725 -106.25 900 75 900 300 c 0
 900 525 725 706.25 500 706.25 c 0
 281.25 706.25 100 525 100 300 c 0
 100 75 275 -106.25 500 -106.25 c 0
281.25 218.75 m 0
 312.5 218.75 337.5 193.75 343.75 156.25 c 1
 343.75 118.75 312.5 93.75 281.25 93.75 c 0
 243.75 93.75 218.75 125 218.75 156.25 c 0
 218.75 193.75 250 218.75 281.25 218.75 c 0
300 537.5 m 0
 343.75 537.5 381.25 500 381.25 456.25 c 0
 381.25 412.5 343.75 375 300 375 c 0
 256.25 375 218.75 412.5 218.75 456.25 c 0
 218.75 500 256.25 537.5 300 537.5 c 0
681.25 262.5 m 0
 737.5 262.5 781.25 218.75 781.25 162.5 c 0
 781.25 106.25 737.5 62.5 681.25 62.5 c 0
 625 62.5 581.25 106.25 581.25 162.5 c 0
 581.25 218.75 625 262.5 681.25 262.5 c 0
681.25 381.25 m 0
 650 381.25 618.75 406.25 618.75 443.75 c 0
 618.75 481.25 650 506.25 681.25 506.25 c 0
 718.75 506.25 743.75 475 743.75 443.75 c 0
 743.75 406.25 712.5 381.25 681.25 381.25 c 0
EndSplineSet
Validated: 1
EndChar

StartChar: H
Encoding: 72 72 12
Width: 1000
GlyphClass: 2
Flags: H
LayerCount: 2
Fore
SplineSet
54.751953125 656.426757812 m 0
 54.751953125 705.456054688 94.5439453125 745.248046875 143.573242188 745.248046875 c 0
 192.602539062 745.248046875 232.39453125 705.456054688 232.39453125 656.426757812 c 0
 232.39453125 607.397460938 192.602539062 567.60546875 143.573242188 567.60546875 c 0
 94.5439453125 567.60546875 54.751953125 607.397460938 54.751953125 656.426757812 c 0
638.432617188 656.426757812 m 0
 638.432617188 705.456054688 678.224609375 745.248046875 727.25390625 745.248046875 c 0
 776.283203125 745.248046875 816.075195312 705.456054688 816.075195312 656.426757812 c 0
 816.075195312 607.397460938 776.283203125 567.60546875 727.25390625 567.60546875 c 0
 678.224609375 567.60546875 638.432617188 607.397460938 638.432617188 656.426757812 c 0
54.751953125 72.74609375 m 0
 54.751953125 121.775390625 94.5439453125 161.567382812 143.573242188 161.567382812 c 0
 192.602539062 161.567382812 232.39453125 121.775390625 232.39453125 72.74609375 c 0
 232.39453125 23.716796875 192.602539062 -16.0751953125 143.573242188 -16.0751953125 c 0
 94.5439453125 -16.0751953125 54.751953125 23.716796875 54.751953125 72.74609375 c 0
638.432617188 72.74609375 m 0
 638.432617188 121.775390625 678.224609375 161.567382812 727.25390625 161.567382812 c 0
 776.283203125 161.567382812 816.075195312 121.775390625 816.075195312 72.74609375 c 0
 816.075195312 23.716796875 776.283203125 -16.0751953125 727.25390625 -16.0751953125 c 0
 678.224609375 -16.0751953125 638.432617188 23.716796875 638.432617188 72.74609375 c 0
304.811523438 643.737304688 m 2
 281.291992188 643.737304688 l 2
 268.302734375 643.737304688 257.771484375 652.259765625 257.771484375 662.771484375 c 0
 257.771484375 673.283203125 268.302734375 681.803710938 281.291992188 681.803710938 c 2
 304.811523438 681.803710938 l 2
 317.80078125 681.803710938 328.33203125 673.282226562 328.33203125 662.770507812 c 0
 328.33203125 652.258789062 317.80078125 643.737304688 304.811523438 643.737304688 c 2
398.890625 643.737304688 m 2
 375.37109375 643.737304688 l 2
 362.381835938 643.737304688 351.850585938 652.259765625 351.850585938 662.771484375 c 0
 351.850585938 673.283203125 362.381835938 681.803710938 375.37109375 681.803710938 c 2
 398.890625 681.803710938 l 2
 411.880859375 681.803710938 422.411132812 673.282226562 422.411132812 662.770507812 c 0
 422.411132812 652.258789062 411.880859375 643.737304688 398.890625 643.737304688 c 2
492.969726562 643.737304688 m 2
 469.450195312 643.737304688 l 2
 456.4609375 643.737304688 445.930664062 652.259765625 445.930664062 662.771484375 c 0
 445.930664062 673.283203125 456.4609375 681.803710938 469.450195312 681.803710938 c 2
 492.969726562 681.803710938 l 2
 505.959960938 681.803710938 516.490234375 673.282226562 516.490234375 662.770507812 c 0
 516.490234375 652.258789062 505.959960938 643.737304688 492.969726562 643.737304688 c 2
587.049804688 643.737304688 m 2
 587.048828125 643.737304688 l 1
 563.529296875 643.737304688 l 2
 550.5390625 643.737304688 540.008789062 652.259765625 540.008789062 662.771484375 c 0
 540.008789062 673.283203125 550.5390625 681.803710938 563.529296875 681.803710938 c 2
 587.049804688 681.803710938 l 2
 600.0390625 681.803710938 610.569335938 673.282226562 610.569335938 662.770507812 c 0
 610.569335938 652.258789062 600.0390625 643.737304688 587.049804688 643.737304688 c 2
304.83203125 47.365234375 m 2
 304.831054688 47.365234375 l 1
 281.311523438 47.3505859375 l 2
 268.322265625 47.3408203125 257.782226562 55.80859375 257.771484375 66.263671875 c 0
 257.760742188 76.7177734375 268.282226562 85.2001953125 281.272460938 85.2080078125 c 2
 304.791992188 85.224609375 l 2
 317.78125 85.232421875 328.3203125 76.765625 328.33203125 66.3115234375 c 0
 328.342773438 55.857421875 317.821289062 47.3740234375 304.83203125 47.365234375 c 2
398.91015625 47.4296875 m 2
 375.390625 47.4140625 l 2
 362.401367188 47.404296875 351.861328125 55.8720703125 351.850585938 66.3271484375 c 0
 351.840820312 76.78125 362.362304688 85.263671875 375.3515625 85.2724609375 c 2
 398.87109375 85.2880859375 l 2
 411.860351562 85.296875 422.399414062 76.8291015625 422.411132812 66.375 c 0
 422.421875 55.9208984375 411.900390625 47.4375 398.91015625 47.4296875 c 2
492.990234375 47.4931640625 m 2
 469.470703125 47.4775390625 l 2
 456.48046875 47.46875 445.94140625 55.935546875 445.930664062 66.390625 c 0
 445.919921875 76.845703125 456.44140625 85.3271484375 469.430664062 85.3359375 c 2
 492.950195312 85.3515625 l 2
 505.940429688 85.3603515625 516.478515625 76.892578125 516.490234375 66.4384765625 c 0
 516.500976562 55.984375 505.979492188 47.501953125 492.990234375 47.4931640625 c 2
587.069335938 47.556640625 m 2
 563.549804688 47.5419921875 l 2
 550.560546875 47.5322265625 540.020507812 56 540.009765625 66.455078125 c 0
 539.999023438 76.9091796875 550.520507812 85.390625 563.509765625 85.3994140625 c 2
 587.030273438 85.416015625 l 2
 600.01953125 85.423828125 610.55859375 76.95703125 610.569335938 66.5029296875 c 0
 610.580078125 56.0478515625 600.05859375 47.5654296875 587.069335938 47.556640625 c 2
121.750976562 491.81640625 m 2
 121.609375 515.3359375 l 2
 121.53125 528.32421875 129.990234375 538.90625 140.501953125 538.969726562 c 0
 151.012695312 539.033203125 159.596679688 528.553710938 159.674804688 515.564453125 c 2
 159.817382812 492.044921875 l 2
 159.895507812 479.055664062 151.436523438 468.474609375 140.92578125 468.411132812 c 0
 130.4140625 468.34765625 121.829101562 478.826171875 121.750976562 491.81640625 c 2
122.317382812 397.73828125 m 0
 122.17578125 421.2578125 l 2
 122.09765625 434.247070312 130.556640625 444.828125 141.068359375 444.891601562 c 0
 151.579101562 444.955078125 160.163085938 434.4765625 160.2421875 421.486328125 c 2
 160.383789062 397.967773438 l 2
 160.461914062 384.977539062 152.002929688 374.397460938 141.4921875 374.333984375 c 0
 130.98046875 374.270507812 122.395507812 384.749023438 122.317382812 397.73828125 c 0
122.883789062 303.66015625 m 2
 122.7421875 327.1796875 l 2
 122.6640625 340.169921875 131.123046875 350.750976562 141.634765625 350.814453125 c 0
 152.145507812 350.876953125 160.73046875 340.399414062 160.80859375 327.409179688 c 2
 160.950195312 303.889648438 l 2
 161.028320312 290.900390625 152.569335938 280.318359375 142.05859375 280.255859375 c 0
 131.546875 280.192382812 122.962890625 290.670898438 122.883789062 303.66015625 c 2
123.451171875 209.583007812 m 2
 123.30859375 233.102539062 l 2
 123.23046875 246.091796875 131.689453125 256.673828125 142.201171875 256.736328125 c 0
 152.711914062 256.799804688 161.296875 246.321289062 161.375 233.33203125 c 2
 161.516601562 209.8125 l 2
 161.594726562 196.823242188 153.135742188 186.241210938 142.625 186.177734375 c 0
 132.11328125 186.115234375 123.529296875 196.59375 123.451171875 209.583007812 c 2
704.350585938 498.618164062 m 2
 704.208984375 522.137695312 l 2
 704.130859375 535.126953125 712.58984375 545.708984375 723.1015625 545.772460938 c 0
 733.612304688 545.8359375 742.196289062 535.356445312 742.274414062 522.3671875 c 2
 742.416015625 498.84765625 l 2
 742.495117188 485.858398438 734.036132812 475.27734375 723.525390625 475.213867188 c 0
 713.013671875 475.150390625 704.428710938 485.629882812 704.350585938 498.618164062 c 2
704.916992188 404.541015625 m 2
 704.775390625 428.060546875 l 2
 704.697265625 441.049804688 713.15625 451.631835938 723.66796875 451.6953125 c 0
 734.178710938 451.7578125 742.762695312 441.279296875 742.840820312 428.290039062 c 2
 742.983398438 404.770507812 l 2
 743.061523438 391.780273438 734.602539062 381.19921875 724.091796875 381.135742188 c 0
 713.580078125 381.073242188 704.995117188 391.55078125 704.916992188 404.541015625 c 2
705.483398438 310.463867188 m 2
 705.341796875 333.982421875 l 2
 705.263671875 346.97265625 713.72265625 357.553710938 724.234375 357.616210938 c 0
 734.745117188 357.6796875 743.329101562 347.201171875 743.408203125 334.211914062 c 2
 743.549804688 310.693359375 l 2
 743.627929688 297.703125 735.168945312 287.122070312 724.658203125 287.05859375 c 0
 714.146484375 286.995117188 705.561523438 297.473632812 705.483398438 310.463867188 c 2
706.049804688 216.385742188 m 2
 705.908203125 239.905273438 l 2
 705.830078125 252.89453125 714.2890625 263.475585938 724.80078125 263.5390625 c 0
 735.311523438 263.602539062 743.896484375 253.124023438 743.974609375 240.133789062 c 2
 744.116210938 216.614257812 l 2
 744.194335938 203.625976562 735.735351562 193.043945312 725.224609375 192.98046875 c 0
 714.712890625 192.916992188 706.12890625 203.396484375 706.049804688 216.385742188 c 2
EndSplineSet
Validated: 1
EndChar

StartChar: K
Encoding: 75 75 13
Width: 1000
GlyphClass: 2
Flags: HW
LayerCount: 2
Fore
SplineSet
409 6 m 2
 421 6 431.16796875 1.8349609375 439.500976562 -6.498046875 c 0
 447.833984375 -14.8310546875 452.000976562 -24.8310546875 452.000976562 -36.498046875 c 0
 452.000976562 -48.1650390625 447.833984375 -57.998046875 439.500976562 -65.998046875 c 0
 431.16796875 -73.998046875 421.000976562 -77.998046875 409.000976562 -77.998046875 c 2
 136.000976562 -77.998046875 l 2
 99.333984375 -77.998046875 67.833984375 -64.998046875 41.5009765625 -38.998046875 c 0
 15.16796875 -12.998046875 2.0009765625 18.3349609375 2.0009765625 55.001953125 c 2
 2.0009765625 602.001953125 l 2
 2.0009765625 639.334960938 15.16796875 671.001953125 41.5009765625 697.001953125 c 0
 67.833984375 723.001953125 99.333984375 736.001953125 136.000976562 736.001953125 c 2
 683.000976562 736.001953125 l 2
 707.000976562 736.001953125 729.333984375 730.001953125 750.000976562 718.001953125 c 0
 770.66796875 706.001953125 787.000976562 689.834960938 799.000976562 669.501953125 c 0
 811.000976562 649.168945312 817.000976562 626.668945312 817.000976562 602.001953125 c 2
 817.000976562 450.001953125 l 2
 817.000976562 438.668945312 812.833984375 428.8359375 804.500976562 420.502929688 c 0
 796.16796875 412.169921875 786.16796875 408.002929688 774.500976562 408.002929688 c 0
 762.833984375 408.002929688 752.833984375 412.169921875 744.500976562 420.502929688 c 0
 736.16796875 428.8359375 732.000976562 438.668945312 732.000976562 450.001953125 c 2
 732.000976562 602.001953125 l 2
 732.000976562 611.334960938 729.833984375 619.66796875 725.500976562 627.000976562 c 0
 721.16796875 634.333984375 715.16796875 640.166992188 707.500976562 644.5 c 0
 699.833984375 648.833007812 691.666992188 651 683 651 c 2
 136 651 l 2
 122.666992188 651 111.166992188 646.333007812 101.5 637 c 0
 91.8330078125 627.666992188 87 616 87 602 c 2
 87 55 l 2
 87 41.6669921875 91.8330078125 30.1669921875 101.5 20.5 c 0
 111.166992188 10.8330078125 122.666992188 6 136 6 c 2
 409 6 l 2
227.000976562 554.001953125 m 2
 592.000976562 554.001953125 l 2
 603.333984375 554.001953125 613.166992188 549.834960938 621.5 541.501953125 c 0
 629.833007812 533.168945312 634 523.168945312 634 511.501953125 c 0
 634 499.834960938 629.833007812 489.834960938 621.5 481.501953125 c 0
 613.166992188 473.168945312 603.333984375 469.001953125 592.000976562 469.001953125 c 2
 227.000976562 469.001953125 l 2
 215.66796875 469.001953125 205.834960938 473.168945312 197.501953125 481.501953125 c 0
 189.168945312 489.834960938 185.001953125 499.834960938 185.001953125 511.501953125 c 0
 185.001953125 523.168945312 189.168945312 533.168945312 197.501953125 541.501953125 c 0
 205.834960938 549.834960938 215.66796875 554.001953125 227.000976562 554.001953125 c 2
985.000976562 -62.998046875 m 2
 993.66796875 -71.6650390625 998.000976562 -81.9990234375 998.000976562 -93.9990234375 c 0
 998.000976562 -105.999023438 993.66796875 -116.33203125 985.000976562 -124.999023438 c 0
 976.333984375 -133.666015625 966.000976562 -137.999023438 954.000976562 -137.999023438 c 0
 942.000976562 -137.999023438 931.66796875 -133.666015625 923.000976562 -124.999023438 c 2
 838.000976562 -39.9990234375 l 1
 800.000976562 -65.33203125 758.66796875 -77.9990234375 714.000976562 -77.9990234375 c 0
 673.333984375 -77.9990234375 635.666992188 -67.9990234375 601 -47.9990234375 c 0
 566.333007812 -27.9990234375 539 -0.83203125 519 33.5009765625 c 0
 499 67.833984375 489 105.333984375 489 146.000976562 c 0
 489 186.66796875 499 224.334960938 519 259.001953125 c 0
 539 293.668945312 566.333007812 321.001953125 601 341.001953125 c 0
 635.666992188 361.001953125 673.333984375 371.001953125 714.000976562 371.001953125 c 0
 776.000976562 371.001953125 828.833984375 349.001953125 872.500976562 305.001953125 c 0
 916.16796875 261.001953125 938.000976562 208.001953125 938.000976562 146.001953125 c 0
 938.000976562 101.334960938 925.333984375 60.001953125 900.000976562 22.001953125 c 1
 985.000976562 -62.998046875 l 2
714.000976562 287.000976562 m 0
 688.66796875 287.000976562 665.16796875 280.66796875 643.500976562 268.000976562 c 0
 621.833984375 255.333984375 604.666992188 238.166992188 592 216.5 c 0
 579.333007812 194.833007812 573 171.333007812 573 146 c 0
 573 107.333007812 586.833007812 74.3330078125 614.5 47 c 0
 642.166992188 19.6669921875 675.333984375 6 714.000976562 6 c 0
 752.66796875 6 785.66796875 19.6669921875 813.000976562 47 c 0
 840.333984375 74.3330078125 854.000976562 107.333007812 854.000976562 146 c 0
 854.000976562 184.666992188 840.333984375 217.833984375 813.000976562 245.500976562 c 0
 785.66796875 273.16796875 752.66796875 287.000976562 714.000976562 287.000976562 c 0
409.000976562 371.000976562 m 2
 421.000976562 371.000976562 431.16796875 366.833984375 439.500976562 358.500976562 c 0
 447.833984375 350.16796875 452.000976562 340.16796875 452.000976562 328.500976562 c 0
 452.000976562 316.833984375 447.833984375 307.000976562 439.500976562 299.000976562 c 0
 431.16796875 291.000976562 421.000976562 287.000976562 409.000976562 287.000976562 c 2
 227.000976562 287.000976562 l 2
 215.66796875 287.000976562 205.834960938 291.000976562 197.501953125 299.000976562 c 0
 189.168945312 307.000976562 185.001953125 316.833984375 185.001953125 328.500976562 c 0
 185.001953125 340.16796875 189.168945312 350.16796875 197.501953125 358.500976562 c 0
 205.834960938 366.833984375 215.66796875 371.000976562 227.000976562 371.000976562 c 2
 409.000976562 371.000976562 l 2
349.000976562 104.000976562 m 2
 227.002929688 104.001953125 l 2
 215.669921875 104.001953125 205.836914062 108.168945312 197.50390625 116.501953125 c 0
 189.170898438 124.834960938 185.00390625 134.834960938 185.00390625 146.501953125 c 0
 185.00390625 158.168945312 189.170898438 168.168945312 197.50390625 176.501953125 c 0
 205.836914062 184.834960938 215.669921875 189.001953125 227.002929688 189.001953125 c 2
 349.002929688 189.001953125 l 2
 360.3359375 189.001953125 370.168945312 184.834960938 378.501953125 176.501953125 c 0
 386.834960938 168.168945312 391.001953125 158.001953125 391.001953125 146.001953125 c 0
 391.001953125 138.668945312 389.168945312 131.668945312 385.501953125 125.001953125 c 0
 381.834960938 118.334960938 376.66796875 113.16796875 370.000976562 109.500976562 c 0
 363.333984375 105.833984375 356.333984375 104.000976562 349.000976562 104.000976562 c 2
EndSplineSet
Validated: 1
EndChar

StartChar: M
Encoding: 77 77 14
Width: 1000
GlyphClass: 2
Flags: H
LayerCount: 2
Fore
SplineSet
770.932617188 -118.392578125 m 2
 765.4453125 -118.392578125 760.134765625 -118.392578125 754.82421875 -118.392578125 c 0
 659.036132812 -110.4140625 581.294921875 -25.927734375 581.294921875 70.19140625 c 0
 581.294921875 174.650390625 666.073242188 259.428710938 770.532226562 259.428710938 c 0
 874.991210938 259.428710938 959.76953125 174.650390625 959.76953125 70.19140625 c 0
 959.76953125 65.8203125 959.47265625 58.7373046875 959.107421875 54.380859375 c 1
 959.107421875 54.380859375 l 1
 951.048828125 -41.09375 866.747070312 -118.813476562 770.932617188 -119.100585938 c 1
 770.932617188 -118.392578125 l 2
770.932617188 197.76953125 m 2
 706.640625 197.63671875 650.095703125 145.532226562 644.715820312 81.4658203125 c 0
 644.518554688 78.84375 644.358398438 74.5830078125 644.358398438 71.9541015625 c 0
 644.358398438 1.9892578125 701.141601562 -54.7939453125 771.106445312 -54.7939453125 c 0
 834.959960938 -54.7939453125 891.506835938 -3.1875 897.327148438 60.400390625 c 1
 897.327148438 60.400390625 l 1
 897.561523438 63.2568359375 897.750976562 67.9013671875 897.750976562 70.767578125 c 0
 897.750976562 135.138671875 845.6953125 191.797851562 781.5546875 197.23828125 c 2
 770.932617188 197.76953125 l 2
973.26953125 -200.176757812 m 0
 973.248046875 -200.176757812 973.211914062 -200.176757812 973.190429688 -200.176757812 c 0
 965.220703125 -200.176757812 954.549804688 -195.259765625 949.37109375 -189.201171875 c 2
 848.645507812 -70.0654296875 l 2
 845.197265625 -65.45703125 842.397460938 -57.0458984375 842.397460938 -51.2900390625 c 0
 842.397460938 -33.9951171875 856.434570312 -19.9580078125 873.73046875 -19.9580078125 c 0
 881.153320312 -19.9580078125 891.328125 -24.32421875 896.44140625 -29.7041015625 c 2
 996.990234375 -148.663085938 l 2
 1001.05566406 -153.4921875 1004.35546875 -162.533203125 1004.35546875 -168.844726562 c 0
 1004.35546875 -186.004882812 990.428710938 -200.041992188 973.26953125 -200.176757812 c 0
26.5537109375 483.837890625 m 1
 780.315429688 483.837890625 l 1
 780.315429688 676.615234375 l 2
 780.217773438 729.96875 736.837890625 773.349609375 683.483398438 773.446289062 c 2
 123.384765625 773.446289062 l 2
 70.03125 773.349609375 26.650390625 729.96875 26.5537109375 676.615234375 c 2
 26.5537109375 6.7626953125 l 2
 26.650390625 -46.591796875 70.03125 -89.9716796875 123.384765625 -90.0693359375 c 2
 498.141601562 -90.0693359375 l 1025
140.555664062 110.143554688 m 1
 140.555664062 128.376953125 l 1
 346.079101562 128.376953125 l 1
 346.079101562 110.143554688 l 1
 140.555664062 110.143554688 l 1
140.555664062 288.936523438 m 1
 140.555664062 307.168945312 l 1
 525.048828125 307.168945312 l 1
 525.048828125 288.936523438 l 1
 140.555664062 288.936523438 l 1
403.434570312 605.275390625 m 1
 403.434570312 623.508789062 l 1
 699.76953125 623.508789062 l 1
 699.76953125 605.275390625 l 1
 403.434570312 605.275390625 l 1
167.286132812 623.508789062 m 0
 167.286132812 648.145507812 187.258789062 668.118164062 211.895507812 668.118164062 c 0
 236.533203125 668.118164062 256.505859375 648.145507812 256.505859375 623.508789062 c 0
 256.505859375 598.87109375 236.533203125 578.8984375 211.895507812 578.8984375 c 0
 187.258789062 578.8984375 167.286132812 598.87109375 167.286132812 623.508789062 c 0
EndSplineSet
Validated: 11
EndChar

StartChar: N
Encoding: 78 78 15
Width: 1000
GlyphClass: 2
Flags: H
LayerCount: 2
Fore
SplineSet
844.224609375 -58.13671875 m 2
 838.916015625 -58.13671875 833.791015625 -58.13671875 828.482421875 -58.13671875 c 0
 734.865234375 -49.943359375 658.885742188 32.9755859375 658.885742188 126.951171875 c 0
 658.885742188 229.510742188 742.122070312 312.747070312 844.680664062 312.747070312 c 0
 947.240234375 312.747070312 1030.4765625 229.510742188 1030.4765625 126.951171875 c 0
 1030.4765625 122.693359375 1030.19042969 115.793945312 1029.83691406 111.55078125 c 1
 1029.83691406 111.55078125 l 1
 1021.95117188 17.712890625 939.125 -58.552734375 844.95703125 -58.685546875 c 2
 844.224609375 -58.13671875 l 2
844.224609375 253.047851562 m 2
 842.709960938 253.114257812 840.25 253.168945312 838.733398438 253.168945312 c 0
 769.805664062 253.168945312 713.864257812 197.227539062 713.864257812 128.299804688 c 0
 713.864257812 62.3388671875 767.345703125 6.4521484375 833.2421875 3.55078125 c 0
 835.993164062 3.330078125 840.465820312 3.1513671875 843.225585938 3.1513671875 c 0
 906.4296875 3.1513671875 962.149414062 54.255859375 967.600585938 117.224609375 c 1
 967.600585938 117.224609375 l 1
 967.836914062 120.067382812 968.028320312 124.690429688 968.028320312 127.54296875 c 0
 968.028320312 190.747070312 916.911132812 246.317382812 853.926757812 251.583007812 c 0
 851.155273438 251.875976562 846.645507812 252.122070312 843.858398438 252.1328125 c 2
 844.224609375 253.047851562 l 2
1042.83398438 -138.12890625 m 0
 1035.00878906 -138.09375 1024.51269531 -133.255859375 1019.40332031 -127.329101562 c 2
 920.739257812 -9.994140625 l 2
 916.739257812 -5.271484375 913.4921875 3.5849609375 913.4921875 9.7744140625 c 0
 913.4921875 26.658203125 927.194335938 40.361328125 944.078125 40.361328125 c 0
 951.903320312 40.361328125 962.359375 35.515625 967.416992188 29.5439453125 c 2
 1066.26367188 -87.2412109375 l 2
 1070.28222656 -92.009765625 1073.54296875 -100.940429688 1073.54296875 -107.17578125 c 0
 1073.54296875 -115.009765625 1068.72363281 -125.514648438 1062.78613281 -130.624023438 c 0
 1058.02929688 -134.689453125 1049.09082031 -138.051757812 1042.83398438 -138.12890625 c 0
284.092773438 303.38671875 m 2
 289.2578125 299.350585938 293.44921875 290.756835938 293.44921875 284.202148438 c 0
 293.44921875 270.763671875 282.541992188 259.856445312 269.103515625 259.856445312 c 0
 266.474609375 259.856445312 262.365234375 260.661132812 259.930664062 261.651367188 c 2
 116.96875 347.500976562 l 2
 110.473632812 351.3828125 105.202148438 360.674804688 105.202148438 368.2421875 c 0
 105.202148438 371.986328125 106.783203125 377.619140625 108.731445312 380.81640625 c 0
 112.576171875 387.3046875 121.818359375 392.571289062 129.360351562 392.571289062 c 0
 133.084960938 392.571289062 138.685546875 390.995117188 141.86328125 389.053710938 c 2
 284.092773438 303.38671875 l 2
436.573242188 -198.901367188 m 1
 438.336914062 -199.399414062 441.255859375 -199.803710938 443.087890625 -199.803710938 c 0
 446.567382812 -199.803710938 451.848632812 -198.415039062 454.877929688 -196.705078125 c 1
 451.942382812 -198.5 446.767578125 -199.956054688 443.326171875 -199.956054688 c 0
 441.416992188 -199.956054688 438.391601562 -199.483398438 436.573242188 -198.901367188 c 1
284.092773438 303.38671875 m 2
 141.86328125 389.053710938 l 2
 138.685546875 390.995117188 133.084960938 392.571289062 129.360351562 392.571289062 c 0
 121.818359375 392.571289062 112.576171875 387.3046875 108.731445312 380.81640625 c 0
 106.783203125 377.619140625 105.202148438 371.986328125 105.202148438 368.2421875 c 0
 105.202148438 360.674804688 110.473632812 351.3828125 116.96875 347.500976562 c 2
 259.930664062 261.651367188 l 2
 262.365234375 260.661132812 266.474609375 259.856445312 269.103515625 259.856445312 c 0
 282.541992188 259.856445312 293.44921875 270.763671875 293.44921875 284.202148438 c 0
 293.44921875 290.756835938 289.2578125 299.350585938 284.092773438 303.38671875 c 2
284.092773438 303.38671875 m 2
 289.2578125 299.350585938 293.44921875 290.756835938 293.44921875 284.202148438 c 0
 293.44921875 270.763671875 282.541992188 259.856445312 269.103515625 259.856445312 c 0
 266.474609375 259.856445312 262.365234375 260.661132812 259.930664062 261.651367188 c 2
 116.96875 347.500976562 l 2
 110.473632812 351.3828125 105.202148438 360.674804688 105.202148438 368.2421875 c 0
 105.202148438 371.986328125 106.783203125 377.619140625 108.731445312 380.81640625 c 0
 112.576171875 387.3046875 121.818359375 392.571289062 129.360351562 392.571289062 c 0
 133.084960938 392.571289062 138.685546875 390.995117188 141.86328125 389.053710938 c 2
 284.092773438 303.38671875 l 2
284.092773438 303.38671875 m 2
 141.86328125 389.053710938 l 2
 138.685546875 390.995117188 133.084960938 392.571289062 129.360351562 392.571289062 c 0
 121.818359375 392.571289062 112.576171875 387.3046875 108.731445312 380.81640625 c 0
 106.783203125 377.619140625 105.202148438 371.986328125 105.202148438 368.2421875 c 0
 105.202148438 360.674804688 110.473632812 351.3828125 116.96875 347.500976562 c 2
 259.930664062 261.651367188 l 2
 262.365234375 260.661132812 266.474609375 259.856445312 269.103515625 259.856445312 c 0
 282.541992188 259.856445312 293.44921875 270.763671875 293.44921875 284.202148438 c 0
 293.44921875 290.756835938 289.2578125 299.350585938 284.092773438 303.38671875 c 2
284.092773438 303.38671875 m 2
 289.2578125 299.350585938 293.44921875 290.756835938 293.44921875 284.202148438 c 0
 293.44921875 270.763671875 282.541992188 259.856445312 269.103515625 259.856445312 c 0
 266.474609375 259.856445312 262.365234375 260.661132812 259.930664062 261.651367188 c 2
 116.96875 347.500976562 l 2
 110.473632812 351.3828125 105.202148438 360.674804688 105.202148438 368.2421875 c 0
 105.202148438 371.986328125 106.783203125 377.619140625 108.731445312 380.81640625 c 0
 112.576171875 387.3046875 121.818359375 392.571289062 129.360351562 392.571289062 c 0
 133.084960938 392.571289062 138.685546875 390.995117188 141.86328125 389.053710938 c 2
 284.092773438 303.38671875 l 2
284.092773438 303.38671875 m 2
 141.86328125 389.053710938 l 2
 138.685546875 390.995117188 133.084960938 392.571289062 129.360351562 392.571289062 c 0
 121.818359375 392.571289062 112.576171875 387.3046875 108.731445312 380.81640625 c 0
 106.783203125 377.619140625 105.202148438 371.986328125 105.202148438 368.2421875 c 0
 105.202148438 360.674804688 110.473632812 351.3828125 116.96875 347.500976562 c 2
 259.930664062 261.651367188 l 2
 262.365234375 260.661132812 266.474609375 259.856445312 269.103515625 259.856445312 c 0
 282.541992188 259.856445312 293.44921875 270.763671875 293.44921875 284.202148438 c 0
 293.44921875 290.756835938 289.2578125 299.350585938 284.092773438 303.38671875 c 2
284.092773438 303.38671875 m 1024
891.634765625 579.791015625 m 2
 899.015625 576.150390625 905.005859375 566.515625 905.005859375 558.286132812 c 0
 905.005859375 557.448242188 904.919921875 556.09375 904.814453125 555.262695312 c 0
 904.086914062 549.478515625 899.495117188 542.262695312 894.563476562 539.154296875 c 2
 856.123046875 516.2734375 l 1
 479.223632812 302.288085938 l 1
 479.223632812 -125.315429688 l 1
 489.108398438 -119.82421875 l 1
 489.108398438 -119.82421875 l 1
 584.84375 -64.9091796875 l 2
 587.604492188 -63.6220703125 592.318359375 -62.576171875 595.365234375 -62.576171875 c 0
 609.107421875 -62.576171875 620.259765625 -73.7294921875 620.259765625 -87.4716796875 c 0
 620.259765625 -94.6630859375 615.463867188 -103.827148438 609.555664062 -107.92578125 c 2
 470.986328125 -188.1015625 l 2
 467.356445312 -189.860351562 461.135742188 -191.287109375 457.1015625 -191.287109375 c 0
 452.064453125 -191.287109375 444.5078125 -189.122070312 440.234375 -186.454101562 c 0
 433.095703125 -183.159179688 22.681640625 64.7294921875 16.291015625 68.716796875 c 0
 9.9013671875 72.7041015625 4.65234375 82.052734375 4.576171875 89.5849609375 c 2
 4.576171875 543.181640625 l 2
 4.32421875 544.849609375 4.119140625 547.572265625 4.119140625 549.259765625 c 0
 4.119140625 559.413085938 10.310546875 573.090820312 17.9384765625 579.791015625 c 2
 443.895507812 792.861328125 l 2
 446.727539062 794.305664062 451.607421875 795.477539062 454.787109375 795.477539062 c 0
 457.965820312 795.477539062 462.845703125 794.305664062 465.677734375 792.861328125 c 2
 891.634765625 579.791015625 l 2
430.532226562 -124.400390625 m 1
 430.532226562 302.288085938 l 1
 52.9013671875 516.639648438 l 1
 52.9013671875 103.129882812 l 1
 430.532226562 -124.400390625 l 1
454.877929688 344.389648438 m 1
 829.581054688 557.458984375 l 1
 454.877929688 743.987304688 l 1
 80.17578125 557.458984375 l 1
 454.877929688 344.389648438 l 1
EndSplineSet
Validated: 5
EndChar

StartChar: P
Encoding: 80 80 16
Width: 1000
GlyphClass: 2
Flags: H
LayerCount: 2
Fore
SplineSet
318.071289062 346.954101562 m 1
 273.129882812 302.076171875 l 1025
363.010742188 391.834960938 m 1
 407.951171875 436.653320312 l 1
 520.36328125 324.543945312 l 1
 475.423828125 279.666015625 l 1
 363.010742188 391.834960938 l 1
925.073242188 459.125 m 2
 937.498046875 446.762695312 937.498046875 426.666015625 925.07421875 414.243164062 c 2
 385.541992188 -124.071289062 l 2
 373.119140625 -136.494140625 352.963867188 -136.494140625 340.540039062 -124.071289062 c 2
 70.7431640625 145.0859375 l 2
 58.322265625 157.510742188 58.322265625 177.543945312 70.7431640625 189.905273438 c 2
 610.366210938 728.342773438 l 2
 622.791015625 740.705078125 642.88671875 740.705078125 655.307617188 728.342773438 c 2
 925.073242188 459.125 l 2
835.194335938 414.244140625 m 2
 847.615234375 426.666015625 847.615234375 446.762695312 835.194335938 459.125976562 c 2
 655.307617188 638.584960938 l 2
 642.88671875 651.006835938 622.791015625 651.006835938 610.366210938 638.584960938 c 2
 245.483398438 274.734375 l 1
 160.716796875 189.90625 l 2
 148.293945312 177.543945312 148.293945312 157.51171875 160.716796875 145.086914062 c 2
 340.5390625 -34.37109375 l 2
 352.962890625 -46.7333984375 373.118164062 -46.7333984375 385.541015625 -34.37109375 c 2
 835.194335938 414.244140625 l 2
480.5390625 508.936523438 m 1
 542.895507812 571.293945312 l 1
 525.479492188 553.818359375 l 1
 637.891601562 441.646484375 l 1
 592.951171875 396.766601562 l 1
 480.5390625 508.936523438 l 1
497.956054688 526.412109375 m 1
 452.953125 481.59375 l 1025
402.8984375 207.443359375 m 1
 340.5390625 145.0859375 l 1
 357.895507812 162.5625 l 1
 245.483398438 274.732421875 l 1
 290.484375 319.612304688 l 1
 402.8984375 207.443359375 l 1
EndSplineSet
Validated: 43
EndChar

StartChar: Q
Encoding: 81 81 17
Width: 1000
GlyphClass: 2
Flags: H
LayerCount: 2
Fore
SplineSet
190.735351562 -36.6748046875 m 1
 190.735351562 281.615234375 l 1
 387.875 281.615234375 l 1
 387.875 -36.6748046875 l 1
 190.735351562 -36.6748046875 l 1
243.049804688 238.655273438 m 1
 243.049804688 6.8251953125 l 1
 340.514648438 6.8251953125 l 1
 340.514648438 238.655273438 l 1
 243.049804688 238.655273438 l 1
933.030273438 766.75 m 2
 961.674804688 766.75 984.794921875 743.620117188 984.254882812 715.53515625 c 2
 984.254882812 -14.099609375 l 2
 984.254882812 -42.1796875 961.684570312 -65.3046875 933.040039062 -65.3046875 c 2
 862.099609375 -65.3046875 l 1
 862.099609375 -130.924804688 l 2
 862.099609375 -159.009765625 833.370117188 -184.245117188 804.735351562 -184.245117188 c 2
 84.4599609375 -184.245117188 l 2
 56.375 -184.245117188 33.25 -161.674804688 33.25 -133.040039062 c 2
 33.25 596.594726562 l 2
 33.25 624.6796875 55.8251953125 647.8046875 84.4599609375 647.8046875 c 2
 161 647.8046875 l 1
 161 715.540039062 l 2
 161 743.625 183.575195312 766.75 212.21484375 766.75 c 2
 933.030273438 766.75 l 2
796.474609375 -79.6201171875 m 1
 796.474609375 547.584960938 l 2
 796.474609375 566.309570312 783.165039062 587.700195312 756.8203125 587.235351562 c 2
 137.3203125 587.235351562 l 2
 118.599609375 587.235351562 98.5048828125 572.10546875 97.669921875 547.584960938 c 2
 97.669921875 -79.6201171875 l 2
 97.669921875 -98.349609375 118.599609375 -119.275390625 137.3203125 -119.275390625 c 2
 756.8203125 -119.275390625 l 2
 775.540039062 -119.275390625 796.474609375 -98.349609375 796.474609375 -79.6201171875 c 1
919.264648438 34.91015625 m 1
 919.264648438 661.559570312 l 2
 920.834960938 682.669921875 902.474609375 701.025390625 879.620117188 701.209960938 c 2
 261.224609375 701.209960938 l 2
 241.219726562 701.025390625 226.075195312 691.400390625 227.080078125 661.559570312 c 2
 227.080078125 647.794921875 l 1
 805.280273438 647.794921875 l 2
 833.360351562 647.794921875 861.169921875 626.415039062 861.169921875 597.780273438 c 2
 862.094726562 -4.7353515625 l 1
 879.620117188 -4.7353515625 l 2
 898.344726562 -4.7353515625 919.264648438 16.1845703125 919.264648438 34.91015625 c 1
190.735351562 322.91015625 m 1
 190.735351562 493.0703125 l 1
 705.615234375 493.0703125 l 1
 705.615234375 322.91015625 l 1
 190.735351562 322.91015625 l 1
237.544921875 449.565429688 m 1
 237.544921875 365.865234375 l 1
 658.245117188 365.865234375 l 1
 658.245117188 449.565429688 l 1
 237.544921875 449.565429688 l 1
443.490234375 -36.6748046875 m 1
 443.490234375 281.615234375 l 1
 705.615234375 281.615234375 l 1
 705.615234375 -36.6748046875 l 1
 443.490234375 -36.6748046875 l 1
490.299804688 238.655273438 m 1
 490.299804688 6.8251953125 l 1
 658.245117188 6.8251953125 l 1
 658.245117188 238.655273438 l 1
 490.299804688 238.655273438 l 1
EndSplineSet
Validated: 33
EndChar

StartChar: T
Encoding: 84 84 18
Width: 1000
GlyphClass: 2
Flags: HW
LayerCount: 2
Fore
SplineSet
487 798 m 2
 489.666992188 795.333007812 490.666992188 793.66796875 490 793.000976562 c 0
 489.333007812 792.333984375 487 794.666992188 483 800 c 2
 487 798 l 2
919 579.001953125 m 2
 870.000976562 579.002929688 l 1
 870.000976562 481.002929688 l 1
 870.000976562 480.002929688 l 1
 870.000976562 478.002929688 l 1
 870.000976562 66.0029296875 l 1
 919.000976562 66.0029296875 l 2
 927.000976562 66.0029296875 934.000976562 63.169921875 940.000976562 57.5029296875 c 0
 946.000976562 51.8359375 949.000976562 44.6689453125 949.000976562 36.001953125 c 2
 949.000976562 -118.998046875 l 2
 949.000976562 -126.998046875 946.000976562 -133.831054688 940.000976562 -139.498046875 c 0
 934.000976562 -145.165039062 927.000976562 -147.998046875 919.000976562 -147.998046875 c 2
 762.000976562 -147.998046875 l 2
 754.000976562 -147.998046875 747.16796875 -145.165039062 741.500976562 -139.498046875 c 0
 735.833984375 -133.831054688 733.000976562 -126.998046875 733.000976562 -118.998046875 c 2
 733.000976562 -69.998046875 l 1
 216.000976562 -69.998046875 l 1
 216.000976562 -118.998046875 l 2
 216.000976562 -126.998046875 213.16796875 -133.831054688 207.500976562 -139.498046875 c 0
 201.833984375 -145.165039062 194.666992188 -147.998046875 186 -147.998046875 c 2
 30 -147.998046875 l 1
 29 -147.998046875 l 2
 21 -147.998046875 14.1669921875 -145.165039062 8.5 -139.498046875 c 0
 2.8330078125 -133.831054688 0 -126.998046875 0 -118.998046875 c 2
 0 37.001953125 l 2
 -0 45.001953125 2.8330078125 51.8349609375 8.5 57.501953125 c 0
 14.1669921875 63.1689453125 21 66.001953125 29 66.001953125 c 2
 30 66.001953125 l 1
 78 66.001953125 l 1
 78 579.001953125 l 1
 30 579.001953125 l 1
 29 579.001953125 l 2
 21 579.001953125 14.1669921875 581.834960938 8.5 587.501953125 c 0
 2.8330078125 593.168945312 0 600.001953125 0 608.001953125 c 2
 0 763.001953125 l 2
 -0 771.668945312 2.8330078125 778.8359375 8.5 784.502929688 c 0
 14.1669921875 790.169921875 21 793.002929688 29 793.002929688 c 2
 30 793.002929688 l 1
 186 793.002929688 l 2
 194.666992188 793.002929688 201.833984375 790.169921875 207.500976562 784.502929688 c 0
 213.16796875 778.8359375 216.000976562 771.668945312 216.000976562 763.001953125 c 2
 216.000976562 715.001953125 l 1
 628.000976562 715.001953125 l 1
 632.000976562 715.001953125 l 1
 637.000976562 715.001953125 l 1
 733.000976562 715.001953125 l 1
 733.000976562 763.001953125 l 2
 733.000976562 771.668945312 735.833984375 778.8359375 741.500976562 784.502929688 c 0
 747.16796875 790.169921875 754.000976562 793.002929688 762.000976562 793.002929688 c 2
 919.000976562 793.002929688 l 2
 927.000976562 793.002929688 934.000976562 790.169921875 940.000976562 784.502929688 c 0
 946.000976562 778.8359375 949.000976562 771.668945312 949.000976562 763.001953125 c 2
 949.000976562 608.001953125 l 2
 949.000976562 600.001953125 946.16796875 593.168945312 940.500976562 587.501953125 c 0
 934.833984375 581.834960938 927.666992188 579.001953125 919 579.001953125 c 2
138.000976562 372.002929688 m 2
 138.000976562 237.001953125 l 1
 560.000976562 656.001953125 l 1
 425.000976562 656.001953125 l 1
 143.000976562 376.001953125 l 2
 141.000976562 374.668945312 139.333984375 373.3359375 138.000976562 372.002929688 c 2
186.000976562 579.001953125 m 1
 138.000976562 579.001953125 l 1
 138.000976562 454.001953125 l 1
 341.000976562 656.001953125 l 1
 216.000976562 656.001953125 l 1
 216.000976562 608.001953125 l 2
 216.000976562 600.001953125 213.16796875 593.168945312 207.500976562 587.501953125 c 0
 201.833984375 581.834960938 195.000976562 579.001953125 187.000976562 579.001953125 c 2
 186.000976562 579.001953125 l 1
138.000976562 154.001953125 m 1
 138.000976562 66.001953125 l 1
 174.000976562 66.001953125 l 1
 733.000976562 620.001953125 l 1
 733.000976562 656.001953125 l 1
 644.000976562 656.001953125 l 1
 138.000976562 154.001953125 l 1
811.000976562 277.001953125 m 1
 811.000976562 409.001953125 l 1
 387.000976562 -11.998046875 l 1
 522.000976562 -11.998046875 l 2
 523.333984375 -9.3310546875 525.000976562 -6.998046875 527.000976562 -4.998046875 c 2
 811.000976562 277.001953125 l 1
762.000976562 66.001953125 m 2
 811.000976562 66.0009765625 l 1
 811.000976562 194.000976562 l 1
 604.000976562 -11.9990234375 l 1
 733.000976562 -11.9990234375 l 1
 733.000976562 36.0009765625 l 2
 733.000976562 44.66796875 735.833984375 51.8349609375 741.500976562 57.501953125 c 0
 747.16796875 63.1689453125 754.000976562 66.001953125 762.000976562 66.001953125 c 2
811.000976562 492.000976562 m 1
 811.000976562 579.000976562 l 1
 775.000976562 579.000976562 l 1
 216.000976562 24.0009765625 l 1
 216.000976562 -11.9990234375 l 1
 303.000976562 -11.9990234375 l 1
 811.000976562 492.000976562 l 1
EndSplineSet
Validated: 1
EndChar

StartChar: U
Encoding: 85 85 19
Width: 1000
GlyphClass: 2
Flags: HW
LayerCount: 2
Fore
SplineSet
0 743 m 2
 0 758.333007812 5.6669921875 771.666015625 17 782.999023438 c 0
 28.3330078125 794.33203125 41.666015625 799.999023438 56.9990234375 799.999023438 c 2
 919.999023438 799.999023438 l 2
 935.33203125 799.999023438 948.665039062 794.33203125 959.998046875 782.999023438 c 0
 971.331054688 771.666015625 976.998046875 758.333007812 976.998046875 743 c 2
 976.998046875 -120 l 2
 976.998046875 -135.333007812 971.331054688 -148.666015625 959.998046875 -159.999023438 c 0
 948.665039062 -171.33203125 935.33203125 -176.999023438 919.999023438 -176.999023438 c 2
 56.9990234375 -176.999023438 l 2
 41.666015625 -176.999023438 28.3330078125 -171.33203125 17 -159.999023438 c 0
 5.6669921875 -148.666015625 0 -135.333007812 0 -120 c 2
 0 743 l 2
879 -107 m 2
 886.333007812 -107 892.833007812 -104.166992188 898.5 -98.5 c 0
 904.166992188 -92.8330078125 907 -86.3330078125 907 -79 c 2
 907 702 l 2
 907 709.333007812 904.166992188 715.833007812 898.5 721.5 c 0
 892.833007812 727.166992188 886.333007812 730 879 730 c 2
 98 730 l 2
 90.6669921875 730 84.1669921875 727.166992188 78.5 721.5 c 0
 72.8330078125 715.833007812 70 709.333007812 70 702 c 2
 70 -79 l 2
 70 -86.3330078125 72.8330078125 -92.8330078125 78.5 -98.5 c 0
 84.1669921875 -104.166992188 90.6669921875 -107 98 -107 c 2
 879 -107 l 2
419 346 m 1
 419 486 l 1
 284 486 l 1
 485 686 l 1
 685 486 l 1
 558 486 l 1
 558 346 l 1
 419 346 l 1
685 137 m 1
 485 -63 l 1
 284 137 l 1
 419 137 l 1
 419 277 l 1
 558 277 l 1
 558 137 l 1
 685 137 l 1
EndSplineSet
Validated: 1
EndChar

StartChar: D
Encoding: 68 68 20
Width: 1000
VWidth: 0
Flags: H
LayerCount: 2
Fore
SplineSet
52.75 749.234375 m 1
 164.859375 749.234375 l 2
 157.6875 711.046875 172.46875 696.34375 180.71875 646.46875 c 0
 208.375 479.28125 318.21875 351.5 495.046875 335.15625 c 1
 495.046875 334.0625 l 1
 296.109375 330.75 169.53125 433.15625 110.375 569.171875 c 0
 87.078125 622.765625 36.78125 673.09375 52.75 749.234375 c 1
298.3125 749.234375 m 2
 401.5625 749.234375 l 2
 386.484375 719.421875 372.4375 720.078125 363.09375 683.46875 c 0
 332.328125 562.828125 387.15625 454.796875 437.828125 391.75 c 0
 454.703125 370.765625 479.84375 357.46875 497.203125 337.328125 c 1
 477.067382812 346.037109375 447.52734375 365.055664062 431.265625 379.78125 c 0
 350.3125 441.3125 305.65625 522.671875 285.09375 645.40625 c 0
 276.765625 695.3125 293.65625 709.453125 298.3125 749.234375 c 2
526.921875 749.234375 m 2
 675.359375 748.140625 l 1
 673.09375 748.140625 l 2
 650.859375 731.390625 624.4375 752.203125 602.78125 735.640625 c 0
 540.28125 688.15625 454.515625 561.671875 476.390625 436.3125 c 0
 482.84375 399.3125 495.765625 368.546875 502.765625 337.25 c 2
 500.5625 338.34375 l 1
 476.390625 381.875 l 2
 466.881835938 403.47265625 454.561523438 439.592773438 448.890625 462.5 c 0
 424.484375 560.21875 454.625 668.21875 491.75 730.265625 c 0
 503.46875 746.96875 515.203125 732.546875 526.921875 749.234375 c 2
968.75 749.234375 m 2
 968.75 620.3125 l 2
 942.34375 625 914.296875 630.71875 884.125 635.546875 c 0
 876.166992188 636.357421875 863.216796875 637.015625 855.217773438 637.015625 c 0
 828.799804688 637.015625 787.094726562 630.015625 762.125 621.390625 c 0
 659.265625 590.0625 577.75 527.265625 536.8125 435.265625 c 2
 513.734375 369.953125 l 1
 507.140625 332.953125 l 2
 506.8125 338.454101562 506.545898438 347.392578125 506.545898438 352.903320312 c 0
 506.545898438 385.64453125 515.673828125 437.172851562 526.921875 467.921875 c 0
 570.002929688 595.528320312 711.94140625 721.556640625 843.75 749.234375 c 0
 885.3125 758.296875 926.15625 750.21875 968.75 749.234375 c 2
851.140625 535.4375 m 2
 852.2734375 535.447265625 854.112304688 535.456054688 855.24609375 535.456054688 c 0
 887.060546875 535.456054688 937.91015625 529.112304688 968.75 521.296875 c 0
 968.385416667 488.640625 968.015625 455.984375 967.640625 423.328125 c 1
 942.84765625 435.599609375 900.994140625 451.202148438 874.21875 458.15625 c 0
 749.84375 489.28125 632.453125 438.015625 565.375 386.28125 c 0
 544.65625 370.3125 530.578125 346.875 510.4375 330.796875 c 1
 515.813476562 342.645507812 527.139648438 360.202148438 535.71875 369.984375 c 0
 579.672851562 431.359375 674.20703125 498.166992188 746.734375 519.109375 c 2
 819.265625 533.265625 l 1
 851.140625 535.4375 l 2
31.25 492.984375 m 2
 50.640625 468.859375 64.921875 441.421875 84 417.875 c 0
 134.296875 355.859375 268.546875 283.328125 395.03125 305.765625 c 0
 429.296875 311.84375 458.703125 323.4375 488.453125 329.71875 c 2
 487.359375 327.546875 l 1
 450 307.953125 l 2
 425.818359375 297.716796875 385.442382812 284.549804688 359.875 278.5625 c 0
 224.890625 245.3125 108.0625 303.125 31.25 352.578125 c 1
 31.25 492.984375 l 2
699.484375 384.140625 m 2
 801.765625 385.9375 922.40625 351.765625 968.75 301.421875 c 0
 968.385416667 254.640625 968.020833333 207.8125 967.65625 160.9375 c 2
 967.65625 163.171875 l 2
 951.046875 184.6875 939.3125 208.8125 922.59375 229.578125 c 0
 868.0625 297.296875 732.671875 374.421875 596.171875 348.21875 c 0
 571.853515625 342.920898438 532.96875 332.190429688 509.375 324.265625 c 1
 535.9375 349.765625 602.6875 368.296875 645.65625 377.59375 c 2
 699.484375 384.140625 l 2
497.25 337.265625 m 1
 497.25 337.265625 l 1
502.75 337.265625 m 1
 503.84375 335.09375 l 1
 502.75 337.265625 l 1
488.46875 330.734375 m 1
 488.46875 330.734375 l 1
509.34375 330.734375 m 1
 510.4375 328.5625 l 1
 509.34375 330.734375 l 1
489.5625 326.375 m 2
 489.584960938 326.221679688 489.603515625 325.971679688 489.603515625 325.81640625 c 0
 489.603515625 324.938476562 489.095703125 323.725585938 488.46875 323.109375 c 2
 489.5625 326.375 l 2
491.765625 324.203125 m 1
 491.765625 282.84375 l 2
 482.671875 226.375 475.6875 186.125 455.5 144.609375 c 0
 395.8125 22.015625 233.28125 -174.671875 31.25 -135.265625 c 1
 31.25 -27.453125 l 2
 57.6875 -32.140625 85.640625 24.4375 115.875 19.546875 c 0
 122.639648438 18.8369140625 133.649414062 18.2607421875 140.451171875 18.2607421875 c 0
 154.768554688 18.2607421875 177.729492188 20.7900390625 191.703125 23.90625 c 0
 305.765625 46.015625 381.5 94.640625 435.6875 175.203125 c 0
 461.359375 213.28125 490.625 264.0625 491.75 324.265625 c 2
 491.765625 324.203125 l 1
507.15625 324.203125 m 1
 507.15625 324.203125 l 1
487.375 323.109375 m 2
 490.1875 307.953125 433.390625 246.765625 421.4375 234.9375 c 0
 335.9375 150.40625 197.0625 95.046875 31.25 133.78125 c 0
 32.34375 231.75 l 1
 59.9453125 218.107421875 106.71875 201.524414062 136.75 194.734375 c 0
 287.375 161.671875 430.203125 244.1875 487.359375 323.1875 c 1
 487.375 323.109375 l 2
495.0625 320.9375 m 1
 496.15625 318.765625 l 1
 495.0625 320.9375 l 1
948.34375 -153.125 m 2
 835.140625 -153.125 l 2
 846.28125 -124.8125 819.28125 -59.375 819.28125 -20.78125 c 0
 819.28125 -20.7109375 819.28125 -20.5966796875 819.28125 -20.525390625 c 0
 819.28125 101.44140625 728.680664062 240.3046875 617.046875 289.4375 c 2
 546.734375 313.390625 l 1
 504.96875 321.015625 l 2
 731.25 324.1875 876.5625 185.34375 916 3.125 c 0
 924.484375 -36.0625 949.796875 -112.96875 948.34375 -153.125 c 2
496.15625 318.828125 m 1
 507.00390625 305.255859375 520.3046875 280.875 525.84375 264.40625 c 0
 542.865234375 224.717773438 556.680664062 157.458007812 556.680664062 114.2734375 c 0
 556.680664062 57.525390625 533.506835938 -28.3330078125 504.953125 -77.375 c 0
 495.4375 -92.796875 518.578125 -141.328125 505.4375 -153.109375 c 2
 362.5 -152.03125 l 1
 364.703125 -152.03125 l 1
 395.484375 -134.609375 l 2
 410.140625 -123.671875 393.546875 -81.71875 408.1875 -70.84375 c 0
 471.875 -20.3125 546.875 106.875 521.421875 232.8125 c 0
 515.763671875 256.939453125 504.4453125 295.474609375 496.15625 318.828125 c 1
500.546875 318.828125 m 1
 503.84375 316.65625 l 1
 500.546875 318.828125 l 1
503.84375 316.65625 m 1
 535.59375 306.65625 560.375 281.0625 584.078125 262.234375 c 0
 655.46875 205.53125 693.8125 127.234375 712.671875 17.328125 c 0
 714.685546875 6.1826171875 716.319335938 -12.0546875 716.319335938 -23.380859375 c 0
 716.319335938 -30.4912109375 715.672851562 -41.9970703125 714.875 -49.0625 c 0
 710.625 -74.484375 736.75 -130.03125 732.9375 -153.109375 c 2
 630.71875 -153.109375 l 1
 631.8125 -149.84375 l 2
 649 -132.421875 625.109375 -66.75 632.4375 -40.359375 c 0
 667.5 85.90625 616.34375 195.453125 559.90625 265.5 c 0
 544.03125 285.1875 520.109375 297.65625 503.84375 316.65625 c 1
EndSplineSet
Validated: 37
EndChar

StartChar: G
Encoding: 71 71 21
Width: 1000
VWidth: 0
Flags: H
LayerCount: 2
Fore
SplineSet
835.129882812 737.125976562 m 0
 891.431640625 737.125976562 937.125976562 691.431640625 937.125976562 635.129882812 c 0
 937.125976562 578.828125 891.431640625 533.133789062 835.129882812 533.133789062 c 0
 778.828125 533.133789062 733.133789062 578.828125 733.133789062 635.129882812 c 0
 733.133789062 691.431640625 778.828125 737.125976562 835.129882812 737.125976562 c 0
835.129882812 66.8662109375 m 1025
164.870117188 635.129882812 m 1024
164.870117188 737.125976562 m 0
 221.171875 737.125976562 266.866210938 691.431640625 266.866210938 635.129882812 c 0
 266.866210938 578.828125 221.171875 533.133789062 164.870117188 533.133789062 c 0
 108.568359375 533.133789062 62.8740234375 578.828125 62.8740234375 635.129882812 c 0
 62.8740234375 691.431640625 108.568359375 737.125976562 164.870117188 737.125976562 c 0
164.870117188 66.8662109375 m 1025
820.55859375 449.974609375 m 2
 820.55859375 476.983398438 l 2
 820.55859375 491.899414062 830.344726562 503.9921875 842.415039062 503.9921875 c 0
 854.486328125 503.9921875 864.271484375 491.899414062 864.271484375 476.983398438 c 2
 864.271484375 449.974609375 l 2
 864.271484375 435.05859375 854.486328125 422.965820312 842.415039062 422.965820312 c 0
 830.344726562 422.965820312 820.55859375 435.05859375 820.55859375 449.974609375 c 2
820.55859375 341.940429688 m 2
 820.55859375 368.94921875 l 2
 820.55859375 383.865234375 830.344726562 395.958007812 842.415039062 395.958007812 c 0
 854.486328125 395.958007812 864.271484375 383.865234375 864.271484375 368.94921875 c 2
 864.271484375 341.940429688 l 2
 864.271484375 327.0234375 854.486328125 314.931640625 842.415039062 314.931640625 c 0
 830.344726562 314.931640625 820.55859375 327.0234375 820.55859375 341.940429688 c 2
820.55859375 233.90625 m 2
 820.55859375 260.9140625 l 2
 820.55859375 275.831054688 830.344726562 287.922851562 842.415039062 287.922851562 c 0
 854.486328125 287.922851562 864.271484375 275.831054688 864.271484375 260.9140625 c 2
 864.271484375 233.90625 l 2
 864.271484375 218.989257812 854.486328125 206.897460938 842.415039062 206.897460938 c 0
 830.344726562 206.897460938 820.55859375 218.989257812 820.55859375 233.90625 c 2
820.55859375 125.87109375 m 2
 820.55859375 152.879882812 l 2
 820.55859375 167.796875 830.344726562 179.888671875 842.415039062 179.888671875 c 0
 854.486328125 179.888671875 864.271484375 167.796875 864.271484375 152.879882812 c 2
 864.271484375 125.87109375 l 2
 864.271484375 110.955078125 854.486328125 98.8623046875 842.415039062 98.8623046875 c 0
 830.344726562 98.8623046875 820.55859375 110.955078125 820.55859375 125.87109375 c 2
135.724609375 449.952148438 m 2
 135.706054688 476.9609375 l 2
 135.696289062 491.876953125 145.419921875 503.979492188 157.42578125 503.9921875 c 0
 169.430664062 504.004882812 179.170898438 491.922851562 179.180664062 477.005859375 c 2
 179.19921875 449.997070312 l 2
 179.208984375 435.081054688 169.485351562 422.978515625 157.48046875 422.965820312 c 0
 145.475585938 422.953125 135.734375 435.03515625 135.724609375 449.952148438 c 2
135.797851562 341.91796875 m 2
 135.779296875 368.92578125 l 2
 135.76953125 383.842773438 145.493164062 395.9453125 157.499023438 395.958007812 c 0
 169.50390625 395.969726562 179.244140625 383.887695312 179.25390625 368.971679688 c 2
 179.272460938 341.962890625 l 2
 179.282226562 327.046875 169.55859375 314.944335938 157.553710938 314.931640625 c 0
 145.548828125 314.918945312 135.807617188 327.000976562 135.797851562 341.91796875 c 2
135.87109375 233.8828125 m 2
 135.852539062 260.891601562 l 2
 135.842773438 275.80859375 145.56640625 287.91015625 157.572265625 287.922851562 c 0
 169.577148438 287.935546875 179.317382812 275.853515625 179.327148438 260.9375 c 2
 179.345703125 233.928710938 l 2
 179.35546875 219.01171875 169.631835938 206.91015625 157.626953125 206.897460938 c 0
 145.622070312 206.884765625 135.880859375 218.966796875 135.87109375 233.8828125 c 2
135.944335938 125.848632812 m 2
 135.92578125 152.857421875 l 2
 135.916015625 167.7734375 145.639648438 179.875976562 157.645507812 179.888671875 c 0
 169.650390625 179.901367188 179.390625 167.819335938 179.400390625 152.90234375 c 2
 179.418945312 125.89453125 l 2
 179.428710938 110.977539062 169.705078125 98.875 157.700195312 98.8623046875 c 0
 145.694335938 98.8505859375 135.954101562 110.932617188 135.944335938 125.848632812 c 2
283.76953125 475.690429688 m 2
 262.974609375 496.10546875 l 2
 254.360351562 504.5625 254.232421875 518.400390625 262.688476562 527.013671875 c 0
 271.145507812 535.627929688 284.983398438 535.755859375 293.596679688 527.299804688 c 2
 314.392578125 506.883789062 l 2
 323.006835938 498.427734375 323.133789062 484.58984375 314.677734375 475.975585938 c 0
 306.221679688 467.362304688 292.383789062 467.234375 283.76953125 475.690429688 c 2
366.952148438 394.029296875 m 2
 346.15625 414.4453125 l 2
 337.54296875 422.901367188 337.415039062 436.739257812 345.87109375 445.353515625 c 0
 354.328125 453.966796875 368.166015625 454.094726562 376.779296875 445.638671875 c 2
 397.575195312 425.223632812 l 2
 406.189453125 416.766601562 406.31640625 402.928710938 397.860351562 394.315429688 c 0
 389.404296875 385.701171875 375.56640625 385.573242188 366.952148438 394.029296875 c 2
450.134765625 312.369140625 m 2
 429.338867188 332.784179688 l 2
 420.725585938 341.240234375 420.59765625 355.078125 429.053710938 363.692382812 c 0
 437.509765625 372.305664062 451.348632812 372.43359375 459.961914062 363.977539062 c 2
 480.7578125 343.5625 l 2
 489.37109375 335.106445312 489.499023438 321.267578125 481.04296875 312.654296875 c 0
 472.586914062 304.040039062 458.749023438 303.913085938 450.134765625 312.369140625 c 2
533.317382812 230.708007812 m 2
 512.521484375 251.123046875 l 2
 503.908203125 259.579101562 503.780273438 273.41796875 512.236328125 282.03125 c 0
 520.692382812 290.645507812 534.53125 290.772460938 543.14453125 282.31640625 c 2
 563.940429688 261.901367188 l 2
 572.553710938 253.4453125 572.681640625 239.607421875 564.225585938 230.993164062 c 0
 555.76953125 222.379882812 541.931640625 222.251953125 533.317382812 230.708007812 c 2
616.5 149.046875 m 2
 595.704101562 169.461914062 l 2
 587.090820312 177.918945312 586.962890625 191.756835938 595.418945312 200.370117188 c 0
 603.875 208.984375 617.712890625 209.112304688 626.327148438 200.655273438 c 2
 647.123046875 180.240234375 l 2
 655.736328125 171.784179688 655.864257812 157.946289062 647.408203125 149.33203125 c 0
 638.952148438 140.71875 625.114257812 140.590820312 616.5 149.046875 c 2
699.682617188 67.3857421875 m 2
 678.88671875 87.8017578125 l 2
 670.2734375 96.2578125 670.145507812 110.095703125 678.6015625 118.709960938 c 0
 687.057617188 127.323242188 700.895507812 127.451171875 709.509765625 118.995117188 c 2
 730.305664062 98.580078125 l 2
 738.918945312 90.123046875 739.046875 76.28515625 730.590820312 67.671875 c 0
 722.134765625 59.0576171875 708.295898438 58.9296875 699.682617188 67.3857421875 c 2
EndSplineSet
Validated: 33
EndChar

StartChar: J
Encoding: 74 74 22
Width: 1000
Flags: HW
LayerCount: 2
Fore
SplineSet
936 149 m 2
 944 143.666992188 947.665039062 138.502929688 946.998046875 133.502929688 c 0
 946.331054688 128.502929688 941.331054688 124.669921875 931.998046875 122.002929688 c 0
 869.331054688 106.669921875 815.998046875 89.669921875 771.998046875 71.0029296875 c 1
 870.998046875 -75.9970703125 l 2
 875.665039062 -83.330078125 877.165039062 -91.1630859375 875.498046875 -99.49609375 c 0
 873.831054688 -107.829101562 869.6640625 -114.329101562 862.997070312 -118.99609375 c 2
 828.997070312 -141.99609375 l 2
 822.330078125 -146.663085938 814.830078125 -148.330078125 806.497070312 -146.997070312 c 0
 798.1640625 -145.6640625 791.6640625 -141.331054688 786.997070312 -133.998046875 c 2
 687.997070312 14.001953125 l 1
 677.997070312 3.3349609375 667.330078125 -8.83203125 655.997070312 -22.4990234375 c 0
 644.6640625 -36.166015625 634.331054688 -49.166015625 624.998046875 -61.4990234375 c 2
 598.998046875 -96.4990234375 l 1
 579.998046875 -121.999023438 l 1
 572.998046875 -131.999023438 l 2
 567.665039062 -139.999023438 562.33203125 -143.33203125 556.999023438 -141.999023438 c 0
 551.666015625 -140.666015625 547.999023438 -135.333007812 545.999023438 -126 c 2
 446.999023438 408 l 2
 445.666015625 418 447.333007812 424.666992188 452 428 c 0
 456.666992188 431.333007812 463 430.333007812 471 425 c 2
 936 149 l 2
393.998046875 -25.9970703125 m 2
 407.998046875 -30.6640625 414.998046875 -40.66796875 414.998046875 -56.0009765625 c 0
 414.998046875 -64.0009765625 411.998046875 -71.0009765625 405.998046875 -77.0009765625 c 0
 399.998046875 -83.0009765625 392.665039062 -86.0009765625 383.998046875 -86.0009765625 c 2
 379.998046875 -86.0009765625 l 2
 378.665039062 -86.0009765625 376.998046875 -85.66796875 374.998046875 -85.0009765625 c 0
 286.998046875 -64.333984375 213.331054688 -19.333984375 153.998046875 49.9990234375 c 0
 85.3310546875 130.666015625 51.6640625 224.333007812 52.9970703125 331 c 0
 53.6640625 387.666992188 64.9970703125 442 86.9970703125 494 c 0
 108.997070312 544.666992188 139.330078125 589.166992188 177.997070312 627.5 c 0
 216.6640625 665.833007812 260.997070312 695.333007812 310.997070312 716 c 0
 362.997070312 737.333007812 417.1640625 747.833007812 473.497070312 747.5 c 0
 529.830078125 747.166992188 583.663085938 735.666992188 634.99609375 713 c 0
 684.329101562 691 727.99609375 660.333007812 765.99609375 621 c 0
 803.99609375 581.666992188 832.99609375 536.666992188 852.99609375 486 c 0
 869.663085938 444.666992188 879.663085938 401.666992188 882.99609375 357 c 2
 882.99609375 353 l 1
 882.99609375 352 l 2
 882.99609375 346.666992188 881.829101562 341.833984375 879.49609375 337.500976562 c 0
 877.163085938 333.16796875 873.830078125 329.500976562 869.497070312 326.500976562 c 0
 865.1640625 323.500976562 860.331054688 322.000976562 854.998046875 322.000976562 c 2
 851.998046875 322.000976562 l 1
 849.998046875 322.000976562 l 1
 848.998046875 322.000976562 l 2
 847.665039062 322.000976562 845.665039062 322.333984375 842.998046875 323.000976562 c 0
 830.998046875 327.000976562 823.998046875 335.333984375 821.998046875 348.000976562 c 2
 821.998046875 353.000976562 l 1
 821.998046875 354.000976562 l 1
 817.331054688 414.000976562 798.998046875 469.333984375 766.998046875 520.000976562 c 0
 734.998046875 570.66796875 692.998046875 610.834960938 640.998046875 640.501953125 c 0
 588.998046875 670.168945312 532.665039062 685.3359375 471.998046875 686.002929688 c 0
 407.998046875 686.669921875 348.665039062 671.169921875 293.998046875 639.502929688 c 0
 239.331054688 607.8359375 195.831054688 564.502929688 163.498046875 509.502929688 c 0
 131.165039062 454.502929688 114.665039062 394.669921875 113.998046875 330.002929688 c 0
 113.331054688 245.3359375 138.831054688 169.8359375 190.498046875 103.502929688 c 0
 242.165039062 37.169921875 307.998046875 -5.330078125 387.998046875 -23.9970703125 c 1
 393.998046875 -25.9970703125 l 2
EndSplineSet
Validated: 33
EndChar

StartChar: S
Encoding: 83 83 23
Width: 1000
Flags: HW
LayerCount: 2
Fore
SplineSet
902 572 m 1
 324 -6 l 1
 96 222 l 1
 675 800 l 1
 902 572 l 1
645 714 m 1
 616 685 l 1
 759 543 l 1
 788 571 l 1
 645 714 l 1
558 627 m 1
 530 598 l 1
 615 513 l 1
 644 542 l 1
 558 627 l 1
472 540 m 1
 443 511 l 1
 528 426 l 1
 557 455 l 1
 472 540 l 1
385 453 m 1
 356 425 l 1
 441 339 l 1
 470 368 l 1
 385 453 l 1
298 367 m 1
 269 338 l 1
 355 253 l 1
 384 281 l 1
 298 367 l 1
212 280 m 1
 183 251 l 1
 325 109 l 1
 354 138 l 1
 212 280 l 1
739 -84 m 1
 739 -37 l 1
 900 -37 l 1
 900 -199 l 1
 739 -199 l 1
 739 -152 l 1
 259 -152 l 1
 259 -192 l 1
 98 -192 l 1
 98 -31 l 1
 259 -31 l 1
 259 -84 l 1
 739 -84 l 1
207 -139 m 1
 207 -84 l 1
 153 -84 l 1
 153 -139 l 1
 207 -139 l 1
793 -91 m 1
 793 -146 l 1
 847 -146 l 1
 847 -91 l 1
 793 -91 l 1
EndSplineSet
Validated: 1
EndChar

StartChar: V
Encoding: 86 86 24
Width: 1000
VWidth: 0
Flags: H
LayerCount: 2
Fore
SplineSet
268.541015625 280.36328125 m 0
 279.701171875 275.338867188 283.802734375 263.883789062 277.706054688 254.755859375 c 0
 268.671875 241.25 263.33203125 232.26171875 263.203125 232.048828125 c 0
 259.229492188 225.314453125 250.990234375 221.37890625 242.454101562 221.37890625 c 0
 239.091796875 221.37890625 235.654296875 221.998046875 232.403320312 223.25390625 c 0
 220.965820312 227.828125 216.180664062 239.087890625 221.6875 248.46484375 c 2
 221.6875 248.46484375 227.451171875 258.201171875 237.280273438 272.862304688 c 0
 243.377929688 281.989257812 257.418945312 285.361328125 268.541015625 280.36328125 c 0
304.736328125 369.435546875 m 0
 312.625 378.091796875 326.62890625 379.208984375 335.978515625 371.857421875 c 0
 345.309570312 364.513671875 346.47265625 351.5625 338.56640625 342.869140625 c 0
 332.985351562 336.744140625 327.18359375 329.834960938 321.30859375 322.397460938 c 0
 316.984375 316.91015625 310.259765625 314.009765625 303.40625 314.009765625 c 0
 298.897460938 314.009765625 294.296875 315.293945312 290.342773438 317.954101562 c 0
 280.477539062 324.66015625 278.333984375 337.537109375 285.5390625 346.729492188 c 0
 292.005859375 354.923828125 298.471679688 362.572265625 304.736328125 369.435546875 c 0
433.161132812 412.124023438 m 2
 435.0078125 408.901367188 l 2
 439.99609375 400.087890625 438.5546875 387.634765625 431.830078125 381.11328125 c 0
 429.095703125 378.517578125 425.956054688 377.2421875 422.813476562 377.2421875 c 0
 418.158203125 377.2421875 413.576171875 380.013671875 410.620117188 385.260742188 c 2
 409.03125 388.041015625 l 2
 403.15625 398.1484375 398.51953125 399.293945312 395.543945312 399.293945312 c 0
 394.583007812 399.293945312 393.5859375 399.173828125 392.624023438 398.915039062 c 0
 384.34765625 396.928710938 376.477539062 404.004882812 374.92578125 414.767578125 c 0
 373.372070312 425.556640625 378.8046875 435.921875 387.0078125 437.935546875 c 0
 389.890625 438.627929688 392.75390625 438.998046875 395.543945312 438.998046875 c 0
 405.55859375 438.998046875 420.228515625 434.303710938 433.161132812 412.124023438 c 2
473.124023438 337.795898438 m 0
 481.012695312 326.702148438 488.791015625 315.893554688 496.939453125 305.685546875 c 0
 502.408203125 298.8203125 499.819335938 289.75 491.13671875 285.408203125 c 0
 488.0703125 283.883789062 484.633789062 283.135742188 481.251953125 283.135742188 c 0
 475.099609375 283.135742188 469.057617188 285.564453125 465.4921875 290 c 0
 456.8828125 300.798828125 448.865234375 311.9765625 440.734375 323.404296875 c 0
 435.692382812 330.48046875 438.850585938 339.421875 447.830078125 343.422851562 c 0
 456.737304688 347.385742188 468.099609375 344.86328125 473.124023438 337.795898438 c 0
649.698242188 311.208984375 m 0
 657.236328125 305.953125 658.75 296.096679688 652.989257812 289.177734375 c 0
 642.53125 276.568359375 632.18359375 265.704101562 622.20703125 256.797851562 c 0
 618.842773438 253.82421875 614.540039062 252.346679688 610.197265625 252.346679688 c 0
 605.724609375 252.346679688 601.254882812 253.934570312 597.892578125 257.075195312 c 0
 591.240234375 263.310546875 591.388671875 273.259765625 598.186523438 279.310546875 c 0
 606.926757812 287.1171875 616.181640625 296.80859375 625.568359375 308.1796875 c 0
 631.331054688 315.098632812 642.123046875 316.456054688 649.698242188 311.208984375 c 0
570.41796875 235.643554688 m 0
 582.0390625 236.890625 592.534179688 227.625 593.604492188 215.162109375 c 0
 594.65625 202.709960938 586.029296875 191.716796875 574.27734375 190.599609375 c 0
 571.580078125 190.33203125 568.90234375 190.202148438 566.259765625 190.202148438 c 0
 546.25 190.202148438 526.759765625 197.537109375 508.357421875 212.095703125 c 0
 498.8984375 219.522460938 496.940429688 233.674804688 503.9609375 243.689453125 c 0
 510.982421875 253.75 524.358398438 255.837890625 533.8359375 248.373046875 c 0
 546.25 238.590820312 557.928710938 234.516601562 570.41796875 235.643554688 c 0
706.416992188 373.325195312 m 0
 717.502929688 368.05078125 721.438476562 356.142578125 715.173828125 346.755859375 c 0
 710.038085938 339.04296875 704.698242188 331.30078125 699.395507812 323.799804688 c 0
 695.055664062 317.703125 687.423828125 314.368164062 679.590820312 314.368164062 c 0
 675.5625 314.368164062 671.479492188 315.236328125 667.764648438 317.149414062 c 0
 656.845703125 322.692382812 653.31640625 334.6640625 659.875 343.920898438 c 0
 664.958007812 351.071289062 670.112304688 358.489257812 675.044921875 365.916015625 c 0
 681.2890625 375.274414062 695.33203125 378.63671875 706.416992188 373.325195312 c 0
746.971679688 522.340820312 m 2
 758.779296875 493.915039062 l 1
 787.083984375 505.8046875 l 2
 796.098632812 509.591796875 806.482421875 505.314453125 810.271484375 496.243164062 c 0
 814.05859375 487.14453125 809.771484375 476.733398438 800.756835938 472.926757812 c 2
 772.46875 461.038085938 l 1
 784.274414062 432.61328125 l 2
 788.081054688 423.513671875 783.794921875 413.083984375 774.759765625 409.278320312 c 0
 772.543945312 408.36328125 770.234375 407.919921875 767.942382812 407.919921875 c 0
 760.99609375 407.919921875 754.418945312 412.022460938 751.573242188 418.8671875 c 2
 739.749023438 447.3203125 l 1
 711.407226562 435.412109375 l 2
 709.2265625 434.469726562 706.8984375 434.017578125 704.608398438 434.017578125 c 0
 697.6796875 434.017578125 691.083007812 438.155273438 688.275390625 444.97265625 c 0
 684.469726562 454.0546875 688.736328125 464.493164062 697.771484375 468.290039062 c 2
 726.076171875 480.198242188 l 1
 714.251953125 508.622070312 l 2
 710.482421875 517.684570312 714.75 528.133789062 723.78515625 531.920898438 c 0
 732.801757812 535.690429688 743.185546875 531.450195312 746.971679688 522.340820312 c 2
936.809570312 64.81640625 m 2
 936.809570312 52.3173828125 943.073242188 25.1767578125 905.604492188 33.6015625 c 2
 811.951171875 52.3330078125 l 1
 811.951171875 111.647460938 l 1
 874.3984375 96.0400390625 l 1
 874.3984375 595.46875 l 1
 749.540039062 626.68359375 l 1
 531.026367188 533.0390625 l 2
 523.396484375 529.639648438 507.526367188 529.8984375 499.8203125 533.0390625 c 2
 312.513671875 626.68359375 l 1
 125.243164062 564.25390625 l 1
 125.243164062 64.81640625 l 1
 312.513671875 127.24609375 l 1
 468.596679688 49.2119140625 l 1
 468.596679688 -13.2177734375 l 1
 312.513671875 64.81640625 l 1
 125.243164062 -28.828125 l 2
 116.005859375 -32.3662109375 93.7978515625 -20.005859375 85.6318359375 -14.5 c 0
 77.46484375 -9.013671875 62.794921875 -7.3505859375 62.794921875 2.3857421875 c 2
 62.794921875 564.25390625 l 2
 62.794921875 576.401367188 82.490234375 591.0625 94.0185546875 595.46875 c 2
 312.513671875 689.11328125 l 1
 499.819335938 595.46875 l 1
 718.314453125 689.11328125 l 2
 724.3203125 691.791992188 743.109375 690.610351562 749.5390625 689.11328125 c 2
 905.603515625 657.8984375 l 2
 919.221679688 654.803710938 936.809570312 640.411132812 936.809570312 626.68359375 c 2
 936.809570312 64.81640625 l 2
507.815429688 101.12890625 m 1
 777.14453125 101.12890625 l 1
 777.14453125 -91.2578125 l 1
 507.815429688 -91.2578125 l 1
 507.815429688 101.12890625 l 1
EndSplineSet
Validated: 33
EndChar

StartChar: W
Encoding: 87 87 25
Width: 1000
VWidth: 0
Flags: H
LayerCount: 2
Fore
SplineSet
832.8125 514.0625 m 1
 860.9375 340.625 l 1
 793.75 354.6875 715.625 362.5 659.375 398.4375 c 1
 804.6875 465.625 832.8125 514.0625 832.8125 514.0625 c 1
371.875 370.3125 m 2
 314.0625 254.6875 l 1
 198.4375 226.5625 l 1
 226.5625 400 l 2
 273.4375 381.25 321.875 375 371.875 370.3125 c 2
198.4375 196.875 m 1
 421.875 210.9375 l 1
 514.0625 110.9375 l 1
 350 171.875 168.75 139.0625 168.75 139.0625 c 1
 198.4375 196.875 l 1
543.75 110.9375 m 1
 554.6875 106.25 543.75 110.9375 543.75 110.9375 c 1
 457.8125 254.6875 l 1
 342.1875 254.6875 l 1
 400 370.3125 l 1
 400 370.3125 504.6875 348.4375 629.6875 398.4375 c 1
 684.375 340.625 723.4375 325 859.375 312.5 c 1
 859.375 226.5625 l 1
 773.4375 198.4375 l 1
 715.625 54.6875 l 2
 717.1875 53.125 654.6875 84.375 543.75 110.9375 c 1
946.875 139.0625 m 1
 745.3125 -4.6875 l 1
 745.3125 -4.6875 l 1
 734.375 -6.25 728.125 -4.6875 717.1875 -4.6875 c 0
 590.625 0 407.8125 78.125 256.25 81.25 c 0
 179.6875 82.8125 82.8125 53.125 82.8125 53.125 c 1
 198.4375 571.875 l 1
 256.25 600 l 1
 284.375 571.875 l 1
 226.5625 543.75 l 1
 140.625 110.9375 l 1
 401.5625 150 595.3125 14.0625 745.3125 25 c 0
 767.1875 67.1875 803.125 168.75 803.125 168.75 c 1
 918.75 168.75 l 1
 860.9375 543.75 l 1
 668.75 529.6875 284.375 571.875 284.375 571.875 c 1
 256.25 600 l 1
 256.25 600 832.8125 557.8125 889.0625 571.875 c 1
 898.4375 504.6875 946.875 139.0625 946.875 139.0625 c 1
573.4375 514.0625 m 0
 625 504.6875 692.1875 518.75 746.875 514.0625 c 1
 712.5 487.5 671.875 443.75 631.25 428.125 c 0
 593.75 456.25 545.3125 506.25 515.625 543.75 c 1
 534.375 539.0625 554.6875 517.1875 573.4375 514.0625 c 0
429.6875 485.9375 m 2
 448.4375 506.25 471.875 526.5625 487.5 543.75 c 1
 518.75 500 560.9375 460.9375 603.125 428.125 c 1
 550 409.375 489.0625 400 429.6875 400 c 0
 367.1875 400 315.625 406.25 256.25 428.125 c 2
 256.25 514.0625 l 2
 265.625 518.75 304.6875 540.625 314.0625 542.1875 c 0
 328.125 525 325 504.6875 342.1875 484.375 c 2
 400 426.5625 l 1
 429.6875 485.9375 l 2
EndSplineSet
Validated: 37
EndChar

StartChar: X
Encoding: 88 88 26
Width: 1000
VWidth: 0
Flags: H
LayerCount: 2
Fore
SplineSet
958.685546875 -181.704101562 m 2
 44.068359375 -181.704101562 l 2
 28.6220703125 -181.37890625 10.9951171875 -169.657226562 4.7216796875 -155.538085938 c 0
 2.654296875 -150.825195312 0.9765625 -142.823242188 0.9765625 -137.676757812 c 0
 0.9765625 -128.256835938 6.091796875 -114.9296875 12.39453125 -107.928710938 c 2
 714.145507812 664.056640625 l 2
 721.44921875 673.453125 737.036132812 681.079101562 748.938476562 681.079101562 c 0
 773.263671875 681.079101562 793.006835938 661.336914062 793.006835938 637.010742188 c 0
 793.006835938 626.555664062 786.849609375 612.231445312 779.264648438 605.036132812 c 2
 143.8125 -93.56640625 l 1
 958.685546875 -93.56640625 l 2
 983.01171875 -93.56640625 1002.75390625 -113.309570312 1002.75390625 -137.635742188 c 0
 1002.75390625 -161.9609375 983.01171875 -181.704101562 958.685546875 -181.704101562 c 2
805.4296875 619.791015625 m 0
 805.107421875 619.784179688 804.583007812 619.778320312 804.259765625 619.778320312 c 0
 801.407226562 619.778320312 796.819335938 620.224609375 794.01953125 620.775390625 c 0
 745.911132812 622.147460938 706.866210938 662.321289062 706.866210938 710.44921875 c 0
 706.866210938 759.969726562 747.056640625 800.16015625 796.577148438 800.16015625 c 0
 846.09765625 800.16015625 886.288085938 759.969726562 886.288085938 710.44921875 c 0
 886.288085938 710.405273438 886.288085938 710.333007812 886.288085938 710.2890625 c 0
 886.455078125 708.28515625 886.58984375 705.02734375 886.58984375 703.017578125 c 0
 886.58984375 680.260742188 872.352539062 650.026367188 854.810546875 635.530273438 c 0
 842.848632812 626.83984375 821.141601562 619.786132812 806.356445312 619.786132812 c 0
 806.100585938 619.786132812 805.685546875 619.7890625 805.4296875 619.791015625 c 0
801.888671875 653.0390625 m 0
 803.296875 652.896484375 805.587890625 652.780273438 807.002929688 652.780273438 c 0
 815.993164062 652.780273438 829.213867188 657.0390625 836.513671875 662.286132812 c 0
 845.900390625 671.80078125 853.518554688 690.370117188 853.518554688 703.736328125 c 0
 853.518554688 705.331054688 853.392578125 707.915039062 853.236328125 709.501953125 c 0
 853.236328125 709.556640625 853.236328125 709.64453125 853.236328125 709.698242188 c 0
 853.236328125 740.974609375 827.853515625 766.358398438 796.577148438 766.358398438 c 0
 765.30078125 766.358398438 739.91796875 740.974609375 739.91796875 709.698242188 c 0
 739.91796875 678.422851562 765.30078125 653.0390625 796.577148438 653.0390625 c 0
 796.631835938 653.0390625 796.719726562 653.0390625 796.7734375 653.0390625 c 0
 797.477539062 653.118164062 798.623046875 653.181640625 799.331054688 653.181640625 c 0
 800.0390625 653.181640625 801.184570312 653.118164062 801.888671875 653.0390625 c 0
1056.06933594 -200 m 0
 1055.75585938 -200.0078125 1055.24707031 -200.014648438 1054.93359375 -200.014648438 c 0
 1052.11328125 -200.014648438 1047.59765625 -199.479492188 1044.85546875 -198.819335938 c 0
 997.506835938 -196.840820312 959.079101562 -156.7734375 959.079101562 -109.383789062 c 0
 959.079101562 -59.9716796875 999.181640625 -19.869140625 1048.59375 -19.869140625 c 0
 1097.96191406 -19.869140625 1138.06445312 -59.9365234375 1138.10742188 -109.305664062 c 0
 1138.22265625 -110.975585938 1138.31640625 -113.689453125 1138.31640625 -115.36328125 c 0
 1138.31640625 -138.529296875 1123.68066406 -169.130859375 1105.64648438 -183.670898438 c 0
 1093.43652344 -192.650390625 1071.22558594 -199.965820312 1056.06933594 -200 c 0
1052.52832031 -166.751953125 m 0
 1053.69238281 -166.850585938 1055.58691406 -166.930664062 1056.75585938 -166.930664062 c 0
 1066.17675781 -166.930664062 1079.88378906 -162.267578125 1087.34960938 -156.521484375 c 0
 1096.73632812 -147.006835938 1104.35449219 -128.4375 1104.35449219 -115.072265625 c 0
 1104.35449219 -113.4765625 1104.22851562 -110.893554688 1104.07226562 -109.305664062 c 0
 1104.07226562 -78.029296875 1078.68847656 -52.646484375 1047.41308594 -52.646484375 c 0
 1016.13671875 -52.646484375 990.75390625 -78.029296875 990.75390625 -109.305664062 c 0
 990.75390625 -140.58203125 1016.13671875 -165.96484375 1047.41308594 -165.96484375 c 0
 1047.50878906 -165.962890625 1047.66503906 -165.9609375 1047.76171875 -165.9609375 c 0
 1049.11328125 -165.9609375 1051.24902344 -166.315429688 1052.52832031 -166.751953125 c 0
627.975585938 -58.3515625 m 0
 627.354492188 -58.4365234375 626.340820312 -58.5048828125 625.712890625 -58.5048828125 c 0
 625.0859375 -58.5048828125 624.072265625 -58.4365234375 623.451171875 -58.3515625 c 0
 613.977539062 -56.2744140625 606.290039062 -46.71875 606.290039062 -37.0205078125 c 0
 606.290039062 -35.556640625 606.57421875 -33.2138671875 606.924804688 -31.7919921875 c 0
 646.271484375 156.875976562 502.065429688 199.9609375 495.966796875 201.534179688 c 0
 487.091796875 204.041015625 479.888671875 213.559570312 479.888671875 222.782226562 c 0
 479.888671875 234.96875 489.780273438 244.860351562 501.967773438 244.860351562 c 0
 503.655273438 244.860351562 506.34375 244.48828125 507.967773438 244.029296875 c 0
 509.935546875 244.029296875 697.81640625 187.56640625 650.009765625 -40.6455078125 c 0
 648.053710938 -50.4208984375 638.374023438 -58.35546875 628.404296875 -58.35546875 c 0
 628.286132812 -58.35546875 628.09375 -58.353515625 627.975585938 -58.3515625 c 0
EndSplineSet
Validated: 37
EndChar

StartChar: Y
Encoding: 89 89 27
Width: 1000
VWidth: 0
Flags: H
LayerCount: 2
Fore
SplineSet
729.6875 92.1884765625 m 2
 729.686523438 92.1884765625 l 1
 848.436523438 68.75 921.874023438 29.6875 921.874023438 -28.125 c 0
 921.874023438 -115.625976562 734.374023438 -168.75 499.999023438 -168.75 c 0
 265.624023438 -168.75 78.1240234375 -115.625976562 78.1240234375 -28.125 c 0
 78.1240234375 28.125 146.873046875 65.625 257.811523438 89.0625 c 0
 274.999023438 93.75 292.186523438 82.8125 293.749023438 65.625 c 0
 298.436523438 48.4375 287.499023438 31.25 270.311523438 28.125 c 0
 189.061523438 10.9375 140.624023438 -15.625 140.624023438 -28.125 c 0
 140.624023438 -31.25 145.311523438 -35.9375 159.374023438 -45.3115234375 c 0
 176.5625 -56.25 201.561523438 -67.1875 234.374023438 -76.5625 c 0
 303.124023438 -96.8759765625 399.998046875 -107.813476562 501.561523438 -107.813476562 c 0
 603.124023438 -107.813476562 698.436523438 -96.875 768.749023438 -76.5625 c 0
 801.561523438 -67.1875 826.561523438 -56.2490234375 843.749023438 -45.3115234375 c 0
 856.249023438 -35.9375 860.936523438 -31.25 860.936523438 -28.125 c 0
 860.936523438 -14.0625 807.811523438 14.0625 718.75 31.25 c 0
 701.5625 34.375 690.624023438 50.0009765625 693.75 67.1884765625 c 0
 696.875 84.375 712.5 95.3134765625 729.6875 92.1884765625 c 2
263.454101562 332.916992188 m 1
 263.452148438 332.916992188 l 1
 263.907226562 332.916992188 l 1
 234.916992188 377.263671875 218.106445312 430.0625 218.106445312 486.94921875 c 0
 218.106445312 642.525390625 344.330078125 768.75 499.998046875 768.75 c 0
 655.665039062 768.75 781.889648438 642.525390625 781.889648438 486.94921875 c 0
 781.889648438 430.060546875 764.987304688 377.263671875 735.999023438 332.916992188 c 1
 736.543945312 332.916992188 l 1
 525.26171875 -4.681640625 l 2
 520.627929688 -13.951171875 511.083984375 -20.3115234375 499.999023438 -20.3115234375 c 0
 488.912109375 -20.3115234375 479.279296875 -13.951171875 474.735351562 -4.681640625 c 2
 263.454101562 332.916992188 l 1
500 615.444335938 m 0
 429.026367188 615.444335938 371.502929688 557.921875 371.502929688 486.94921875 c 0
 371.502929688 415.9765625 429.026367188 358.453125 500 358.453125 c 0
 570.97265625 358.453125 628.49609375 415.974609375 628.49609375 486.948242188 c 0
 628.49609375 557.921875 570.97265625 615.444335938 500 615.444335938 c 0
EndSplineSet
Validated: 37
EndChar

StartChar: Z
Encoding: 90 90 28
Width: 1000
Flags: HW
LayerCount: 2
Fore
SplineSet
689 109 m 1
 275 109 l 1
 275 523 l 1
 723 523 l 1
 723 109 l 1
 689 109 l 1
689 144 m 1
 689 328 l 1
 474 144 l 1
 689 144 l 1
689 351 m 1
 689 465 l 1
 335 144 l 1
 447 144 l 1
 436 157 l 1
 677 364 l 1
 689 351 l 1
309 489 m 1
 309 339 l 1
 489 489 l 1
 309 489 l 1
309 316 m 1
 309 167 l 1
 663 489 l 1
 516 489 l 1
 527 475 l 1
 320 303 l 1
 309 316 l 1
930 -11 m 1
 792 -98 l 1
 792 -29 l 1
 137 -29 l 1
 137 558 l 1
 68 558 l 1
 154 696 l 1
 240 558 l 1
 171 558 l 1
 171 6 l 1
 792 6 l 1
 792 75 l 1
 930 -11 l 1
EndSplineSet
Validated: 1
EndChar

StartChar: bracketleft
Encoding: 91 91 29
Width: 1000
Flags: HW
LayerCount: 2
Fore
SplineSet
1006 380 m 0
 976 380 949.166992188 369.5 925.5 348.5 c 0
 901.833007812 327.5 888 302.333007812 884 273 c 1
 1006 273 l 2
 1010.66699219 273 1014.66699219 271.333007812 1018 268 c 0
 1021.33300781 264.666992188 1023 260.666992188 1023 256 c 2
 1023 18 l 2
 1023 13.3330078125 1021.33300781 9.3330078125 1018 6 c 0
 1014.66699219 2.6669921875 1010.66699219 1 1006 1 c 2
 229 1 l 2
 224.333007812 1 220.333007812 2.6669921875 217 6 c 0
 213.666992188 9.3330078125 212 13.3330078125 212 18 c 2
 212 599 l 2
 212 603.666992188 213.666992188 607.666992188 217 611 c 0
 220.333007812 614.333007812 224.333007812 616 229 616 c 2
 1006 616 l 2
 1010.66699219 616 1014.66699219 614.333007812 1018 611 c 0
 1021.33300781 607.666992188 1023 603.666992188 1023 599 c 2
 1023 397 l 2
 1023 392.333007812 1021.33300781 388.333007812 1018 385 c 0
 1014.66699219 381.666992188 1010.66699219 380 1006 380 c 0
969 579 m 1
 969 558 l 1
 990 558 l 1
 990 579 l 1
 969 579 l 1
246 579 m 1
 246 558 l 1
 267 558 l 1
 267 579 l 1
 246 579 l 1
246 524 m 1
 246.000976562 332.000976562 l 1
 302.000976562 332.000976562 l 1
 302.000976562 456.000976562 l 2
 302.000976562 460.66796875 303.66796875 464.66796875 307.000976562 468.000976562 c 0
 310.333984375 471.333984375 314.333984375 473.000976562 319.000976562 473.000976562 c 0
 358.333984375 473.000976562 393.166992188 459.16796875 423.5 431.500976562 c 0
 453.833007812 403.833984375 471 370.666992188 475 332 c 1
 736 332 l 1
 736 582 l 1
 300 582 l 1
 300 541 l 2
 300 536.333007812 298.333007812 532.333007812 295 529 c 0
 291.666992188 525.666992188 287.666992188 524 283 524 c 2
 246 524 l 1
267.000976562 36.0009765625 m 1
 267.000976562 58.0009765625 l 1
 246.000976562 58.0009765625 l 1
 246.000976562 36.0009765625 l 1
 267.000976562 36.0009765625 l 1
737.000976562 34.0009765625 m 1
 736.000976562 75.0009765625 l 1
 613.000976562 75.0009765625 l 2
 608.333984375 75.0009765625 604.333984375 76.66796875 601.000976562 80.0009765625 c 0
 597.66796875 83.333984375 596.000976562 87.333984375 596.000976562 92.0009765625 c 2
 596.000976562 93.0009765625 l 2
 596.000976562 112.333984375 601.000976562 133.500976562 611.000976562 156.500976562 c 0
 621.000976562 179.500976562 633.333984375 197.333984375 648.000976562 210.000976562 c 0
 658.000976562 219.333984375 671.66796875 227.833984375 689.000976562 235.500976562 c 0
 706.333984375 243.16796875 722.000976562 248.000976562 736.000976562 250.000976562 c 1
 736.000976562 298.000976562 l 1
 459.000976562 298.000976562 l 1
 458.000976562 298.000976562 l 2
 454.000976562 298.000976562 450.333984375 299.66796875 447.000976562 303.000976562 c 0
 443.66796875 306.333984375 442.000976562 310.333984375 442.000976562 315.000976562 c 1
 442.000976562 315.000976562 l 1
 442.000976562 344.333984375 431.66796875 371.000976562 411.000976562 395.000976562 c 0
 390.333984375 419.000976562 365.333984375 433.333984375 336.000976562 438.000976562 c 1
 336.000976562 315.000976562 l 2
 336.000976562 310.333984375 334.333984375 306.333984375 331.000976562 303.000976562 c 0
 327.66796875 299.66796875 323.66796875 298.000976562 319.000976562 298.000976562 c 2
 246.000976562 298.000976562 l 1
 246.000976562 92.0009765625 l 1
 283.000976562 92.0009765625 l 2
 287.66796875 92.0009765625 291.66796875 90.333984375 295.000976562 87.0009765625 c 0
 298.333984375 83.66796875 300.000976562 79.66796875 300.000976562 75.0009765625 c 2
 300.000976562 34.0009765625 l 1
 737.000976562 34.0009765625 l 1
990.000976562 36.0009765625 m 1
 990.000976562 58.0009765625 l 1
 969.000976562 58.0009765625 l 1
 969.000976562 36.0009765625 l 1
 990.000976562 36.0009765625 l 1
849.000976562 256.000976562 m 0
 849.000976562 295.333984375 862.669921875 330.171875 890.002929688 360.504882812 c 0
 917.3359375 390.837890625 950.3359375 408.337890625 989.002929688 413.004882812 c 1
 989.002929688 525.004882812 l 1
 952.002929688 525.004882812 l 2
 947.3359375 525.004882812 943.3359375 526.671875 940.002929688 530.004882812 c 0
 936.669921875 533.337890625 935.002929688 537.337890625 935.002929688 542.004882812 c 2
 935.002929688 582.004882812 l 1
 770.002929688 582.004882812 l 1
 770.002929688 232.004882812 l 2
 770.002929688 229.337890625 769.169921875 226.670898438 767.502929688 224.00390625 c 0
 765.8359375 221.336914062 763.668945312 219.169921875 761.001953125 217.502929688 c 0
 758.334960938 215.8359375 755.66796875 215.002929688 753.000976562 215.002929688 c 0
 723.66796875 215.002929688 697.000976562 204.669921875 673.000976562 184.002929688 c 0
 649.000976562 163.3359375 635.000976562 138.668945312 631.000976562 110.001953125 c 1
 753.000976562 110.001953125 l 2
 757.66796875 110.001953125 761.66796875 108.168945312 765.000976562 104.501953125 c 0
 768.333984375 100.834960938 770.000976562 96.66796875 770.000976562 92.0009765625 c 2
 770.000976562 34.0009765625 l 1
 935.000976562 34.0009765625 l 1
 935.000976562 74.0009765625 l 2
 935.000976562 78.66796875 936.66796875 82.66796875 940.000976562 86.0009765625 c 0
 943.333984375 89.333984375 947.333984375 91.0009765625 952.000976562 91.0009765625 c 2
 989.000976562 91.0009765625 l 1
 989.000976562 239.000976562 l 1
 866.000976562 239.000976562 l 2
 861.333984375 239.000976562 857.333984375 240.66796875 854.000976562 244.000976562 c 0
 850.66796875 247.333984375 849.000976562 251.333984375 849.000976562 256.000976562 c 0
226.002929688 -143.994140625 m 2
 230.669921875 -143.994140625 234.836914062 -145.66015625 238.50390625 -148.993164062 c 0
 242.170898438 -152.326171875 244.00390625 -156.493164062 244.00390625 -161.493164062 c 0
 244.00390625 -166.493164062 242.170898438 -170.66015625 238.50390625 -173.993164062 c 0
 234.836914062 -177.326171875 230.669921875 -178.993164062 226.002929688 -178.993164062 c 2
 38.0029296875 -178.993164062 l 2
 33.3359375 -178.993164062 29.3359375 -177.326171875 26.0029296875 -173.993164062 c 0
 22.669921875 -170.66015625 21.0029296875 -166.327148438 21.0029296875 -160.994140625 c 2
 21.0029296875 762.005859375 l 2
 21.0029296875 766.672851562 22.669921875 770.672851562 26.0029296875 774.005859375 c 0
 29.3359375 777.338867188 33.3359375 779.005859375 38.0029296875 779.005859375 c 2
 808.002929688 779.005859375 l 2
 812.669921875 779.005859375 816.669921875 777.338867188 820.002929688 774.005859375 c 0
 823.3359375 770.672851562 825.002929688 766.505859375 825.002929688 761.505859375 c 0
 825.002929688 756.505859375 823.3359375 752.338867188 820.002929688 749.005859375 c 0
 816.669921875 745.672851562 812.669921875 744.005859375 808.002929688 744.005859375 c 2
 57.0029296875 744.005859375 l 1
 57.0029296875 -143.994140625 l 1
 226.002929688 -143.994140625 l 2
226.002929688 -199.993164062 m 2
 38.0029296875 -199.98828125 l 2
 28.0029296875 -199.98828125 19.169921875 -196.155273438 11.5029296875 -188.48828125 c 0
 3.8359375 -180.821289062 0.0029296875 -171.98828125 0.0029296875 -161.98828125 c 2
 0.0029296875 -160.98828125 l 1
 0.0029296875 761.01171875 l 1
 0.0029296875 762.01171875 l 2
 0.0029296875 772.01171875 3.8359375 780.844726562 11.5029296875 788.51171875 c 0
 19.169921875 796.178710938 28.0029296875 800.01171875 38.0029296875 800.01171875 c 2
 808.002929688 800.01171875 l 2
 818.002929688 799.344726562 826.502929688 795.177734375 833.502929688 787.510742188 c 0
 840.502929688 779.84375 844.002929688 771.176757812 844.002929688 761.509765625 c 0
 844.002929688 751.842773438 840.502929688 743.17578125 833.502929688 735.508789062 c 0
 826.502929688 727.841796875 818.002929688 723.674804688 808.002929688 723.0078125 c 2
 77.0029296875 723.0078125 l 1
 77.0029296875 -122.9921875 l 1
 226.002929688 -122.9921875 l 2
 236.669921875 -122.9921875 245.836914062 -126.825195312 253.50390625 -134.4921875 c 0
 261.170898438 -142.159179688 265.00390625 -151.326171875 265.00390625 -161.993164062 c 0
 265.00390625 -172.66015625 261.170898438 -181.66015625 253.50390625 -188.993164062 c 0
 245.836914062 -196.326171875 236.669921875 -199.993164062 226.002929688 -199.993164062 c 2
1194.00292969 779.01171875 m 2
 1198.66992188 779.01171875 1202.83691406 777.34375 1206.50390625 774.010742188 c 0
 1210.17089844 770.677734375 1212.00390625 766.344726562 1212.00390625 761.01171875 c 2
 1212.00390625 -161.98828125 l 2
 1212.00390625 -166.655273438 1210.17089844 -170.655273438 1206.50390625 -173.98828125 c 0
 1202.83691406 -177.321289062 1198.66992188 -178.98828125 1194.00292969 -178.98828125 c 2
 406.002929688 -178.98828125 l 2
 401.3359375 -178.98828125 397.168945312 -177.321289062 393.501953125 -173.98828125 c 0
 389.834960938 -170.655273438 388.001953125 -166.48828125 388.001953125 -161.48828125 c 0
 388.001953125 -156.48828125 389.834960938 -152.321289062 393.501953125 -148.98828125 c 0
 397.168945312 -145.655273438 401.3359375 -143.98828125 406.002929688 -143.98828125 c 2
 1177.00292969 -143.98828125 l 1
 1177.00292969 744.01171875 l 1
 969.002929688 744.01171875 l 2
 963.669921875 744.01171875 959.336914062 745.678710938 956.00390625 749.01171875 c 0
 952.670898438 752.344726562 951.00390625 756.51171875 951.00390625 761.51171875 c 0
 951.00390625 766.51171875 952.670898438 770.678710938 956.00390625 774.01171875 c 0
 959.336914062 777.344726562 963.669921875 779.01171875 969.002929688 779.01171875 c 2
 1194.00292969 779.01171875 l 2
1194.00292969 -199.989257812 m 2
 406.002929688 -199.991210938 l 2
 395.3359375 -199.991210938 386.168945312 -196.158203125 378.501953125 -188.491210938 c 0
 370.834960938 -180.82421875 367.001953125 -171.657226562 367.001953125 -160.990234375 c 0
 367.001953125 -150.323242188 370.834960938 -141.323242188 378.501953125 -133.990234375 c 0
 386.168945312 -126.657226562 395.3359375 -122.990234375 406.002929688 -122.990234375 c 2
 1155.00292969 -122.990234375 l 1
 1155.00292969 723.009765625 l 1
 969.002929688 723.009765625 l 2
 959.002929688 723.676757812 950.502929688 727.84375 943.502929688 735.510742188 c 0
 936.502929688 743.177734375 933.002929688 752.010742188 933.002929688 762.010742188 c 0
 933.002929688 768.010742188 934.502929688 774.010742188 937.502929688 780.010742188 c 0
 940.502929688 786.010742188 944.8359375 790.677734375 950.502929688 794.010742188 c 0
 956.169921875 797.34375 962.336914062 799.34375 969.00390625 800.010742188 c 2
 1194.00390625 800.010742188 l 2
 1200.67089844 800.010742188 1207.00390625 798.34375 1213.00390625 795.010742188 c 0
 1219.00390625 791.677734375 1223.67089844 787.010742188 1227.00390625 781.010742188 c 0
 1230.33691406 775.010742188 1232.33691406 768.677734375 1233.00390625 762.010742188 c 2
 1233.00390625 -160.989257812 l 2
 1233.00390625 -168.322265625 1231.17089844 -174.989257812 1227.50390625 -180.989257812 c 0
 1223.83691406 -186.989257812 1219.16992188 -191.65625 1213.50292969 -194.989257812 c 0
 1207.8359375 -198.322265625 1201.3359375 -199.989257812 1194.00292969 -199.989257812 c 2
EndSplineSet
Validated: 9
EndChar

StartChar: backslash
Encoding: 92 92 30
Width: 1000
Flags: HW
LayerCount: 2
Fore
SplineSet
191 260 m 1
 193 248 195.333007812 236.333007812 198 225 c 1
 159 216 l 1
 155.666992188 229.333007812 153 243 151 257 c 1
 173 260 l 1
 95 260 l 2
 83.6669921875 260 74.1669921875 263.833007812 66.5 271.5 c 0
 58.8330078125 279.166992188 55 288.666992188 55 300 c 0
 55 311.333007812 58.8330078125 320.833007812 66.5 328.5 c 0
 74.1669921875 336.166992188 83.6669921875 340 95 340 c 2
 151 340 l 1
 151 341 l 1
 151 342 l 1
 168 340 l 1
 225 340 l 2
 235.666992188 340 245 336.166992188 253 328.5 c 0
 261 320.833007812 265 311.333007812 265 300 c 0
 265 292.666992188 263.166992188 286 259.5 280 c 0
 255.833007812 274 251 269.166992188 245 265.5 c 0
 239 261.833007812 232.333007812 260 225 260 c 2
 191 260 l 1
224 155 m 1
 189.000976562 135.999023438 l 1
 182.333984375 148.666015625 176.666992188 161.666015625 172 174.999023438 c 1
 209 188.999023438 l 1
 213.666992188 177.666015625 218.666992188 166.333007812 224 155 c 1
337.000976562 -11.0009765625 m 1
 356.000976562 23.9990234375 l 1
 366.66796875 18.666015625 378.000976562 13.666015625 390.000976562 8.9990234375 c 1
 376.000976562 -29.0009765625 l 1
 362.66796875 -23.66796875 349.66796875 -17.66796875 337.000976562 -11.0009765625 c 1
209.000976562 409.999023438 m 1
 204.333984375 397.999023438 200.66796875 386 198.000976562 374 c 1
 159.000976562 384 l 1
 162.333984375 397.333007812 166.333984375 410.666015625 171.000976562 423.999023438 c 1
 209.000976562 409.999023438 l 1
355.001953125 575 m 1
 343.668945312 569.666992188 333.001953125 563.333007812 323.001953125 556 c 1
 300.001953125 589 l 1
 312.001953125 597 324.001953125 604.333007812 336.001953125 611 c 1
 355.001953125 575 l 1
224.001953125 443.999023438 m 1
 189.001953125 462.999023438 l 1
 195.668945312 475.666015625 203.001953125 487.666015625 211.001953125 498.999023438 c 1
 244.001953125 476.999023438 l 1
 236.668945312 466.33203125 230.001953125 455.33203125 224.001953125 443.999023438 c 1
425.001953125 601.999023438 m 1
 413.001953125 599.33203125 401.002929688 595.666992188 389.002929688 591 c 1
 375.002929688 628 l 1
 388.3359375 633.333007812 401.668945312 637.666015625 415.001953125 640.999023438 c 1
 425.001953125 601.999023438 l 1
540.002929688 -27.9990234375 m 1
 542.00390625 -48.9990234375 l 1
 541.00390625 -48.9990234375 l 1
 540.00390625 -48.9990234375 l 1
 540.00390625 -104.999023438 l 2
 540.00390625 -116.33203125 536.170898438 -125.83203125 528.50390625 -133.499023438 c 0
 520.836914062 -141.166015625 511.336914062 -144.999023438 500.00390625 -144.999023438 c 0
 488.670898438 -144.999023438 479.170898438 -141.166015625 471.50390625 -133.499023438 c 0
 463.836914062 -125.83203125 460.00390625 -116.33203125 460.00390625 -104.999023438 c 2
 460.00390625 -30.9990234375 l 1
 458.00390625 -48.9990234375 l 1
 444.00390625 -46.9990234375 430.00390625 -44.33203125 416.00390625 -40.9990234375 c 1
 426.00390625 -1.9990234375 l 1
 437.336914062 -4.666015625 448.669921875 -6.9990234375 460.002929688 -8.9990234375 c 1
 460.002929688 25.0009765625 l 2
 460.002929688 35.66796875 463.8359375 45.0009765625 471.502929688 53.0009765625 c 0
 479.169921875 61.0009765625 488.669921875 65.0009765625 500.002929688 65.0009765625 c 0
 511.3359375 65.0009765625 520.8359375 61.0009765625 528.502929688 53.0009765625 c 0
 536.169921875 45.0009765625 540.002929688 35.66796875 540.002929688 25.0009765625 c 2
 540.002929688 -27.9990234375 l 1
775.00390625 445.000976562 m 1
 811.002929688 464.001953125 l 1
 817.669921875 451.334960938 823.336914062 438.334960938 828.00390625 425.001953125 c 1
 791.00390625 411.001953125 l 1
 786.336914062 422.334960938 781.00390625 433.66796875 775.00390625 445.000976562 c 1
776.002929688 155.001953125 m 1
 811.002929688 137.000976562 l 1
 804.3359375 124.333984375 797.002929688 112.000976562 789.002929688 100.000976562 c 1
 756.002929688 123.000976562 l 1
 763.3359375 133.66796875 770.002929688 144.334960938 776.002929688 155.001953125 c 1
791.002929688 190.000976562 m 1
 795.669921875 201.333984375 799.334960938 213.333984375 802.001953125 226.000976562 c 1
 841.001953125 216.000976562 l 1
 837.668945312 202.000976562 833.3359375 188.333984375 828.002929688 175.000976562 c 1
 791.002929688 190.000976562 l 1
645.000976562 24.0009765625 m 1
 655.66796875 30.0009765625 666.333984375 36.66796875 677.000976562 44.0009765625 c 1
 700.000976562 11.0009765625 l 1
 688.000976562 3.0009765625 675.66796875 -4.33203125 663.000976562 -10.9990234375 c 1
 645.000976562 24.0009765625 l 1
542 649.000976562 m 1
 556 647.000976562 569.999023438 644.333984375 583.999023438 641.000976562 c 1
 573.999023438 602.000976562 l 1
 562.666015625 604.66796875 551.333007812 607.000976562 540 609.000976562 c 1
 540 575.000976562 l 2
 540 564.333984375 536.166992188 555.000976562 528.5 547.000976562 c 0
 520.833007812 539.000976562 511.333007812 535.000976562 500 535.000976562 c 0
 488.666992188 535.000976562 479.166992188 539.000976562 471.5 547.000976562 c 0
 463.833007812 555.000976562 460 564.333984375 460 575.000976562 c 2
 460 625.000976562 l 1
 457 649.000976562 l 1
 460 649.000976562 l 1
 460 705.000976562 l 2
 460 712.333984375 461.833007812 719.000976562 465.5 725.000976562 c 0
 469.166992188 731.000976562 474 735.833984375 480 739.500976562 c 0
 486 743.16796875 492.666992188 745.000976562 500 745.000976562 c 0
 511.333007812 745.000976562 520.833007812 741.16796875 528.5 733.500976562 c 0
 536.166992188 725.833984375 540 716.333984375 540 705.000976562 c 2
 540 633.000976562 l 1
 542 649.000976562 l 1
574.999023438 -1.9990234375 m 1
 586.999023438 0.66796875 598.666015625 4.3330078125 609.999023438 9 c 1
 624.999023438 -28 l 1
 611.666015625 -33.3330078125 597.999023438 -37.666015625 583.999023438 -40.9990234375 c 1
 574.999023438 -1.9990234375 l 1
623.999023438 628.999023438 m 1
 637.33203125 623.666015625 650.33203125 617.666015625 662.999023438 610.999023438 c 1
 643.999023438 575.999023438 l 1
 633.33203125 581.999023438 621.999023438 586.999023438 609.999023438 590.999023438 c 1
 623.999023438 628.999023438 l 1
276.999023438 465.999023438 m 2
 184.999023438 557.999023438 l 2
 177.666015625 565.999023438 173.999023438 575.499023438 173.999023438 586.499023438 c 0
 173.999023438 597.499023438 177.83203125 606.83203125 185.499023438 614.499023438 c 0
 193.166015625 622.166015625 202.499023438 625.999023438 213.499023438 625.999023438 c 0
 224.499023438 625.999023438 233.999023438 622.33203125 241.999023438 614.999023438 c 2
 333.999023438 522.999023438 l 2
 341.33203125 514.999023438 344.999023438 505.499023438 344.999023438 494.499023438 c 0
 344.999023438 483.499023438 341.166015625 474.166015625 333.499023438 466.499023438 c 0
 325.83203125 458.83203125 316.499023438 454.999023438 305.499023438 454.999023438 c 0
 294.499023438 454.999023438 284.999023438 458.666015625 276.999023438 465.999023438 c 2
333.499023438 133.499023438 m 0
 341.166015625 125.83203125 344.999023438 116.498046875 344.999023438 105.498046875 c 0
 344.999023438 94.498046875 341.33203125 84.998046875 333.999023438 76.998046875 c 2
 309.999023438 52.998046875 l 1
 322.999023438 43.998046875 l 1
 300.999023438 10.998046875 l 1
 294.33203125 15.6650390625 287.999023438 20.33203125 281.999023438 24.9990234375 c 1
 241.999023438 -15.0009765625 l 2
 233.999023438 -22.333984375 224.499023438 -26.0009765625 213.499023438 -26.0009765625 c 0
 202.499023438 -26.0009765625 193.166015625 -22.16796875 185.499023438 -14.5009765625 c 0
 177.83203125 -6.833984375 173.999023438 2.4990234375 173.999023438 13.4990234375 c 0
 173.999023438 24.4990234375 177.666015625 33.9990234375 184.999023438 41.9990234375 c 2
 224.999023438 81.9990234375 l 1
 210.999023438 99.9990234375 l 1
 243.999023438 122.999023438 l 1
 252.999023438 109.999023438 l 1
 276.999023438 133.999023438 l 2
 284.999023438 141.33203125 294.499023438 144.999023438 305.499023438 144.999023438 c 0
 316.499023438 144.999023438 325.83203125 141.166015625 333.499023438 133.499023438 c 0
722.999023438 133.998046875 m 2
 814.999023438 41.998046875 l 2
 822.33203125 33.998046875 825.999023438 24.498046875 825.999023438 13.498046875 c 0
 825.999023438 2.498046875 822.166015625 -6.8349609375 814.499023438 -14.501953125 c 0
 806.83203125 -22.1689453125 797.499023438 -26.001953125 786.499023438 -26.001953125 c 0
 775.499023438 -26.001953125 765.999023438 -22.3349609375 757.999023438 -15.001953125 c 2
 665.999023438 76.998046875 l 2
 658.666015625 84.998046875 654.999023438 94.498046875 654.999023438 105.498046875 c 0
 654.999023438 116.498046875 658.83203125 125.831054688 666.499023438 133.498046875 c 0
 674.166015625 141.165039062 683.499023438 144.998046875 694.499023438 144.998046875 c 0
 705.499023438 144.998046875 714.999023438 141.331054688 722.999023438 133.998046875 c 2
904.999023438 339.998046875 m 2
 916.33203125 339.998046875 925.83203125 336.165039062 933.499023438 328.498046875 c 0
 941.166015625 320.831054688 944.999023438 311.331054688 944.999023438 299.998046875 c 0
 944.999023438 288.665039062 941.166015625 279.165039062 933.499023438 271.498046875 c 0
 925.83203125 263.831054688 916.33203125 259.998046875 904.999023438 259.998046875 c 2
 848.999023438 259.998046875 l 1
 848.999023438 258.998046875 l 1
 848.999023438 257.998046875 l 1
 828.999023438 259.998046875 l 1
 774.999023438 259.998046875 l 2
 764.33203125 259.998046875 754.999023438 263.831054688 746.999023438 271.498046875 c 0
 738.999023438 279.165039062 734.999023438 288.665039062 734.999023438 299.998046875 c 0
 734.999023438 311.331054688 738.999023438 320.831054688 746.999023438 328.498046875 c 0
 754.999023438 336.165039062 764.33203125 339.998046875 774.999023438 339.998046875 c 2
 808.999023438 339.998046875 l 1
 806.999023438 351.998046875 804.666015625 363.665039062 801.999023438 374.998046875 c 1
 840.999023438 384.998046875 l 1
 844.33203125 370.998046875 846.999023438 356.998046875 848.999023438 342.998046875 c 1
 823.999023438 339.998046875 l 1
 904.999023438 339.998046875 l 2
666.499023438 466.498046875 m 0
 658.83203125 474.165039062 655 483.498046875 655 494.498046875 c 0
 655 505.498046875 658.666992188 514.998046875 666 522.998046875 c 2
 690 546.998046875 l 1
 685.333007812 550.331054688 680.666015625 553.331054688 675.999023438 555.998046875 c 1
 698.999023438 588.998046875 l 1
 705.666015625 584.998046875 711.999023438 580.331054688 717.999023438 574.998046875 c 1
 757.999023438 614.998046875 l 2
 765.999023438 622.331054688 775.499023438 625.998046875 786.499023438 625.998046875 c 0
 797.499023438 625.998046875 806.83203125 622.165039062 814.499023438 614.498046875 c 0
 822.166015625 606.831054688 825.999023438 597.498046875 825.999023438 586.498046875 c 0
 825.999023438 575.498046875 822.33203125 565.998046875 814.999023438 557.998046875 c 2
 774.999023438 517.998046875 l 1
 788.999023438 499.998046875 l 1
 755.999023438 476.998046875 l 1
 746.999023438 489.998046875 l 1
 722.999023438 465.998046875 l 2
 714.999023438 458.665039062 705.499023438 454.998046875 694.499023438 454.998046875 c 0
 683.499023438 454.998046875 674.166015625 458.831054688 666.499023438 466.498046875 c 0
EndSplineSet
Validated: 1
EndChar

StartChar: bracketright
Encoding: 93 93 31
Width: 1000
Flags: H
LayerCount: 2
Fore
SplineSet
110.02734375 526.272460938 m 1
 110.02734375 526.272460938 153.2734375 547.368164062 187.026367188 547.368164062 c 0
 219.725585938 547.368164062 279.848632812 519.944335938 294.616210938 518.888671875 c 0
 308.327148438 517.833984375 374.780273438 547.368164062 402.205078125 547.368164062 c 0
 430.684570312 547.368164062 478.150390625 520.998046875 500.301757812 518.888671875 c 0
 522.452148438 516.779296875 566.752929688 545.258789062 603.669921875 547.368164062 c 0
 640.587890625 549.477539062 669.068359375 518.888671875 696.4921875 518.888671875 c 0
 723.916992188 518.888671875 770.328125 547.368164062 814.629882812 547.368164062 c 0
 857.875976562 548.422851562 882.137695312 518.888671875 903.233398438 524.163085938 c 1
 905.341796875 510.450195312 903.233398438 461.930664062 903.233398438 461.930664062 c 1
 903.233398438 461.930664062 836.780273438 493.575195312 815.685546875 492.51953125 c 0
 794.58984375 491.46484375 739.740234375 461.930664062 711.260742188 461.930664062 c 0
 682.78125 461.930664062 639.53515625 480.916992188 613.165039062 480.916992188 c 0
 586.794921875 480.916992188 534.055664062 454.546875 506.630859375 455.6015625 c 0
 480.260742188 456.657226562 445.452148438 479.862304688 412.754882812 479.862304688 c 0
 380.056640625 479.862304688 336.809570312 454.546875 306.220703125 455.6015625 c 0
 275.631835938 456.657226562 256.645507812 481.971679688 215.508789062 479.862304688 c 0
 174.37109375 477.752929688 117.413085938 452.4375 110.029296875 455.6015625 c 1
 110.02734375 477.752929688 110.02734375 526.272460938 110.02734375 526.272460938 c 1
 110.02734375 526.272460938 l 1
110.02734375 404.971679688 m 1
 110.02734375 404.971679688 153.2734375 426.067382812 187.026367188 426.067382812 c 0
 219.725585938 426.067382812 279.848632812 398.643554688 294.616210938 397.587890625 c 0
 308.327148438 396.532226562 374.780273438 426.067382812 402.205078125 426.067382812 c 0
 430.684570312 426.067382812 478.150390625 399.697265625 500.301757812 397.587890625 c 0
 522.452148438 395.478515625 566.752929688 423.958007812 603.669921875 426.067382812 c 0
 640.587890625 428.176757812 669.068359375 397.587890625 696.4921875 397.587890625 c 0
 723.916992188 397.587890625 770.328125 425.012695312 814.629882812 426.067382812 c 0
 857.875976562 427.123046875 882.137695312 397.587890625 903.233398438 402.862304688 c 1
 905.341796875 389.149414062 903.233398438 340.629882812 903.233398438 340.629882812 c 1
 903.233398438 340.629882812 836.780273438 372.2734375 815.685546875 371.21875 c 0
 794.58984375 370.163085938 739.740234375 340.629882812 711.260742188 340.629882812 c 0
 682.78125 340.629882812 639.53515625 359.615234375 613.165039062 359.615234375 c 0
 586.794921875 359.615234375 534.055664062 333.245117188 506.630859375 334.30078125 c 0
 480.260742188 335.35546875 445.452148438 358.560546875 412.754882812 358.560546875 c 0
 380.056640625 358.560546875 336.809570312 333.245117188 306.220703125 334.30078125 c 0
 275.631835938 335.35546875 256.645507812 360.670898438 215.508789062 358.560546875 c 0
 174.37109375 356.451171875 117.413085938 331.135742188 110.029296875 334.30078125 c 1
 110.02734375 356.451171875 110.02734375 404.971679688 110.02734375 404.971679688 c 1
 110.02734375 404.971679688 l 1
110.02734375 283.669921875 m 1
 110.02734375 283.669921875 153.2734375 304.765625 187.026367188 304.765625 c 0
 219.725585938 304.765625 279.848632812 277.341796875 294.616210938 276.286132812 c 0
 308.327148438 275.23046875 374.780273438 304.765625 402.205078125 304.765625 c 0
 430.684570312 304.765625 478.150390625 278.395507812 500.301757812 276.286132812 c 0
 522.452148438 274.176757812 566.752929688 302.65625 603.669921875 304.765625 c 0
 640.587890625 306.875 669.068359375 276.286132812 696.4921875 276.286132812 c 0
 723.916992188 276.286132812 770.328125 303.7109375 814.629882812 304.765625 c 0
 857.875976562 305.8203125 882.137695312 276.286132812 903.233398438 281.559570312 c 1
 905.341796875 267.846679688 903.233398438 219.328125 903.233398438 219.328125 c 1
 903.233398438 219.328125 836.780273438 250.971679688 815.685546875 249.916015625 c 0
 794.58984375 248.860351562 739.740234375 219.328125 711.260742188 219.328125 c 0
 682.78125 219.328125 639.53515625 238.313476562 613.165039062 238.313476562 c 0
 586.794921875 238.313476562 534.055664062 211.943359375 506.630859375 212.999023438 c 0
 480.260742188 214.053710938 445.452148438 237.258789062 412.754882812 237.258789062 c 0
 380.056640625 237.258789062 336.809570312 211.943359375 306.220703125 212.999023438 c 0
 275.631835938 214.053710938 256.645507812 239.369140625 215.508789062 237.258789062 c 0
 174.37109375 235.149414062 117.413085938 209.833984375 110.029296875 212.999023438 c 1
 110.02734375 235.149414062 110.02734375 283.669921875 110.02734375 283.669921875 c 1
 110.02734375 283.669921875 l 1
110.02734375 162.368164062 m 1
 110.02734375 162.368164062 153.2734375 183.463867188 187.026367188 183.463867188 c 0
 219.725585938 183.463867188 279.848632812 156.040039062 294.616210938 154.984375 c 0
 308.327148438 153.928710938 374.780273438 183.463867188 402.205078125 183.463867188 c 0
 430.684570312 183.463867188 478.150390625 157.09375 500.301757812 154.984375 c 0
 522.452148438 152.875976562 566.752929688 181.354492188 603.669921875 183.463867188 c 0
 640.587890625 185.573242188 669.068359375 154.984375 696.4921875 154.984375 c 0
 723.916992188 154.984375 770.328125 182.409179688 814.629882812 183.463867188 c 0
 857.875976562 184.51953125 882.137695312 154.984375 903.233398438 160.2578125 c 1
 905.341796875 146.544921875 903.233398438 98.0263671875 903.233398438 98.0263671875 c 1
 903.233398438 98.0263671875 836.780273438 129.669921875 815.685546875 128.614257812 c 0
 794.58984375 127.55859375 739.740234375 98.0263671875 711.260742188 98.0263671875 c 0
 682.78125 98.0263671875 639.53515625 117.01171875 613.165039062 117.01171875 c 0
 586.794921875 117.01171875 534.055664062 90.6416015625 506.630859375 91.697265625 c 0
 480.260742188 92.7529296875 445.452148438 115.95703125 412.754882812 115.95703125 c 0
 380.056640625 115.95703125 336.809570312 90.6416015625 306.220703125 91.697265625 c 0
 275.6328125 92.7529296875 256.645507812 118.067382812 215.508789062 115.95703125 c 0
 174.37109375 113.84765625 117.413085938 88.5322265625 110.029296875 91.697265625 c 1
 110.02734375 112.793945312 110.02734375 162.368164062 110.02734375 162.368164062 c 1
EndSplineSet
Validated: 37
EndChar

StartChar: asciicircum
Encoding: 94 94 32
Width: 1000
Flags: HW
LayerCount: 2
Fore
SplineSet
937 10 m 1
 937.000976562 8.0029296875 l 2
 938.333984375 0.0029296875 935.666992188 -5.6640625 929 -8.9970703125 c 2
 720 -109.997070312 l 2
 718 -111.330078125 715.666992188 -111.997070312 713 -111.997070312 c 0
 710.333007812 -111.997070312 708 -111.330078125 706 -109.997070312 c 2
 498 -8.9970703125 l 1
 497 -8.9970703125 l 1
 299 -105.997070312 l 2
 296.333007812 -106.6640625 293.833007812 -106.997070312 291.5 -106.997070312 c 0
 289.166992188 -106.997070312 287 -106.6640625 285 -105.997070312 c 2
 76 -3.9970703125 l 2
 74.6669921875 -3.330078125 73.6669921875 -2.6630859375 73 -1.99609375 c 0
 65.6669921875 0.6708984375 62 5.6708984375 62 13.00390625 c 2
 62 248.00390625 l 2
 62 252.00390625 63.3330078125 255.336914062 66 258.00390625 c 0
 68 261.336914062 70.3330078125 263.669921875 73 265.002929688 c 2
 262 356.002929688 l 1
 262 357.002929688 l 1
 262 592.002929688 l 2
 262 596.002929688 263.333007812 599.3359375 266 602.002929688 c 0
 267.333007812 605.3359375 269.666015625 607.668945312 272.999023438 609.001953125 c 2
 483.999023438 710.001953125 l 2
 488.666015625 712.668945312 493.333007812 712.668945312 498 710.001953125 c 2
 707 609.001953125 l 2
 712.333007812 606.334960938 715 601.66796875 715 595.000976562 c 2
 715 593.000976562 l 1
 715 592.000976562 l 1
 715 363.000976562 l 2
 717 363.000976562 718.666992188 362.66796875 720 362.000976562 c 2
 929 260.000976562 l 2
 934.333007812 257.333984375 937 252.666992188 937 246 c 2
 937 244 l 1
 937 243 l 1
 937 10 l 1
507.000976562 278.002929688 m 1
 684.000976562 364.002929688 l 1
 684.000976562 569.002929688 l 1
 505.000976562 482.002929688 l 1
 507.000976562 278.002929688 l 1
491.000976562 678.002929688 m 1
 317.000976562 595.002929688 l 1
 491.000976562 511.002929688 l 1
 663.000976562 595.002929688 l 1
 491.000976562 678.002929688 l 1
294.000976562 570.002929688 m 1
 294.000976562 368.002929688 l 2
 295.333984375 368.002929688 297.000976562 367.3359375 299.000976562 366.002929688 c 2
 475.000976562 281.002929688 l 1
 473.000976562 484.002929688 l 1
 294.000976562 570.002929688 l 1
94.0009765625 22.0029296875 m 1
 275.000976562 -65.9970703125 l 1
 273.000976562 141.002929688 l 1
 94.0009765625 226.002929688 l 1
 94.0009765625 22.0029296875 l 1
292.000976562 167.002929688 m 1
 461.000976562 250.002929688 l 1
 289.000976562 333.002929688 l 1
 117.000976562 251.002929688 l 1
 292.000976562 167.002929688 l 1
305.000976562 138.002929688 m 1
 307.000976562 -65.9970703125 l 1
 484.000976562 20.0029296875 l 1
 484.000976562 225.002929688 l 1
 305.000976562 138.002929688 l 1
516.000976562 18.0029296875 m 1
 697.000976562 -70.9970703125 l 1
 695.000976562 136.002929688 l 1
 516.000976562 222.002929688 l 1
 516.000976562 18.0029296875 l 1
713.000976562 162.002929688 m 1
 885.000976562 246.002929688 l 1
 713.000976562 330.002929688 l 1
 539.000976562 246.002929688 l 1
 713.000976562 162.002929688 l 1
906.000976562 15.0029296875 m 1
 906.000976562 221.002929688 l 1
 727.000976562 134.002929688 l 1
 729.000976562 -70.9970703125 l 1
 906.000976562 15.0029296875 l 1
EndSplineSet
Validated: 1
EndChar

StartChar: underscore
Encoding: 95 95 33
Width: 1000
Flags: HW
LayerCount: 2
Fore
SplineSet
846 135 m 1
 990 135 l 1
 990 -28 l 1
 827 -28 l 1
 827 13 l 1
 51 13 l 1
 51 462 l 1
 10 462 l 1
 10 626 l 1
 173 626 l 1
 173 534 l 1
 846 135 l 1
133 95 m 1
 296 95 l 1
 296 258 l 1
 133 258 l 1
 133 95 l 1
337 258 m 1
 337 95 l 1
 760 95 l 1
 140 462 l 1
 133 462 l 1
 133 299 l 1
 337 299 l 1
 337 258 l 1
EndSplineSet
Validated: 1
EndChar

StartChar: grave
Encoding: 96 96 34
Width: 1000
VWidth: 0
Flags: H
LayerCount: 2
Fore
SplineSet
542.088867188 361.584960938 m 5
 349.619140625 361.584960938 l 5
 349.619140625 169.115234375 l 5
 542.088867188 169.115234375 l 5
 542.088867188 361.584960938 l 5
570.287109375 389.783203125 m 5
 570.286132812 389.783203125 l 5
 570.286132812 140.916992188 l 5
 321.420898438 140.916992188 l 5
 321.420898438 389.783203125 l 5
 570.287109375 389.783203125 l 5
656.204101562 227.146484375 m 5
 627.504882812 213.520507812 l 5
 627.504882812 448.288085938 l 5
 392.73828125 448.288085938 l 5
 408.43359375 476.6171875 l 5
 655.703125 476.486328125 l 5
 656.204101562 227.146484375 l 5
408.432617188 476.62109375 m 5
 428.37109375 456.682617188 l 5
 341.505859375 369.81640625 l 5
 321.56640625 389.754882812 l 5
 408.432617188 476.62109375 l 5
628.928710938 470.93359375 m 5
 648.8671875 450.994140625 l 5
 562.001953125 364.127929688 l 5
 542.0625 384.06640625 l 5
 628.928710938 470.93359375 l 5
569.975585938 140.916992188 m 5
 550.036132812 160.856445312 l 5
 636.903320312 247.723632812 l 5
 656.204101562 227.146484375 l 5
 569.975585938 140.916992188 l 5
735.16796875 310.889648438 m 1028
708.799804688 310.889648438 m 4
 708.799804688 325.4453125 720.612304688 337.2578125 735.16796875 337.2578125 c 4
 749.723632812 337.2578125 761.536132812 325.4453125 761.536132812 310.889648438 c 4
 761.536132812 296.333984375 749.723632812 284.521484375 735.16796875 284.521484375 c 4
 720.612304688 284.521484375 708.799804688 296.333984375 708.799804688 310.889648438 c 4
260.901367188 310.645507812 m 1028
234.533203125 310.645507812 m 4
 234.533203125 325.201171875 246.345703125 337.013671875 260.901367188 337.013671875 c 4
 275.45703125 337.013671875 287.26953125 325.201171875 287.26953125 310.645507812 c 4
 287.26953125 296.08984375 275.45703125 284.27734375 260.901367188 284.27734375 c 4
 246.345703125 284.27734375 234.533203125 296.08984375 234.533203125 310.645507812 c 4
599.041015625 324.71875 m 5
 755.880859375 324.71875 l 5
 755.880859375 296.520507812 l 5
 599.041015625 296.520507812 l 5
 599.041015625 324.71875 l 5
555.044921875 324.66796875 m 5
 585.0546875 324.66796875 l 5
 585.0546875 296.469726562 l 5
 555.044921875 296.469726562 l 5
 555.044921875 324.66796875 l 5
503.616210938 324.66796875 m 5
 533.625976562 324.66796875 l 5
 533.625976562 296.469726562 l 5
 503.616210938 296.469726562 l 5
 503.616210938 324.66796875 l 5
462.358398438 324.66796875 m 5
 492.368164062 324.66796875 l 5
 492.368164062 296.469726562 l 5
 462.358398438 296.469726562 l 5
 462.358398438 324.66796875 l 5
419.149414062 324.66796875 m 5
 449.159179688 324.66796875 l 5
 449.159179688 296.469726562 l 5
 419.149414062 296.469726562 l 5
 419.149414062 324.66796875 l 5
377.43359375 324.66796875 m 5
 407.443359375 324.66796875 l 5
 407.443359375 296.469726562 l 5
 377.43359375 296.469726562 l 5
 377.43359375 324.66796875 l 5
336.671875 324.66796875 m 5
 366.681640625 324.66796875 l 5
 366.681640625 296.469726562 l 5
 336.671875 296.469726562 l 5
 336.671875 324.66796875 l 5
240.537109375 323.813476562 m 5
 326.2109375 323.813476562 l 5
 326.2109375 295.615234375 l 5
 240.537109375 295.615234375 l 5
 240.537109375 323.813476562 l 5
EndSplineSet
Validated: 5
EndChar

StartChar: a
Encoding: 97 97 35
Width: 1000
VWidth: 0
Flags: H
LayerCount: 2
Fore
SplineSet
370.41015625 620.99609375 m 0
 370.41015625 685.44921875 422.65625 737.6953125 487.109375 737.6953125 c 0
 551.5625 737.6953125 603.80859375 685.44921875 603.80859375 620.99609375 c 0
 603.80859375 556.54296875 551.5625 504.296875 487.109375 504.296875 c 0
 422.65625 504.296875 370.41015625 556.640625 370.41015625 620.99609375 c 0
617.96875 518.5546875 m 0
 617.96875 583.0078125 670.21484375 635.25390625 734.66796875 635.25390625 c 0
 799.12109375 635.25390625 851.3671875 583.0078125 851.3671875 518.5546875 c 0
 851.3671875 454.1015625 799.12109375 401.85546875 734.66796875 401.85546875 c 0
 670.21484375 401.85546875 617.96875 454.1015625 617.96875 518.5546875 c 0
778.80859375 270.99609375 m 0
 778.80859375 303.22265625 804.8828125 329.296875 837.109375 329.296875 c 0
 869.3359375 329.296875 895.41015625 303.22265625 895.41015625 270.99609375 c 0
 895.41015625 238.76953125 869.3359375 212.6953125 837.109375 212.6953125 c 0
 804.8828125 212.6953125 778.80859375 238.76953125 778.80859375 270.99609375 c 0
676.26953125 23.53515625 m 0
 676.26953125 55.76171875 702.34375 81.8359375 734.5703125 81.8359375 c 0
 766.796875 81.8359375 792.87109375 55.76171875 792.87109375 23.53515625 c 0
 792.87109375 -8.69140625 766.796875 -34.765625 734.5703125 -34.765625 c 0
 702.34375 -34.765625 676.26953125 -8.69140625 676.26953125 23.53515625 c 0
428.80859375 -79.00390625 m 0
 428.80859375 -46.77734375 454.8828125 -20.703125 487.109375 -20.703125 c 0
 519.3359375 -20.703125 545.41015625 -46.77734375 545.41015625 -79.00390625 c 0
 545.41015625 -111.23046875 519.3359375 -137.3046875 487.109375 -137.3046875 c 0
 454.8828125 -137.3046875 428.80859375 -111.23046875 428.80859375 -79.00390625 c 0
181.34765625 23.53515625 m 0
 181.34765625 55.76171875 207.421875 81.8359375 239.6484375 81.8359375 c 0
 271.875 81.8359375 297.94921875 55.76171875 297.94921875 23.53515625 c 0
 297.94921875 -8.69140625 271.875 -34.765625 239.6484375 -34.765625 c 0
 207.421875 -34.765625 181.34765625 -8.69140625 181.34765625 23.53515625 c 0
152.1484375 518.5546875 m 0
 152.1484375 566.89453125 191.30859375 606.0546875 239.6484375 606.0546875 c 0
 287.98828125 606.0546875 327.1484375 566.89453125 327.1484375 518.5546875 c 0
 327.1484375 470.21484375 287.98828125 431.0546875 239.6484375 431.0546875 c 0
 191.30859375 431.0546875 152.1484375 470.21484375 152.1484375 518.5546875 c 0
71.484375 270.99609375 m 0
 71.484375 307.2265625 100.87890625 336.62109375 137.109375 336.62109375 c 0
 173.33984375 336.62109375 202.734375 307.2265625 202.734375 270.99609375 c 0
 202.734375 234.765625 173.33984375 205.37109375 137.109375 205.37109375 c 0
 100.87890625 205.37109375 71.484375 234.765625 71.484375 270.99609375 c 0
EndSplineSet
Validated: 1
EndChar

StartChar: b
Encoding: 98 98 36
Width: 1000
VWidth: 0
Flags: H
LayerCount: 2
Fore
SplineSet
863.37890625 319.43359375 m 2
 874.12109375 319.43359375 882.91015625 310.7421875 883.0078125 300 c 0
 883.0078125 289.2578125 874.21875 280.46875 863.4765625 280.46875 c 2
 815.33203125 280.46875 l 1
 812.6953125 237.79296875 801.66015625 196.77734375 783.0078125 159.375 c 1
 824.51171875 135.25390625 l 2
 833.7890625 129.8828125 837.01171875 117.96875 831.640625 108.59375 c 0
 828.02734375 102.34375 821.484375 98.828125 814.74609375 98.828125 c 0
 811.42578125 98.828125 808.0078125 99.70703125 804.98046875 101.46484375 c 2
 763.37890625 125.48828125 l 1
 751.85546875 108.203125 738.4765625 91.89453125 723.4375 76.85546875 c 0
 708.3984375 61.81640625 692.08984375 48.4375 674.8046875 36.9140625 c 1
 698.92578125 -4.6875 l 2
 704.296875 -13.96484375 701.171875 -25.9765625 691.796875 -31.34765625 c 0
 688.671875 -33.10546875 685.3515625 -33.984375 682.03125 -33.984375 c 0
 675.29296875 -33.984375 668.75 -30.46875 665.13671875 -24.21875 c 2
 641.11328125 17.28515625 l 1
 603.61328125 -1.46484375 562.59765625 -12.5 520.01953125 -15.0390625 c 1
 520.01953125 -63.18359375 l 2
 520.01953125 -73.92578125 511.23046875 -82.71484375 500.48828125 -82.71484375 c 0
 489.74609375 -82.71484375 480.95703125 -73.92578125 480.95703125 -63.18359375 c 2
 480.95703125 -15.0390625 l 1
 438.28125 -12.40234375 397.265625 -1.3671875 359.86328125 17.28515625 c 1
 335.83984375 -24.21875 l 2
 332.2265625 -30.46875 325.68359375 -33.984375 318.9453125 -33.984375 c 0
 315.625 -33.984375 312.20703125 -33.10546875 309.1796875 -31.34765625 c 0
 299.90234375 -25.9765625 296.6796875 -14.0625 302.05078125 -4.6875 c 2
 326.07421875 36.9140625 l 1
 308.7890625 48.4375 292.48046875 61.81640625 277.44140625 76.85546875 c 0
 262.40234375 91.89453125 249.0234375 108.203125 237.5 125.48828125 c 1
 195.8984375 101.46484375 l 2
 192.7734375 99.70703125 189.453125 98.828125 186.1328125 98.828125 c 0
 179.39453125 98.828125 172.8515625 102.34375 169.23828125 108.59375 c 0
 163.8671875 117.87109375 166.9921875 129.8828125 176.3671875 135.25390625 c 2
 217.87109375 159.27734375 l 1
 199.12109375 196.77734375 188.0859375 237.79296875 185.546875 280.37109375 c 1
 137.20703125 280.37109375 l 2
 126.46484375 280.37109375 117.67578125 289.16015625 117.67578125 299.90234375 c 0
 117.67578125 310.64453125 126.46484375 319.43359375 137.20703125 319.43359375 c 2
 185.3515625 319.43359375 l 1
 187.98828125 362.109375 199.0234375 403.125 217.67578125 440.52734375 c 1
 176.171875 464.55078125 l 2
 166.89453125 469.921875 163.671875 481.8359375 169.04296875 491.2109375 c 0
 174.4140625 500.48828125 186.328125 503.7109375 195.703125 498.33984375 c 2
 237.3046875 474.31640625 l 1
 248.828125 491.6015625 262.20703125 507.91015625 277.24609375 522.94921875 c 0
 292.28515625 537.98828125 308.59375 551.3671875 325.87890625 562.890625 c 1
 301.85546875 604.4921875 l 2
 296.484375 613.76953125 299.609375 625.78125 308.984375 631.15234375 c 0
 318.26171875 636.5234375 330.2734375 633.3984375 335.64453125 624.0234375 c 2
 359.66796875 582.51953125 l 1
 397.16796875 601.26953125 438.18359375 612.3046875 480.76171875 614.84375 c 1
 480.76171875 662.98828125 l 2
 480.76171875 673.73046875 489.55078125 682.51953125 500.29296875 682.51953125 c 0
 511.03515625 682.51953125 519.82421875 673.73046875 519.82421875 662.98828125 c 2
 519.82421875 614.84375 l 1
 562.5 612.20703125 603.515625 601.171875 640.91796875 582.51953125 c 1
 664.94140625 624.0234375 l 2
 670.3125 633.30078125 682.2265625 636.5234375 691.6015625 631.15234375 c 0
 700.87890625 625.78125 704.1015625 613.8671875 698.73046875 604.4921875 c 2
 674.70703125 562.890625 l 1
 691.9921875 551.3671875 708.30078125 537.98828125 723.33984375 522.94921875 c 0
 738.37890625 507.91015625 751.7578125 491.6015625 763.28125 474.31640625 c 1
 804.8828125 498.33984375 l 2
 814.16015625 503.7109375 826.171875 500.5859375 831.54296875 491.2109375 c 0
 836.9140625 481.93359375 833.7890625 469.921875 824.4140625 464.55078125 c 2
 782.91015625 440.52734375 l 1
 801.66015625 403.02734375 812.6953125 362.01171875 815.234375 319.43359375 c 1
 863.37890625 319.43359375 l 2
748.92578125 179.00390625 m 1
 764.0625 210.05859375 773.53515625 244.23828125 776.07421875 280.37109375 c 1
 747.75390625 280.37109375 l 2
 737.01171875 280.37109375 728.22265625 289.16015625 728.22265625 299.90234375 c 0
 728.22265625 310.64453125 737.01171875 319.43359375 747.75390625 319.43359375 c 2
 776.07421875 319.43359375 l 1
 773.6328125 355.56640625 764.0625 389.74609375 748.92578125 420.80078125 c 1
 724.4140625 406.640625 l 2
 721.2890625 404.8828125 717.96875 404.00390625 714.6484375 404.00390625 c 0
 707.91015625 404.00390625 701.3671875 407.51953125 697.75390625 413.76953125 c 0
 692.3828125 423.046875 695.5078125 435.05859375 704.8828125 440.4296875 c 2
 729.296875 454.58984375 l 1
 709.47265625 483.7890625 684.27734375 508.984375 655.078125 528.80859375 c 1
 640.91796875 504.39453125 l 2
 637.3046875 498.14453125 630.76171875 494.62890625 624.0234375 494.62890625 c 0
 620.703125 494.62890625 617.28515625 495.5078125 614.2578125 497.265625 c 0
 604.98046875 502.63671875 601.7578125 514.55078125 607.12890625 523.92578125 c 2
 621.2890625 548.4375 l 1
 590.33203125 563.57421875 556.0546875 573.046875 519.921875 575.5859375 c 1
 519.921875 547.265625 l 2
 519.921875 536.5234375 511.1328125 527.734375 500.390625 527.734375 c 0
 489.6484375 527.734375 480.859375 536.5234375 480.859375 547.265625 c 2
 480.859375 575.5859375 l 1
 444.7265625 573.14453125 410.546875 563.57421875 379.4921875 548.4375 c 1
 393.65234375 523.92578125 l 2
 399.0234375 514.6484375 395.8984375 502.63671875 386.5234375 497.265625 c 0
 383.3984375 495.5078125 380.078125 494.62890625 376.7578125 494.62890625 c 0
 370.01953125 494.62890625 363.4765625 498.14453125 359.86328125 504.39453125 c 2
 345.703125 528.80859375 l 1
 316.50390625 508.984375 291.30859375 483.7890625 271.484375 454.58984375 c 1
 295.8984375 440.4296875 l 2
 305.17578125 435.05859375 308.3984375 423.14453125 303.02734375 413.76953125 c 0
 299.4140625 407.51953125 292.87109375 404.00390625 286.1328125 404.00390625 c 0
 282.8125 404.00390625 279.39453125 404.8828125 276.3671875 406.640625 c 2
 251.85546875 420.80078125 l 1
 236.71875 389.84375 227.24609375 355.56640625 224.70703125 319.43359375 c 1
 253.02734375 319.43359375 l 2
 263.76953125 319.43359375 272.55859375 310.64453125 272.55859375 299.90234375 c 0
 272.55859375 289.16015625 263.76953125 280.37109375 253.02734375 280.37109375 c 2
 224.70703125 280.37109375 l 1
 227.1484375 244.23828125 236.71875 210.05859375 251.85546875 179.00390625 c 1
 276.3671875 193.1640625 l 2
 285.64453125 198.53515625 297.65625 195.41015625 303.02734375 186.03515625 c 0
 308.3984375 176.7578125 305.2734375 164.74609375 295.8984375 159.375 c 2
 271.484375 145.21484375 l 1
 291.30859375 116.015625 316.50390625 90.8203125 345.703125 70.99609375 c 1
 359.86328125 95.41015625 l 2
 365.234375 104.6875 377.1484375 107.91015625 386.5234375 102.5390625 c 0
 395.80078125 97.16796875 399.0234375 85.25390625 393.65234375 75.87890625 c 2
 379.4921875 51.3671875 l 1
 410.44921875 36.23046875 444.7265625 26.7578125 480.859375 24.21875 c 1
 480.859375 52.5390625 l 2
 480.859375 63.28125 489.6484375 72.0703125 500.390625 72.0703125 c 0
 511.1328125 72.0703125 519.921875 63.28125 519.921875 52.5390625 c 2
 519.921875 24.21875 l 1
 556.0546875 26.66015625 590.234375 36.23046875 621.2890625 51.3671875 c 1
 607.12890625 75.87890625 l 2
 601.7578125 85.15625 604.8828125 97.16796875 614.2578125 102.5390625 c 0
 623.53515625 107.91015625 635.546875 104.78515625 640.91796875 95.41015625 c 2
 655.078125 70.99609375 l 1
 684.27734375 90.8203125 709.47265625 116.015625 729.296875 145.21484375 c 1
 704.8828125 159.375 l 2
 695.60546875 164.74609375 692.3828125 176.7578125 697.75390625 186.03515625 c 0
 703.125 195.3125 715.0390625 198.53515625 724.4140625 193.1640625 c 2
 748.92578125 179.00390625 l 1
EndSplineSet
Validated: 1
EndChar

StartChar: c
Encoding: 99 99 37
Width: 1000
VWidth: 0
Flags: H
LayerCount: 2
Fore
SplineSet
819.8828125 367.936523438 m 0
 812.584960938 411.368164062 785.706054688 475.571289062 759.884765625 511.247070312 c 0
 757.076171875 514.583984375 754.796875 520.833007812 754.796875 525.194335938 c 0
 754.796875 529.555664062 757.076171875 535.8046875 759.884765625 539.141601562 c 2
 849.4609375 624.927734375 l 2
 853.004882812 628.72265625 860.096679688 631.802734375 865.2890625 631.802734375 c 0
 870.482421875 631.802734375 877.573242188 628.72265625 881.1171875 624.927734375 c 0
 932.333007812 565.259765625 979.913085938 453.299804688 987.32421875 375.015625 c 0
 987.358398438 374.55859375 987.38671875 373.81640625 987.38671875 373.357421875 c 0
 987.38671875 361.170898438 977.495117188 351.279296875 965.30859375 351.279296875 c 0
 965.291015625 351.279296875 965.263671875 351.279296875 965.24609375 351.279296875 c 2
 840.27734375 351.279296875 l 2
 831.015625 351.4296875 821.87890625 358.891601562 819.8828125 367.936523438 c 0
22.2021484375 349.622070312 m 2
 22.173828125 349.622070312 22.1279296875 349.622070312 22.099609375 349.622070312 c 0
 10.3779296875 349.622070312 0.86328125 359.135742188 0.86328125 370.857421875 c 0
 0.86328125 371.432617188 0.9091796875 372.364257812 0.9658203125 372.936523438 c 0
 17.880859375 581.100585938 199.6328125 772.376953125 406.661132812 799.89453125 c 0
 407.243164062 799.953125 408.188476562 800 408.7734375 800 c 0
 420.495117188 800 430.008789062 790.486328125 430.008789062 778.763671875 c 0
 430.008789062 778.619140625 430.005859375 778.3828125 430.002929688 778.237304688 c 2
 430.002929688 653.268554688 l 2
 430.002929688 653.208984375 430.00390625 653.11328125 430.00390625 653.0546875 c 0
 430.00390625 643.524414062 422.352539062 634.66015625 412.923828125 633.26953125 c 0
 289.962890625 611.318359375 180.041992188 492.638671875 167.564453125 368.358398438 c 0
 166.543945312 358.171875 157.407226562 349.778320312 147.170898438 349.622070312 c 2
 22.2021484375 349.622070312 l 2
137.592773438 272.572265625 m 2
 154.282226562 272.196289062 168.829101562 258.37890625 170.064453125 241.731445312 c 0
 184.491210938 122.946289062 289.5546875 -0.2138671875 404.58203125 -33.1796875 c 0
 418.249023438 -35.869140625 430.379882812 -49.3095703125 431.66015625 -63.1787109375 c 2
 431.66015625 -166.912109375 l 2
 431.521484375 -185.162109375 416.59765625 -199.973632812 398.346679688 -199.973632812 c 0
 397.421875 -199.973632812 395.923828125 -199.8984375 395.00390625 -199.805664062 c 0
 182.564453125 -171.016601562 28.859375 -26.1015625 2.650390625 236.731445312 c 0
 2.5966796875 237.427734375 2.5537109375 238.559570312 2.5537109375 239.2578125 c 0
 2.5537109375 257.647460938 17.478515625 272.572265625 35.8681640625 272.572265625 c 0
 35.8876953125 272.572265625 35.9189453125 272.572265625 35.9384765625 272.572265625 c 2
 137.592773438 272.572265625 l 2
819.041015625 694.109375 m 0
 824.360351562 690.72265625 828.677734375 682.856445312 828.677734375 676.55078125 c 0
 828.677734375 671.881835938 826.034179688 665.376953125 822.77734375 662.03125 c 2
 739.491210938 573.692382812 l 2
 731.702148438 566.614257812 719.78125 566.614257812 711.9921875 573.692382812 c 0
 677.315429688 599.477539062 614.609375 626.356445312 572.0234375 633.690429688 c 0
 561.83984375 635.137695312 554.234375 643.821289062 554.129882812 654.083984375 c 2
 554.129882812 779.080078125 l 2
 554.54296875 790.606445312 564.23828125 799.9609375 575.772460938 799.9609375 c 0
 576.2421875 799.9609375 577.002929688 799.931640625 577.470703125 799.89453125 c 0
 653.70703125 792.536132812 761.930664062 745.14453125 819.041015625 694.109375 c 0
756.963867188 370.436523438 m 0
 757.140625 369.526367188 757.284179688 368.034179688 757.284179688 367.106445312 c 0
 757.284179688 357.447265625 749.444335938 349.607421875 739.78515625 349.607421875 c 0
 739.586914062 349.607421875 739.267578125 349.614257812 739.0703125 349.622070312 c 2
 587.865234375 349.622070312 l 2
 585.338867188 349.622070312 582.0234375 364.173828125 577.444335938 371.279296875 c 1
 679.493164062 464.590820312 l 2
 682.366210938 467.736328125 688.154296875 470.2890625 692.4140625 470.2890625 c 0
 696.673828125 470.2890625 702.461914062 467.736328125 705.334960938 464.590820312 c 0
 726.31640625 442.295898438 749.446289062 400.115234375 756.963867188 370.436523438 c 0
430.002929688 395.857421875 m 1
 425.745117188 380.1484375 411.750976562 359.435546875 398.766601562 349.622070312 c 1
 255.876953125 349.622070312 l 2
 242.1328125 349.676757812 230.977539062 360.875976562 230.977539062 374.62109375 c 0
 230.977539062 375.776367188 231.133789062 377.638671875 231.326171875 378.778320312 c 0
 242.428710938 461.734375 317.053710938 546.639648438 397.8984375 568.297851562 c 0
 399.7109375 568.791992188 402.706054688 569.193359375 404.584960938 569.193359375 c 0
 418.415039062 569.193359375 429.802734375 557.969726562 430.002929688 544.140625 c 2
 430.002929688 395.857421875 l 1
399.161132812 270.887695312 m 1
 399.161132812 272.572265625 l 1
 404.58203125 272.572265625 414.161132812 235.073242188 432.897460938 223.416015625 c 1
 432.897460938 54.7119140625 l 2
 432.69140625 41.12109375 421.493164062 30.08984375 407.901367188 30.08984375 c 0
 405.6640625 30.08984375 402.125976562 30.6640625 400.00390625 31.3701171875 c 0
 307.533203125 57.6328125 252.140625 144.681640625 233.377929688 242.15234375 c 0
 233.182617188 243.291992188 233.0234375 245.15625 233.0234375 246.3125 c 0
 233.0234375 259.879882812 244.034179688 270.890625 257.6015625 270.890625 c 0
 257.69921875 270.890625 257.858398438 270.889648438 257.956054688 270.887695312 c 2
 399.161132812 270.887695312 l 1
964.404296875 287.9921875 m 0
 964.430664062 287.9921875 964.474609375 287.993164062 964.500976562 287.993164062 c 0
 977.138671875 287.993164062 987.39453125 277.736328125 987.39453125 265.098632812 c 0
 987.39453125 264.516601562 987.3515625 263.573242188 987.297851562 262.993164062 c 0
 964.008789062 -10.6806640625 799.462890625 -174.384765625 577.444335938 -199.805664062 c 0
 576.87109375 -199.856445312 575.939453125 -199.8984375 575.36328125 -199.8984375 c 0
 562.659179688 -199.8984375 552.21484375 -189.587890625 552.05078125 -176.884765625 c 2
 552.05078125 -35.2587890625 l 2
 552.05078125 -32.7587890625 599.522460938 -26.5224609375 622.837890625 -18.6015625 c 1
 607.198242188 -7.0693359375 590.598632812 17.5703125 585.786132812 36.396484375 c 1
 562.892578125 30.1337890625 552.05078125 28.896484375 552.05078125 26.7919921875 c 2
 552.05078125 226.336914062 l 1
 569.5234375 237.599609375 581.208007812 232.178710938 588.286132812 271.755859375 c 0
 590.1015625 282.544921875 599.416992188 290.439453125 610.364257812 290.4921875 c 2
 761.569335938 290.4921875 l 1
 758.6484375 230.099609375 759.069335938 248.8359375 754.069335938 232.599609375 c 1
 770.78125 227.516601562 795.03125 214.077148438 808.19921875 202.600585938 c 1
 817.251953125 223.678710938 822.067382812 246.3359375 822.3828125 269.256835938 c 0
 823.219726562 280.795898438 833.287109375 290.309570312 844.85546875 290.4921875 c 2
 964.404296875 287.9921875 l 0
792.8046875 79.7109375 m 2
 792.922851562 81.4228515625 793.017578125 84.205078125 793.017578125 85.9208984375 c 0
 793.017578125 136.03515625 752.345703125 176.70703125 702.231445312 176.70703125 c 0
 652.1171875 176.70703125 611.4453125 136.03515625 611.4453125 85.9208984375 c 0
 611.4453125 35.806640625 652.1171875 -4.865234375 702.231445312 -4.865234375 c 0
 702.282226562 -4.865234375 702.36328125 -4.865234375 702.4140625 -4.865234375 c 0
 702.764648438 -4.8701171875 703.333984375 -4.8740234375 703.685546875 -4.8740234375 c 0
 752.2109375 -4.8740234375 792.13671875 34.5048828125 792.8046875 83.0263671875 c 2
 792.8046875 79.7109375 l 2
664.467773438 502.484375 m 0
 666.5625 500.971679688 668.26171875 497.645507812 668.26171875 495.061523438 c 0
 668.26171875 492.845703125 666.939453125 489.829101562 665.309570312 488.327148438 c 2
 560.366210938 390.436523438 l 1
 538.26171875 400.014648438 l 1
 538.26171875 544.983398438 l 2
 538.26171875 545.005859375 538.26171875 545.043945312 538.26171875 545.06640625 c 0
 538.26171875 550.354492188 542.552734375 554.645507812 547.83984375 554.645507812 c 0
 548.190429688 554.645507812 548.755859375 554.607421875 549.103515625 554.561523438 c 0
 584.360351562 547.756835938 636.043945312 524.42578125 664.467773438 502.484375 c 0
EndSplineSet
Validated: 1
EndChar

StartChar: e
Encoding: 101 101 38
Width: 1000
Flags: HW
LayerCount: 2
Fore
SplineSet
839 75 m 0
 839 74.3330078125 839.16796875 73.833984375 839.500976562 73.5009765625 c 2
 841.000976562 72.0009765625 l 1
 906.333984375 -25.33203125 927.000976562 -85.9990234375 903.000976562 -109.999023438 c 0
 896.333984375 -115.999023438 887.333984375 -118.999023438 876.000976562 -118.999023438 c 0
 839.333984375 -118.999023438 779.666992188 -89.9990234375 697 -31.9990234375 c 1
 649.666992188 -51.9990234375 600.333984375 -61.9990234375 549.000976562 -61.9990234375 c 0
 480.333984375 -61.9990234375 417.166992188 -45.166015625 359.5 -11.4990234375 c 0
 301.833007812 22.16796875 256.166015625 68.0009765625 222.499023438 126.000976562 c 0
 188.83203125 184.000976562 171.999023438 247.000976562 171.999023438 315.000976562 c 0
 171.999023438 363.000976562 180.666015625 409.333984375 197.999023438 454.000976562 c 1
 178.666015625 479.333984375 161.333007812 503.666992188 146 527 c 0
 80.6669921875 624.333007812 60 685 84 709 c 0
 90 715 99 718 111 718 c 0
 149 718 211.666992188 686.666992188 299 624 c 2
 316 611 l 1
 384 665 461.666992188 692 549 692 c 0
 617 692 680 675.166992188 738 641.5 c 0
 796 607.833007812 841.666992188 562 875 504 c 0
 908.333007812 446 925 383 925 315 c 0
 925 224.333007812 896.333007812 144.333007812 839 75 c 0
862.000976562 218.000976562 m 1
 778.66796875 252.000976562 732.000976562 262.66796875 722.000976562 250.000976562 c 1
 708.000976562 242.000976562 l 1
 754.000976562 189.333984375 793.333984375 140.000976562 826.000976562 94.0009765625 c 1
 830.000976562 100.000976562 l 2
 842.66796875 119.333984375 851.66796875 138.833984375 857.000976562 158.500976562 c 0
 862.333984375 178.16796875 864.333984375 193.000976562 863.000976562 203.000976562 c 2
 862.000976562 218.000976562 l 1
381.000976562 600.000976562 m 2
 363.000976562 606.66796875 346.002929688 607.00390625 330.002929688 601.00390625 c 1
 409.3359375 540.336914062 491.668945312 467.669921875 577.001953125 383.002929688 c 0
 581.668945312 377.669921875 586.668945312 372.336914062 592.001953125 367.00390625 c 1
 590.001953125 380.336914062 593.001953125 391.169921875 601.001953125 399.502929688 c 0
 609.001953125 407.8359375 623.001953125 412.668945312 643.001953125 414.001953125 c 0
 719.001953125 419.334960938 754.001953125 424.334960938 748.001953125 429.001953125 c 0
 722.001953125 461.001953125 697.834960938 487.001953125 675.501953125 507.001953125 c 0
 653.168945312 527.001953125 635.001953125 540.001953125 621.001953125 546.001953125 c 0
 607.001953125 552.001953125 595.001953125 555.501953125 585.001953125 556.501953125 c 0
 575.001953125 557.501953125 568.001953125 556.668945312 564.001953125 554.001953125 c 2
 558.001953125 550.001953125 l 1
 560.001953125 535.334960938 560.001953125 524.001953125 558.001953125 516.001953125 c 0
 556.001953125 508.001953125 552.168945312 502.334960938 546.501953125 499.001953125 c 0
 540.834960938 495.668945312 535.334960938 493.8359375 530.001953125 493.502929688 c 0
 524.668945312 493.169921875 519.668945312 493.336914062 515.001953125 494.00390625 c 2
 509.001953125 495.00390625 l 2
 485.668945312 502.336914062 474.001953125 508.669921875 474.001953125 514.002929688 c 0
 475.334960938 519.3359375 487.66796875 530.3359375 511.000976562 547.002929688 c 0
 523.000976562 557.002929688 527.833984375 564.669921875 525.500976562 570.002929688 c 0
 523.16796875 575.3359375 517.000976562 579.002929688 507.000976562 581.002929688 c 2
 493.000976562 584.002929688 l 1
 476.333984375 572.669921875 461.833984375 565.002929688 449.500976562 561.002929688 c 0
 437.16796875 557.002929688 429.000976562 556.002929688 425.000976562 558.002929688 c 2
 419.000976562 561.002929688 l 1
 417.000976562 568.3359375 413.000976562 575.168945312 407.000976562 581.501953125 c 0
 401.000976562 587.834960938 395.333984375 592.66796875 390.000976562 596.000976562 c 2
 381.000976562 600.000976562 l 2
156.002929688 533.00390625 m 0
 170.002929688 511.670898438 186.00390625 489.336914062 204.00390625 466.00390625 c 1
 227.336914062 520.00390625 261.669921875 566.00390625 307.002929688 604.00390625 c 1
 292.002929688 615.00390625 l 2
 206.669921875 676.336914062 146.336914062 707.00390625 111.00390625 707.00390625 c 0
 102.336914062 707.00390625 96.00390625 705.00390625 92.00390625 701.00390625 c 0
 82.6708984375 691.670898438 83.6708984375 672.170898438 95.00390625 642.50390625 c 0
 106.336914062 612.836914062 126.669921875 576.336914062 156.002929688 533.00390625 c 0
698.00390625 62.0029296875 m 1
 696.00390625 48.669921875 696.006835938 38.333984375 698.006835938 31.0009765625 c 0
 700.006835938 23.66796875 701.83984375 18.66796875 703.506835938 16.0009765625 c 0
 705.173828125 13.333984375 706.340820312 12.0009765625 707.0078125 12.0009765625 c 0
 745.674804688 16.0009765625 782.674804688 40.0009765625 818.0078125 84.0009765625 c 1
 784.674804688 131.333984375 744.341796875 182.333984375 697.008789062 237.000976562 c 1
 673.008789062 225.66796875 651.67578125 219.334960938 633.008789062 218.001953125 c 0
 614.341796875 216.668945312 600.174804688 219.168945312 590.5078125 225.501953125 c 0
 580.840820312 231.834960938 573.0078125 239.16796875 567.0078125 247.500976562 c 0
 561.0078125 255.833984375 557.340820312 263.333984375 556.0078125 270.000976562 c 2
 554.0078125 281.000976562 l 1
 534.0078125 275.000976562 518.840820312 272.500976562 508.5078125 273.500976562 c 0
 498.174804688 274.500976562 491.674804688 278.000976562 489.0078125 284.000976562 c 0
 486.340820312 290.000976562 485.340820312 296.16796875 486.0078125 302.500976562 c 0
 486.674804688 308.833984375 488.0078125 314.666992188 490.0078125 320 c 2
 493.0078125 327 l 1
 505.0078125 337 517.5078125 342 530.5078125 342 c 0
 543.5078125 342 553.674804688 339.666992188 561.0078125 335 c 2
 572.0078125 328 l 1
 570.0078125 320.666992188 570.840820312 313.166992188 574.5078125 305.5 c 0
 578.174804688 297.833007812 582.0078125 292.333007812 586.0078125 289 c 2
 593.0078125 283 l 1
 623.674804688 265.666992188 645.341796875 265 658.008789062 281 c 1
 653.008789062 286 l 1
 631.67578125 298.666992188 614.67578125 317 602.008789062 341 c 1
 568.008789062 375 l 2
 482.008789062 461.666992188 398.67578125 535 318.008789062 595 c 1
 309.341796875 589.666992188 301.174804688 582.333984375 293.5078125 573.000976562 c 0
 285.840820312 563.66796875 280.673828125 556.000976562 278.006835938 550.000976562 c 2
 274.006835938 540.000976562 l 2
 272.673828125 538.000976562 273.006835938 536.16796875 275.006835938 534.500976562 c 0
 277.006835938 532.833984375 279.33984375 531.666992188 282.006835938 531 c 2
 285.006835938 530 l 2
 286.33984375 530 288.006835938 530.333007812 290.006835938 531 c 0
 292.006835938 531.666992188 294.173828125 532.333984375 296.506835938 533.000976562 c 0
 298.83984375 533.66796875 301.172851562 534.500976562 303.505859375 535.500976562 c 0
 305.838867188 536.500976562 308.005859375 537.66796875 310.005859375 539.000976562 c 0
 312.005859375 540.333984375 313.838867188 541.333984375 315.505859375 542.000976562 c 0
 317.172851562 542.66796875 318.672851562 543.334960938 320.005859375 544.001953125 c 2
 321.005859375 545.001953125 l 1
 337.005859375 543.001953125 345.505859375 534.001953125 346.505859375 518.001953125 c 0
 347.505859375 502.001953125 344.338867188 486.334960938 337.005859375 471.001953125 c 2
 326.005859375 449.001953125 l 2
 318.005859375 433.001953125 313.505859375 418.334960938 312.505859375 405.001953125 c 0
 311.505859375 391.668945312 312.838867188 381.168945312 316.505859375 373.501953125 c 0
 320.172851562 365.834960938 324.505859375 359.334960938 329.505859375 354.001953125 c 0
 334.505859375 348.668945312 339.005859375 345.001953125 343.005859375 343.001953125 c 2
 350.005859375 341.001953125 l 2
 363.338867188 337.001953125 376.338867188 331.501953125 389.005859375 324.501953125 c 0
 401.672851562 317.501953125 410.672851562 311.668945312 416.005859375 307.001953125 c 2
 425.005859375 299.001953125 l 1
 426.338867188 288.334960938 429.838867188 277.334960938 435.505859375 266.001953125 c 0
 441.172851562 254.668945312 446.672851562 245.668945312 452.005859375 239.001953125 c 2
 459.005859375 230.001953125 l 1
 527.005859375 226.001953125 l 2
 537.672851562 224.001953125 547.672851562 221.334960938 557.005859375 218.001953125 c 0
 566.338867188 214.668945312 574.171875 211.3359375 580.504882812 208.002929688 c 0
 586.837890625 204.669921875 592.670898438 201.169921875 598.00390625 197.502929688 c 0
 603.336914062 193.8359375 607.50390625 190.3359375 610.50390625 187.002929688 c 0
 613.50390625 183.669921875 616.00390625 180.669921875 618.00390625 178.002929688 c 0
 620.00390625 175.3359375 621.336914062 173.002929688 622.00390625 171.002929688 c 2
 623.00390625 169.002929688 l 1
 615.00390625 160.3359375 611.00390625 150.502929688 611.00390625 139.502929688 c 0
 611.00390625 128.502929688 612.670898438 119.669921875 616.00390625 113.002929688 c 2
 622.00390625 103.002929688 l 1
 632.00390625 95.0029296875 643.336914062 87.5029296875 656.00390625 80.5029296875 c 0
 668.670898438 73.5029296875 679.00390625 68.669921875 687.00390625 66.0029296875 c 2
 698.00390625 62.0029296875 l 1
894.006835938 -102 m 0
 903.33984375 -92.6669921875 902.5078125 -73.1669921875 891.5078125 -43.5 c 0
 880.5078125 -13.8330078125 860.340820312 22.6669921875 831.0078125 66 c 1
 796.340820312 26.6669921875 755.673828125 -4 709.006835938 -26 c 1
 787.006835938 -80.6669921875 842.673828125 -108 876.006835938 -108 c 0
 884.006835938 -108 890.006835938 -106 894.006835938 -102 c 0
EndSplineSet
Validated: 33
EndChar

StartChar: f
Encoding: 102 102 39
Width: 1000
Flags: HW
LayerCount: 2
Fore
SplineSet
167 592 m 2
 167 603.333007812 171 612.999023438 179 620.999023438 c 0
 187 628.999023438 196.666992188 632.999023438 208 632.999023438 c 0
 214 632.999023438 219.5 631.999023438 224.5 629.999023438 c 0
 229.5 627.999023438 233.833007812 625.166015625 237.5 621.499023438 c 0
 241.166992188 617.83203125 244.166992188 613.33203125 246.5 607.999023438 c 0
 248.833007812 602.666015625 250 597.333007812 250 592 c 2
 250 8 l 2
 250 -3.3330078125 246 -13 238 -21 c 0
 230 -29 220.166992188 -33 208.5 -33 c 0
 196.833007812 -33 187 -29 179 -21 c 0
 171 -13 167 -3.3330078125 167 8 c 2
 167 592 l 2
292 632.999023438 m 1
 625 632.999023438 l 1
 625 573.999023438 l 1
 473 573.999023438 l 1
 473 299.999023438 l 1
 292 299.999023438 l 1
 292 632.999023438 l 1
500 549.999023438 m 1
 833 549.999023438 l 1
 750 382.999023438 l 1
 833 216.999023438 l 1
 500 216.999023438 l 1
 500 549.999023438 l 1
EndSplineSet
Validated: 1
EndChar

StartChar: h
Encoding: 104 104 40
Width: 1000
VWidth: 0
Flags: H
LayerCount: 2
Fore
SplineSet
500 300 m 1024
400 300 m 0,1,2
 400 355.200195312 444.799804688 400 500 400 c 0,3,4
 555.200195312 400 600 355.200195312 600 300 c 0,5,6
 600 244.799804688 555.200195312 200 500 200 c 0,7,8
 444.799804688 200 400 244.799804688 400 300 c 0,1,2
975 325 m 2,9,10
 987.5 325 1000 312.5 1000 300 c 0,11,12
 1000 287.5 987.5 275 975 275 c 2,13,-1
 900 275 l 1,14,15
 887.5 75 725 -87.5 525 -100 c 1,16,-1
 525 -175 l 2,17,18
 525 -187.5 512.5 -200 500 -200 c 0,19,20
 487.5 -200 475 -187.5 475 -175 c 2,21,-1
 475 -100 l 1,22,23
 275 -87.5 112.5 75 100 275 c 1,24,-1
 25 275 l 2,25,26
 12.5 275 0 287.5 0 300 c 0,27,28
 0 312.5 12.5 325 25 325 c 2,29,-1
 100 325 l 1,30,31
 112.5 525 275 687.5 475 700 c 1,32,-1
 475 775 l 2,33,34
 475 787.5 487.5 800 500 800 c 0,35,36
 512.5 800 525 787.5 525 775 c 2,37,-1
 525 700 l 1,38,39
 725 687.5 887.5 525 900 325 c 1,40,-1
 975 325 l 2,9,10
500 -50 m 0,41,42
 693.75 -50 850 106.25 850 300 c 0,43,44
 850 493.75 693.75 650 500 650 c 0,45,46
 306.25 650 150 493.75 150 300 c 0,47,48
 150 106.25 306.25 -50 500 -50 c 0,41,42
EndSplineSet
Validated: 1
EndChar

StartChar: i
Encoding: 105 105 41
Width: 1000
VWidth: 0
Flags: H
LayerCount: 2
Fore
SplineSet
429.948242188 460.111328125 m 0
 353.421875 460.111328125 291.40234375 522.139648438 291.40234375 598.64453125 c 0
 291.40234375 675.149414062 353.421875 737.202148438 429.948242188 737.202148438 c 0
 506.442382812 737.202148438 568.47265625 675.149414062 568.47265625 598.64453125 c 0
 568.47265625 594.23046875 568.208984375 589.86328125 567.805664062 585.544921875 c 2
 517.485351562 626.764648438 l 2
 503.284179688 638.415039062 485.322265625 644.844726562 466.895507812 644.844726562 c 0
 442.84765625 644.844726562 420.314453125 634.16796875 405.115234375 615.551757812 c 0
 391.625 599.09375 385.302734375 578.307617188 387.436523438 557.069335938 c 0
 389.560546875 535.83203125 399.8125 516.706054688 416.33984375 503.204101562 c 2
 463.694335938 464.4296875 l 1
 452.872070312 461.724609375 441.599609375 460.111328125 429.948242188 460.111328125 c 0
744.345703125 520.55078125 m 0
 842.778320312 520.55078125 922.578125 440.748046875 922.579101562 342.314453125 c 0
 922.579101562 243.859375 842.778320312 164.056640625 744.345703125 164.056640625 c 0
 720.37890625 164.056640625 697.540039062 168.873046875 676.643554688 177.46484375 c 1
 750.40625 218.279296875 l 2
 799.908203125 245.686523438 817.920898438 308.275390625 790.512695312 357.787109375 c 0
 772.416992188 390.485351562 737.986328125 410.776367188 700.64453125 410.776367188 c 0
 683.298828125 410.776367188 666.131835938 406.313476562 650.920898438 397.901367188 c 2
 566.560546875 351.189453125 l 1
 566.999023438 360.184570312 567.915039062 369.05859375 569.646484375 377.649414062 c 0
 572.91015625 393.845703125 578.4609375 409.138671875 585.770507812 423.400390625 c 1
 445.219726562 538.536132812 l 2
 430.578125 550.49609375 428.4296875 572.067382812 440.4375 586.685546875 c 0
 447.1796875 594.943359375 457.013671875 599.21484375 466.897460938 599.21484375 c 0
 474.540039062 599.21484375 482.225585938 596.674804688 488.57421875 591.455078125 c 2
 628.069335938 477.197265625 l 1
 640.147460938 487.638671875 653.650390625 496.392578125 668.232421875 503.298828125 c 0
 691.344726562 514.237304688 717.081054688 520.55078125 744.345703125 520.55078125 c 0
539.071289062 153.426757812 m 1
 542.9140625 137.834960938 545.203125 121.653320312 545.75 104.971679688 c 0
 545.83203125 102.360351562 546.154296875 99.798828125 546.154296875 97.177734375 c 0
 546.154296875 -32.28125 441.208007812 -137.202148438 311.76171875 -137.202148438 c 0
 182.340820312 -137.202148438 77.419921875 -32.28125 77.419921875 97.177734375 c 0
 77.419921875 226.610351562 182.340820312 331.54296875 311.76171875 331.54296875 c 0
 363.36328125 331.54296875 410.89453125 314.670898438 449.59765625 286.43359375 c 0
 462.66015625 276.904296875 474.645507812 266.072265625 485.453125 254.13671875 c 1
 673.072265625 358.002929688 l 2
 681.818359375 362.842773438 691.287109375 365.143554688 700.64453125 365.143554688 c 0
 720.709960938 365.143554688 740.1796875 354.512695312 750.57421875 335.71875 c 0
 765.819335938 308.14453125 755.866210938 273.452148438 728.303710938 258.216796875 c 2
 539.071289062 153.426757812 l 1
312.083007812 -98.1552734375 m 0
 419.88671875 -98.1552734375 507.283203125 -10.759765625 507.283203125 97.044921875 c 0
 507.283203125 204.848632812 419.88671875 292.24609375 312.083007812 292.24609375 c 0
 204.279296875 292.24609375 116.8828125 204.848632812 116.8828125 97.044921875 c 0
 116.8828125 -10.759765625 204.279296875 -98.1552734375 312.083007812 -98.1552734375 c 0
312.083007812 234.90234375 m 0
 362.69921875 234.90234375 403.728515625 193.874023438 403.729492188 143.258789062 c 0
 403.729492188 136.483398438 402.9453125 129.899414062 401.544921875 123.551757812 c 0
 396.953125 85.275390625 312.094726562 -40.8251953125 312.094726562 -40.8251953125 c 1
 312.094726562 -40.8251953125 227.1796875 85.205078125 222.611328125 123.551757812 c 0
 221.22265625 129.911132812 220.439453125 136.484375 220.439453125 143.258789062 c 0
 220.439453125 193.873046875 261.467773438 234.90234375 312.083007812 234.90234375 c 0
312.083007812 96.130859375 m 0
 338.102539062 96.130859375 359.2109375 117.227539062 359.2109375 143.258789062 c 0
 359.2109375 169.278320312 338.102539062 190.387695312 312.083007812 190.387695312 c 0
 286.05078125 190.387695312 264.95703125 169.278320312 264.95703125 143.258789062 c 0
 264.95703125 117.227539062 286.05078125 96.130859375 312.083007812 96.130859375 c 0
EndSplineSet
Validated: 33
EndChar

StartChar: j
Encoding: 106 106 42
Width: 1000
VWidth: 0
Flags: H
LayerCount: 2
Fore
SplineSet
460.909179688 549.391601562 m 1
 703.276367188 316.607421875 l 1
 460.909179688 316.607421875 l 1
 460.909179688 549.391601562 l 1
515.15625 752.956054688 m 0
 756.298828125 752.956054688 951.783203125 557.461914062 951.784179688 316.317382812 c 0
 951.784179688 75.1591796875 756.299804688 -120.3125 515.15625 -120.3125 c 0
 274.022460938 -120.3125 78.5283203125 75.16015625 78.5283203125 316.317382812 c 0
 78.5283203125 557.459960938 274.022460938 752.956054688 515.15625 752.956054688 c 0
772.78515625 265.62890625 m 2
 787.065429688 265.62890625 799.21875 274.107421875 798.967773438 291.971679688 c 0
 798.864257812 299.59375 792.700195312 307.032226562 783.705078125 316.393554688 c 2
 783.705078125 316.393554688 468.407226562 614.396484375 468.024414062 614.739257812 c 0
 460.829101562 621.290039062 452.020507812 626.416015625 441.528320312 626.416015625 c 0
 421.697265625 626.416015625 405.505859375 610.338867188 405.505859375 590.506835938 c 0
 405.505859375 590.350585938 405.505859375 14.94140625 405.505859375 13.1494140625 c 0
 405.505859375 -2.1953125 417.9453125 -14.634765625 433.2890625 -14.634765625 c 0
 448.6328125 -14.634765625 460.909179688 -2.1953125 460.909179688 13.1494140625 c 0
 460.909179688 14.9189453125 460.909179688 265.62890625 460.909179688 265.62890625 c 1
 772.78515625 265.62890625 l 2
EndSplineSet
Validated: 33
EndChar

StartChar: k
Encoding: 107 107 43
Width: 1000
VWidth: 0
Flags: H
LayerCount: 2
Fore
SplineSet
941.176757812 800 m 1
 1000 800 l 1
 1000 623.529296875 l 1
 941.176757812 623.529296875 l 1
 941.176757812 682.352539062 l 1
 294.1171875 682.352539062 l 1
 294.1171875 623.529296875 l 1
 235.293945312 623.529296875 l 1
 235.293945312 800 l 1
 294.1171875 800 l 1
 294.1171875 741.176757812 l 1
 941.176757812 741.176757812 l 1
 941.176757812 800 l 1
0 505.8828125 m 1
 0 564.706054688 l 1
 176.470703125 564.706054688 l 1
 176.470703125 505.8828125 l 1
 117.647460938 505.8828125 l 1
 117.647460938 -141.176757812 l 1
 176.470703125 -141.176757812 l 1
 176.470703125 -200 l 1
 0 -200 l 1
 0 -141.176757812 l 1
 58.8232421875 -141.176757812 l 1
 58.8232421875 505.8828125 l 1
 0 505.8828125 l 1
235.293945312 -200 m 1
 235.293945312 564.706054688 l 1
 1000 564.706054688 l 1
 1000 -200 l 1
 235.293945312 -200 l 1
294.1171875 505.8828125 m 1
 294.1171875 -141.176757812 l 1
 941.176757812 -141.176757812 l 1
 941.176757812 505.8828125 l 1
 294.1171875 505.8828125 l 1
EndSplineSet
Validated: 1
EndChar

StartChar: l
Encoding: 108 108 44
Width: 1000
VWidth: 0
Flags: H
LayerCount: 2
Fore
SplineSet
468.024414062 614.739257812 m 0
 468.407226562 614.396484375 783.705078125 316.393554688 783.705078125 316.393554688 c 0
 792.700195312 307.032226562 798.864257812 299.59375 798.967773438 291.971679688 c 0
 799.21875 274.107421875 787.065429688 265.62890625 772.78515625 265.62890625 c 2
 460.909179688 265.62890625 l 1
 460.909179688 265.62890625 460.909179688 14.9189453125 460.909179688 13.1494140625 c 0
 460.909179688 -2.1953125 448.6328125 -14.634765625 433.2890625 -14.634765625 c 0
 417.9453125 -14.634765625 405.505859375 -2.1953125 405.505859375 13.1494140625 c 0
 405.505859375 14.94140625 405.505859375 590.350585938 405.505859375 590.506835938 c 0
 405.505859375 610.338867188 421.697265625 626.416015625 441.528320312 626.416015625 c 0
 452.020507812 626.416015625 460.829101562 621.290039062 468.024414062 614.739257812 c 0
487.392578125 739.068359375 m 0
 728.715820312 739.068359375 924.342773438 543.44140625 924.342773438 302.1171875 c 0
 924.342773438 60.8017578125 728.715820312 -134.837890625 487.392578125 -134.837890625 c 0
 246.073242188 -134.837890625 50.4453125 60.8017578125 50.4453125 302.1171875 c 0
 50.4453125 543.44140625 246.072265625 739.068359375 487.392578125 739.068359375 c 0
487.392578125 -91.1376953125 m 0
 704.580078125 -91.1376953125 880.65234375 84.9326171875 880.65234375 302.1171875 c 0
 880.65234375 519.3125 704.580078125 695.373046875 487.392578125 695.373046875 c 0
 270.2109375 695.373046875 94.1376953125 519.3125 94.1376953125 302.1171875 c 0
 94.1376953125 84.9306640625 270.2109375 -91.1376953125 487.392578125 -91.1376953125 c 0
EndSplineSet
Validated: 33
EndChar

StartChar: m
Encoding: 109 109 45
Width: 1000
VWidth: 0
Flags: H
LayerCount: 2
Fore
SplineSet
566.764648438 642.670898438 m 2
 911.751953125 316.638671875 l 2
 921.440429688 306.529296875 928.390625 298.315429688 928.390625 289.890625 c 0
 928.44140625 289.28515625 928.482421875 288.30078125 928.482421875 287.693359375 c 0
 928.482421875 273.044921875 916.592773438 261.155273438 901.944335938 261.155273438 c 0
 901.336914062 261.155273438 900.352539062 261.196289062 899.747070312 261.247070312 c 2
 558.97265625 261.247070312 l 1
 558.97265625 -15.9228515625 l 2
 559.030273438 -16.6181640625 559.077148438 -17.75 559.077148438 -18.447265625 c 0
 559.077148438 -35.189453125 545.490234375 -48.7763671875 528.749023438 -48.7763671875 c 0
 512.0078125 -48.7763671875 498.419921875 -35.189453125 498.419921875 -18.447265625 c 0
 498.419921875 -17.75 498.467773438 -16.6181640625 498.525390625 -15.9228515625 c 2
 498.525390625 615.922851562 l 2
 498.525390625 637.663085938 516.169921875 655.307617188 537.911132812 655.307617188 c 2
 537.911132812 655.307617188 537.911132812 655.307617188 537.911132812 655.307617188 c 0
 547.280273438 655.030273438 560.20703125 649.369140625 566.764648438 642.670898438 c 2
621.735351562 800.2109375 m 0
 965.248046875 800.2109375 1243.47070312 576.958984375 1243.47070312 300.2109375 c 0
 1243.47070312 23.462890625 965.038085938 -199.7890625 621.735351562 -199.7890625 c 0
 278.432617188 -199.7890625 -0 24.0947265625 -0 300.2109375 c 0
 -0 576.327148438 278.432617188 800.2109375 621.735351562 800.2109375 c 0
621.735351562 -149.874023438 m 0
 930.91796875 -149.874023438 1181.33984375 51.6845703125 1181.33984375 300.2109375 c 0
 1181.33984375 548.736328125 930.708007812 750.083984375 621.735351562 750.083984375 c 0
 312.763671875 750.083984375 62.341796875 548.736328125 62.341796875 300.2109375 c 0
 62.341796875 51.6845703125 312.763671875 -149.874023438 621.735351562 -149.874023438 c 0
EndSplineSet
Validated: 5
EndChar

StartChar: n
Encoding: 110 110 46
Width: 1000
VWidth: 0
Flags: H
LayerCount: 2
Fore
SplineSet
37.994140625 52.7861328125 m 0
 37.994140625 444.275390625 355.724609375 762.005859375 747.213867188 762.005859375 c 0
 1138.703125 762.005859375 1456.43359375 444.275390625 1456.43359375 52.7861328125 c 1024
747.213867188 458.0546875 m 0
 867.458007812 457.637695312 965.16015625 359.708007812 965.298828125 239.462890625 c 0
 965.228515625 226.301757812 962.844726562 205.196289062 959.979492188 192.350585938 c 0
 949.84765625 100.912109375 747.213867188 -200.506835938 747.213867188 -200.506835938 c 1
 747.213867188 -200.506835938 544.579101562 100.912109375 533.6875 192.350585938 c 0
 530.893554688 205.203125 528.624023438 226.309570312 528.622070312 239.462890625 c 0
 528.622070312 360.125976562 626.55078125 458.0546875 747.213867188 458.0546875 c 0
747.213867188 126.748046875 m 0
 747.213867188 126.748046875 747.213867188 126.748046875 747.213867188 126.748046875 c 0
 809.29296875 126.748046875 859.67578125 177.130859375 859.67578125 239.209960938 c 0
 859.67578125 239.279296875 859.67578125 239.393554688 859.67578125 239.462890625 c 0
 859.67578125 301.681640625 809.178710938 352.177734375 746.9609375 352.177734375 c 0
 684.741210938 352.177734375 634.245117188 301.681640625 634.245117188 239.462890625 c 0
 634.245117188 177.244140625 684.741210938 126.747070312 746.9609375 126.747070312 c 0
 747.030273438 126.747070312 747.143554688 126.748046875 747.213867188 126.748046875 c 0
EndSplineSet
Validated: 3
EndChar

StartChar: o
Encoding: 111 111 47
Width: 1000
VWidth: 0
Flags: H
LayerCount: 2
Fore
SplineSet
666.666992188 29.1669921875 m 1
 575 120.833007812 425 120.833007812 333.333007812 29.1669921875 c 1
 0 362.5 l 1
 275 639.583007812 725 639.583007812 1000 362.5 c 1
 666.666992188 29.1669921875 l 1
EndSplineSet
Validated: 33
EndChar

StartChar: q
Encoding: 113 113 48
Width: 1000
Flags: HW
LayerCount: 2
Fore
SplineSet
986 39 m 1
 621 39 l 1
 621 -34 l 1
 767 -34 l 1
 767 -82 l 1
 232 -82 l 1
 232 -34 l 1
 378 -34 l 1
 378 39 l 1
 13 39 l 1
 13 599 l 1
 986 599 l 1
 986 39 l 1
62 88 m 1
 937 88 l 1
 937 550 l 1
 62 550 l 1
 62 88 l 1
870 307 m 0
 882 307 893.166992188 304.333007812 903.5 299 c 0
 913.833007812 293.666992188 922 286.5 928 277.5 c 0
 934 268.5 937 258.666992188 937 248 c 0
 937 232 930.333007812 218.333007812 917 207 c 0
 903.666992188 195.666992188 888 190 870 190 c 0
 844 190 824.666992188 199.666992188 812 219 c 1
 647 219 l 1
 609 284 l 1
 532 36 l 1
 466 41 l 1
 416 520 l 1
 323 219 l 1
 62 219 l 1
 62 278 l 1
 271 278 l 1
 399 694 l 1
 465 689 l 1
 516 208 l 1
 591 447 l 1
 688 278 l 1
 812 278 l 1
 824.666992188 297.333007812 844 307 870 307 c 0
870 307 m 1024
EndSplineSet
Validated: 5
EndChar

StartChar: r
Encoding: 114 114 49
Width: 1000
Flags: HW
LayerCount: 2
Fore
SplineSet
512 94 m 0
 488.666992188 94 467.666015625 100.999023438 448.999023438 114.999023438 c 2
 411.999023438 142.999023438 l 2
 404.666015625 148.33203125 396.333007812 150.999023438 387 150.999023438 c 0
 377.666992188 150.999023438 369.333984375 148.33203125 362.000976562 142.999023438 c 2
 325.000976562 114.999023438 l 2
 306.333984375 100.999023438 285.333984375 93.9990234375 262.000976562 93.9990234375 c 0
 238.66796875 93.9990234375 217.66796875 100.999023438 199.000976562 114.999023438 c 2
 162.000976562 142.999023438 l 2
 154.66796875 148.33203125 146.334960938 150.999023438 137.001953125 150.999023438 c 0
 127.668945312 150.999023438 119.3359375 148.33203125 112.002929688 142.999023438 c 2
 64.0029296875 105.999023438 l 2
 58.0029296875 101.999023438 51.669921875 99.9990234375 45.0029296875 99.9990234375 c 0
 34.3359375 99.9990234375 26.0029296875 103.999023438 20.0029296875 111.999023438 c 0
 14.669921875 119.33203125 12.5029296875 127.33203125 13.5029296875 135.999023438 c 0
 14.5029296875 144.666015625 18.669921875 151.666015625 26.0029296875 156.999023438 c 2
 74.0029296875 193.999023438 l 2
 92.669921875 207.999023438 113.669921875 214.999023438 137.002929688 214.999023438 c 0
 160.3359375 214.999023438 181.3359375 207.666015625 200.002929688 192.999023438 c 2
 237.002929688 164.999023438 l 2
 244.3359375 159.666015625 252.668945312 156.999023438 262.001953125 156.999023438 c 0
 271.334960938 156.999023438 279.66796875 159.666015625 287.000976562 164.999023438 c 2
 324.000976562 193.999023438 l 2
 342.66796875 207.999023438 363.66796875 214.999023438 387.000976562 214.999023438 c 0
 410.333984375 214.999023438 431.333984375 207.999023438 450.000976562 193.999023438 c 2
 487.000976562 164.999023438 l 2
 494.333984375 159.666015625 502.666992188 156.999023438 512 156.999023438 c 0
 521.333007812 156.999023438 529.666015625 159.666015625 536.999023438 164.999023438 c 2
 573.999023438 193.999023438 l 2
 592.666015625 207.999023438 613.666015625 214.999023438 636.999023438 214.999023438 c 0
 660.33203125 214.999023438 681.33203125 207.999023438 699.999023438 193.999023438 c 2
 736.999023438 164.999023438 l 2
 744.33203125 159.666015625 752.499023438 156.999023438 761.499023438 156.999023438 c 0
 770.499023438 156.999023438 778.666015625 159.666015625 785.999023438 164.999023438 c 2
 823.999023438 193.999023438 l 2
 842.666015625 207.999023438 863.666015625 214.999023438 886.999023438 214.999023438 c 0
 910.33203125 214.999023438 931.33203125 207.666015625 949.999023438 192.999023438 c 2
 986.999023438 164.999023438 l 2
 993.666015625 159.666015625 997.666015625 152.666015625 998.999023438 143.999023438 c 2
 998.999023438 139.999023438 l 2
 998.999023438 132.666015625 996.999023438 126.333007812 992.999023438 121 c 0
 986.33203125 112.333007812 977.999023438 108 967.999023438 108 c 2
 966.999023438 108 l 2
 960.33203125 108 953.999023438 110.333007812 947.999023438 115 c 2
 910.999023438 143 l 2
 903.666015625 148.333007812 895.499023438 151 886.499023438 151 c 0
 877.499023438 151 869.33203125 148.333007812 861.999023438 143 c 2
 824.999023438 115 l 2
 806.33203125 101 785.33203125 94 761.999023438 94 c 0
 738.666015625 94 717.666015625 101 698.999023438 115 c 2
 660.999023438 143 l 2
 654.33203125 148.333007812 646.33203125 151 636.999023438 151 c 1
 636.999023438 151 l 1
 627.666015625 151 619.333007812 148.333007812 612 143 c 2
 575 115 l 2
 556.333007812 101 535.333007812 94 512 94 c 0
499.499023438 -71.0009765625 m 0
 475.83203125 -71.0009765625 454.661132812 -63.6669921875 435.994140625 -49 c 2
 398.994140625 -21 l 2
 391.661132812 -15.6669921875 383.494140625 -13 374.494140625 -13 c 0
 365.494140625 -13 357.327148438 -15.6669921875 349.994140625 -21 c 2
 312.994140625 -49 l 2
 294.327148438 -63.6669921875 273.327148438 -71 249.994140625 -71 c 0
 226.661132812 -71 205.661132812 -63.6669921875 186.994140625 -49 c 2
 148.994140625 -21 l 2
 142.327148438 -15.6669921875 134.327148438 -13 124.994140625 -13 c 0
 115.661132812 -13 107.328125 -15.6669921875 99.9951171875 -21 c 2
 50.9951171875 -58 l 2
 45.662109375 -62.6669921875 39.3291015625 -65 31.99609375 -65 c 0
 21.99609375 -65 13.6630859375 -60.6669921875 6.99609375 -52 c 0
 1.6630859375 -45.3330078125 -0.3369140625 -37.5 0.99609375 -28.5 c 0
 2.3291015625 -19.5 6.3291015625 -12.6669921875 12.99609375 -8 c 2
 61.99609375 29 l 2
 80.6630859375 43 101.663085938 50 124.99609375 50 c 0
 148.329101562 50 169.329101562 43 187.99609375 29 c 2
 224.99609375 1 l 2
 232.329101562 -4.3330078125 240.662109375 -7 249.995117188 -7 c 0
 259.328125 -7 267.328125 -4.3330078125 273.995117188 1 c 2
 311.995117188 29 l 2
 329.995117188 43 350.828125 50 374.495117188 50 c 0
 398.162109375 50 419.329101562 43 437.99609375 29 c 2
 474.99609375 1 l 2
 482.329101562 -4.3330078125 490.49609375 -7 499.49609375 -7 c 0
 508.49609375 -7 516.663085938 -4.3330078125 523.99609375 1 c 2
 560.99609375 29 l 2
 579.663085938 43 600.830078125 50 624.497070312 50 c 0
 648.1640625 50 668.997070312 43 686.997070312 29 c 2
 724.997070312 1 l 2
 731.6640625 -4.3330078125 739.6640625 -7 748.997070312 -7 c 0
 758.330078125 -7 766.663085938 -4.3330078125 773.99609375 1 c 2
 810.99609375 29 l 2
 829.663085938 43 850.663085938 50 873.99609375 50 c 0
 897.329101562 50 918.329101562 43 936.99609375 29 c 2
 973.99609375 1 l 2
 981.329101562 -4.3330078125 985.49609375 -11.3330078125 986.49609375 -20 c 0
 987.49609375 -28.6669921875 985.329101562 -36.333984375 979.99609375 -43.0009765625 c 0
 973.99609375 -51.66796875 965.663085938 -56.0009765625 954.99609375 -56.0009765625 c 0
 947.663085938 -56.0009765625 941.330078125 -53.66796875 935.997070312 -49.0009765625 c 2
 898.997070312 -21.0009765625 l 2
 891.6640625 -15.66796875 883.331054688 -13.0009765625 873.998046875 -13.0009765625 c 0
 864.665039062 -13.0009765625 856.33203125 -15.66796875 848.999023438 -21.0009765625 c 2
 811.999023438 -49.0009765625 l 2
 793.33203125 -63.66796875 772.33203125 -71.0009765625 748.999023438 -71.0009765625 c 0
 725.666015625 -71.0009765625 704.666015625 -63.66796875 685.999023438 -49.0009765625 c 2
 648.999023438 -21.0009765625 l 2
 641.666015625 -15.66796875 633.499023438 -13.0009765625 624.499023438 -13.0009765625 c 0
 615.499023438 -13.0009765625 607.33203125 -15.66796875 599.999023438 -21.0009765625 c 2
 561.999023438 -49.0009765625 l 2
 543.999023438 -63.66796875 523.166015625 -71.0009765625 499.499023438 -71.0009765625 c 0
401.995117188 658 m 1
 968.99609375 449 l 1
 864.99609375 150 l 1
 851.663085938 154.666992188 829.663085938 159 798.99609375 163 c 1
 886.99609375 411 l 1
 438.99609375 576 l 1
 306.99609375 159 l 1
 280.329101562 156.333007812 252.662109375 143.333007812 223.995117188 120 c 1
 401.995117188 658 l 1
479.99609375 411 m 1
 501.99609375 471 l 1
 588.99609375 439 l 1
 566.99609375 379 l 1
 479.99609375 411 l 1
773.99609375 371 m 1
 751.99609375 310 l 1
 664.99609375 342 l 1
 686.99609375 403 l 1
 773.99609375 371 l 1
547.99609375 327 m 1
 525.99609375 267 l 1
 438.99609375 299 l 1
 460.99609375 359 l 1
 547.99609375 327 l 1
732.99609375 264 m 1
 710.99609375 204 l 1
 623.99609375 236 l 1
 645.99609375 296 l 1
 732.99609375 264 l 1
EndSplineSet
Validated: 5
EndChar

StartChar: t
Encoding: 116 116 50
Width: 1000
VWidth: 0
Flags: H
LayerCount: 2
Fore
SplineSet
690 8.3330078125 m 2
 301 8.3330078125 l 2
 283.666992188 8.3330078125 269.666992188 22.3330078125 269.666992188 39.6669921875 c 0
 269.666992188 122 308.333007812 242 380 300 c 1
 308.333007812 358 269.666992188 478.333007812 269.666992188 560.333007812 c 0
 269.666992188 577.666992188 283.666992188 591.666992188 301 591.666992188 c 2
 690 591.666992188 l 2
 707.333007812 591.666992188 721.333007812 577.666992188 721.333007812 560.333007812 c 0
 721.333007812 478.666992188 688.666992188 358 619 300 c 1
 688.333007812 242 721.333007812 121.333007812 721.333007812 39.6669921875 c 0
 721.333007812 22.3330078125 707.333007812 8.3330078125 690 8.3330078125 c 2
334.333007812 71 m 1
 657 71 l 1
 648 160 603.333007812 256.333007812 545.333007812 269.666992188 c 0
 531 273 521 285.666992188 521 300.333007812 c 0
 521 315 531 327.666992188 545.333007812 331 c 0
 603.333007812 344 648.333007812 440.333007812 657 529.666992188 c 1
 334.333007812 529.666992188 l 1
 344.666992188 443.666992188 394.333007812 344.666992188 454.666992188 331 c 0
 469 327.666992188 479 315 479 300.333007812 c 0
 479 285.666992188 469 273 454.666992188 269.666992188 c 0
 394.333007812 255.666992188 344.666992188 157 334.333007812 71 c 1
569.333007812 131 m 0
 569.333007812 114 555.333007812 99.6669921875 538 99.6669921875 c 2
 456 99.6669921875 l 2
 438.666992188 99.6669921875 424.666992188 113.666992188 424.666992188 131 c 0
 424.666992188 148.333007812 438.666992188 162.333007812 456 162.333007812 c 2
 538 162.333007812 l 2
 555.333007812 162.333007812 569.333007812 148.333007812 569.333007812 131 c 0
500 -200 m 0
 224.333007812 -200 0 24.3330078125 0 300 c 0
 0 575.666992188 224.333007812 800 500 800 c 0
 775.666992188 800 1000 575.666992188 1000 300 c 0
 1000 24.3330078125 775.666992188 -200 500 -200 c 0
500 737.333007812 m 0
 259 737.333007812 62.6669921875 541.333007812 62.6669921875 300 c 0
 62.6669921875 58.6669921875 259 -137.333007812 500 -137.333007812 c 0
 741 -137.333007812 937.333007812 59 937.333007812 300 c 0
 937.333007812 541 741 737.333007812 500 737.333007812 c 0
EndSplineSet
Validated: 1
EndChar

StartChar: u
Encoding: 117 117 51
Width: 1000
VWidth: 0
Flags: H
LayerCount: 2
Fore
SplineSet
368.75 625 m 2
 843.75 625 l 2
 868.75 625 887.5 606.25 887.5 581.25 c 0
 887.5 556.25 868.75 537.5 843.75 537.5 c 2
 368.75 537.5 l 2
 343.75 537.5 325 556.25 325 581.25 c 0
 325 606.25 343.75 625 368.75 625 c 2
368.75 256.25 m 2
 343.75 256.25 325 275 325 300 c 0
 325 325 343.75 343.75 368.75 343.75 c 2
 843.75 343.75 l 2
 868.75 343.75 887.5 325 887.5 300 c 0
 887.5 275 868.75 256.25 843.75 256.25 c 2
 368.75 256.25 l 2
368.75 -18.75 m 2
 343.75 -18.75 325 0 325 25 c 0
 325 50 343.75 68.75 368.75 68.75 c 2
 843.75 68.75 l 2
 868.75 68.75 887.5 50 887.5 25 c 0
 887.5 0 868.75 -18.75 843.75 -18.75 c 2
 368.75 -18.75 l 2
193.75 481.25 m 2
 137.5 481.25 93.75 525 93.75 581.25 c 0
 93.75 637.5 137.5 681.25 193.75 681.25 c 2
 200 681.25 l 2
 256.25 681.25 300 637.5 300 581.25 c 0
 300 525 256.25 481.25 200 481.25 c 2
 193.75 481.25 l 2
193.75 618.75 m 2
 175 618.75 156.25 600 156.25 581.25 c 0
 156.25 562.5 175 543.75 193.75 543.75 c 2
 200 543.75 l 2
 218.75 543.75 237.5 562.5 237.5 581.25 c 0
 237.5 600 218.75 618.75 200 618.75 c 2
 193.75 618.75 l 2
193.75 200 m 2
 137.5 200 93.75 243.75 93.75 300 c 0
 93.75 356.25 137.5 400 193.75 400 c 2
 200 400 l 2
 256.25 400 300 356.25 300 300 c 0
 300 243.75 256.25 200 200 200 c 2
 193.75 200 l 2
193.75 337.5 m 2
 175 337.5 156.25 318.75 156.25 300 c 0
 156.25 281.25 175 262.5 193.75 262.5 c 2
 200 262.5 l 2
 218.75 262.5 237.5 281.25 237.5 300 c 0
 237.5 318.75 218.75 337.5 200 337.5 c 2
 193.75 337.5 l 2
193.75 -75 m 2
 137.5 -75 93.75 -31.25 93.75 25 c 0
 93.75 81.25 137.5 125 193.75 125 c 2
 200 125 l 2
 256.25 125 300 81.25 300 25 c 0
 300 -31.25 256.25 -75 200 -75 c 2
 193.75 -75 l 2
193.75 62.5 m 2
 175 62.5 156.25 43.75 156.25 25 c 0
 156.25 6.25 175 -12.5 193.75 -12.5 c 2
 200 -12.5 l 2
 218.75 -12.5 237.5 6.25 237.5 25 c 0
 237.5 43.75 218.75 62.5 200 62.5 c 2
 193.75 62.5 l 2
EndSplineSet
Validated: 1
EndChar

StartChar: v
Encoding: 118 118 52
Width: 1000
VWidth: 0
Flags: H
LayerCount: 2
Fore
SplineSet
936.25 579.4375 m 2
 855.5 373.25 l 1
 842.0625 338.875 l 2
 838.375 329.375 827.625 324.6875 818.125 328.4375 c 2
 783.75 341.875 l 1
 577.5 422.6875 l 2
 568 426.4375 563.3125 437.125 567.0625 446.625 c 2
 580.5 481 l 2
 584.1875 490.5 594.9375 495.1875 604.4375 491.4375 c 2
 775.25 424.5 l 1
 725.875 546 607.6875 632.1875 468.5 632.1875 c 0
 285.0625 632.1875 136.3125 483.4375 136.3125 300 c 0
 136.3125 116.5625 285 -32.1875 468.5 -32.1875 c 0
 613.0625 -32.1875 735.6875 60.3125 781.375 189.25 c 1
 858.8125 189.25 l 1
 810.5625 18.9375 654.3125 -106 468.5 -106 c 0
 244.25 -106 62.5 75.75 62.5 300 c 0
 62.5 524.25 244.25 706 468.5 706 c 0
 621.875 706 755 620.75 823.9375 495.1875 c 1
 867.5 606.375 l 2
 871.1875 615.875 881.9375 620.5625 891.4375 616.8125 c 2
 925.8125 603.375 l 2
 935.25 599.625 939.9375 588.9375 936.25 579.4375 c 2
EndSplineSet
Validated: 1
EndChar

